<svg xmlns="http://www.w3.org/2000/svg" width="67" height="67" viewBox="0 0 67 67"><g transform="translate(0.001 -0.001)"><path d="M66.139,45.036,56.07,34.966a21.795,21.795,0,0,0,.873-25.142A.982.982,0,1,0,55.3,10.9,19.844,19.844,0,1,1,52.74,7.759l.054.054A.982.982,0,0,0,54.186,6.43l-.056-.057a21.812,21.812,0,0,0-30.814,0q-.4.4-.775.816H.981A.982.982,0,0,0,0,8.17v4.341a.981.981,0,1,0,1.963,0V9.152h19a21.619,21.619,0,0,0-1.935,3.3H6.8a.981.981,0,0,0,0,1.963H18.219a21.743,21.743,0,0,0-.7,2.4H6.8a.981.981,0,1,0,0,1.963H17.152a21.931,21.931,0,0,0-.2,2.4H6.8a.982.982,0,0,0,0,1.963H16.988a21.81,21.81,0,0,0,2.2,8.29H17.535a.981.981,0,0,0-.981.982V61.468a.981.981,0,0,0,.981.982h7.852a.981.981,0,0,0,.981-.982V39.733a21.625,21.625,0,0,0,2.748,1.609V61.468a.982.982,0,0,0,.981.982h7.852a.981.981,0,0,0,.981-.982V43.561a22.143,22.143,0,0,0,2.291-.141V58.58a.981.981,0,1,0,1.963,0V43.1a21.641,21.641,0,0,0,8.723-3.972L61.973,49.2a2.945,2.945,0,0,0,4.166-4.164ZM24.405,60.487H18.516V33.395h1.768a21.8,21.8,0,0,0,3.032,3.8q.531.531,1.089,1.016Zm6.674,0v-18.3a21.847,21.847,0,0,0,5.889,1.305v17ZM64.751,47.812a.982.982,0,0,1-1.389,0l-9.943-9.943c.241-.22.478-.445.711-.678s.458-.469.678-.711l9.942,9.944a.982.982,0,0,1,0,1.388Zm0,0" transform="translate(0 0)" fill="#fff"/><path d="M42.2,166.656a.981.981,0,0,0-.981.981v2.225H1.963V121.59a.981.981,0,1,0-1.963,0v49.254a.981.981,0,0,0,.981.981H42.2a.981.981,0,0,0,.981-.981v-3.207A.981.981,0,0,0,42.2,166.656Zm0,0" transform="translate(-0.001 -104.825)" fill="#fff"/><path d="M32.5,301.176v21.2a.982.982,0,0,0,.981.981h7.852a.982.982,0,0,0,.981-.981v-21.2a.982.982,0,0,0-.981-.981H33.481A.982.982,0,0,0,32.5,301.176Zm1.963.982h5.889V321.4H34.463Zm0,0" transform="translate(-28.248 -260.911)" fill="#fff"/><path d="M52.82,197.143a.982.982,0,0,0,0-1.963H45.481a.982.982,0,0,0,0,1.963Zm0,0" transform="translate(-38.677 -169.638)" fill="#fff"/><path d="M177.332,29.988a17.836,17.836,0,1,0,12.631,5.225A17.741,17.741,0,0,0,177.332,29.988Zm11.243,29.1a15.923,15.923,0,1,1,4.649-11.244A15.79,15.79,0,0,1,188.574,59.09Zm0,0" transform="translate(-138.608 -26.063)" fill="#fff"/></g></svg>