<svg xmlns="http://www.w3.org/2000/svg" width="68.007" height="72.691" viewBox="0 0 68.007 72.691"><g transform="translate(0)"><path d="M192.2,394.293H162.377a1.073,1.073,0,0,0,0,2.146H192.2a1.073,1.073,0,1,0,0-2.146Zm0,0" transform="translate(-138.403 -338.313)" fill="#fff"/><path d="M192.2,341.215H162.377a1.073,1.073,0,0,0,0,2.146H192.2a1.073,1.073,0,0,0,0-2.146Zm0,0" transform="translate(-138.403 -292.771)" fill="#fff"/><path d="M161.3,289.178a1.073,1.073,0,0,0,1.073,1.073h18.976a1.073,1.073,0,1,0,0-2.146H162.378A1.073,1.073,0,0,0,161.3,289.178Zm0,0" transform="translate(-138.404 -247.202)" fill="#fff"/><path d="M65.118,14.074l-1.934-2.1V4.465A4.477,4.477,0,0,0,58.706,0H10.718A4.477,4.477,0,0,0,6.239,4.465v8.471H4.277A4.284,4.284,0,0,0,0,17.216V30.2a4.284,4.284,0,0,0,4.278,4.28H6.239V64.412a4.477,4.477,0,0,0,4.478,4.465h2.451a4.354,4.354,0,0,0,4.316,3.814H63.653a4.355,4.355,0,0,0,4.354-4.348V22c0-3.793-.114-4.909-2.888-7.925Zm.7,5.717H57.78a2.207,2.207,0,0,1-2.208-2.2l.007-9.33c1.411.1,1.787.522,3.024,1.9.205.228.429.477.678.748l2.051,2.226.022.024,2.185,2.372c1.7,1.852,2.157,2.63,2.277,4.264ZM8.385,4.465a2.329,2.329,0,0,1,2.333-2.319H58.706a2.329,2.329,0,0,1,2.333,2.319v5.18l-.179-.194c-.243-.263-.461-.506-.661-.728-1.764-1.961-2.534-2.639-5.691-2.639H17.485a4.354,4.354,0,0,0-4.35,4.348v2.5H8.385ZM65.861,68.343a2.208,2.208,0,0,1-2.208,2.2H17.485a2.206,2.206,0,0,1-2.2-2.2V52.8a1.073,1.073,0,0,0-2.146,0V66.731H10.718a2.329,2.329,0,0,1-2.333-2.319V34.483h4.75v13.4a1.073,1.073,0,0,0,2.146,0v-13.4H20.85a1.073,1.073,0,0,0,0-2.146H4.277A2.135,2.135,0,0,1,2.145,30.2V17.215a2.135,2.135,0,0,1,2.132-2.134H32.532a2.137,2.137,0,0,1,2.136,2.134V30.2a2.137,2.137,0,0,1-2.136,2.134H25.765a1.073,1.073,0,1,0,0,2.146h6.767a4.285,4.285,0,0,0,4.281-4.28V17.215a4.285,4.285,0,0,0-4.281-4.28H15.281v-2.5a2.206,2.206,0,0,1,2.2-2.2H53.433l-.007,9.36a4.356,4.356,0,0,0,4.354,4.348h8.081V68.343Zm0,0" fill="#fff"/><path d="M53.253,134.637h-2.57a1.094,1.094,0,0,0-.8.332,1.11,1.11,0,0,0-.331.817v7.6a1.084,1.084,0,0,0,.324.8,1.1,1.1,0,0,0,1.867-.77v-2.2h1.65a3.267,3.267,0,0,0,2.407-.9,3.493,3.493,0,0,0-.054-4.752,3.452,3.452,0,0,0-2.489-.92Zm.8,4.259a1.258,1.258,0,0,1-.92.392H51.738V136.6h1.406a1.217,1.217,0,0,1,.927.4,1.367,1.367,0,0,1,.372.967,1.272,1.272,0,0,1-.392.933Zm0,0" transform="translate(-42.513 -115.522)" fill="#fff"/><path d="M115.9,137.3a4.229,4.229,0,0,0-1.345-1.683,5.148,5.148,0,0,0-3.111-.878h-2.259a1.063,1.063,0,0,0-.8.338,1.082,1.082,0,0,0-.325.771v7.53a1.079,1.079,0,0,0,.311.8,1.2,1.2,0,0,0,.825.3h2.435A4.562,4.562,0,0,0,114.8,143.4a4.935,4.935,0,0,0,1.582-3.826,5.406,5.406,0,0,0-.48-2.278Zm-2.482,4.4a2.366,2.366,0,0,1-1.867.8h-1.3v-5.773h1.177a2.569,2.569,0,0,1,1.968.771,2.92,2.92,0,0,1,.723,2.082,3.093,3.093,0,0,1-.7,2.122Zm0,0" transform="translate(-92.723 -115.605)" fill="#fff"/><path d="M177.7,144.537a1.048,1.048,0,0,0,.778-.325,1.063,1.063,0,0,0,.318-.77v-2.907h2.083a1.019,1.019,0,0,0,.744-.291.971.971,0,0,0-.007-1.406,1.029,1.029,0,0,0-.737-.291h-2.083v-1.907h2.462a.932.932,0,0,0,.7-.3.966.966,0,0,0,.284-.689.98.98,0,0,0-.291-.723.949.949,0,0,0-.7-.291h-3.544a1.064,1.064,0,0,0-.8.338,1.1,1.1,0,0,0-.324.784v7.679a1.031,1.031,0,0,0,.338.771,1.084,1.084,0,0,0,.771.324Zm0,0" transform="translate(-151.518 -115.525)" fill="#fff"/></g></svg>