<svg xmlns="http://www.w3.org/2000/svg" width="68.169" height="68.179" viewBox="0 0 68.169 68.179"><g transform="translate(-2.009 -2)"><path d="M69.848,14.829l-12.5-12.5A1.174,1.174,0,0,0,56.542,2H28.134a3.419,3.419,0,0,0-3.409,3.409v6.875a23.832,23.832,0,0,0,0,47.612V66.77a3.419,3.419,0,0,0,3.409,3.409H66.769a3.419,3.419,0,0,0,3.409-3.409V15.636a1.174,1.174,0,0,0-.33-.807ZM57.678,5.875,66.3,14.5H58.815a1.136,1.136,0,0,1-1.136-1.136ZM4.271,36.089A21.616,21.616,0,0,1,24.725,14.534v21.09L9.839,50.509a21.453,21.453,0,0,1-5.568-14.42Zm7.17,16.022L26.327,37.226h21.09A21.548,21.548,0,0,1,11.442,52.112ZM67.905,66.77a1.136,1.136,0,0,1-1.136,1.136H28.134A1.136,1.136,0,0,1,27,66.77V59.9A23.879,23.879,0,0,0,49.724,36.089a1.136,1.136,0,0,0-1.136-1.136H27V5.409a1.136,1.136,0,0,1,1.136-1.136H55.406v9.091a3.419,3.419,0,0,0,3.409,3.409h9.091Z" fill="#fff"/><path d="M27.136,7A1.136,1.136,0,0,0,26,8.136V30.863A1.136,1.136,0,0,0,27.136,32H49.863A1.136,1.136,0,0,0,51,30.863,23.889,23.889,0,0,0,27.136,7Zm1.136,22.726V9.307a21.609,21.609,0,0,1,20.42,20.42Z" transform="translate(3.27 0.682)" fill="#fff"/><path d="M50.227,40A10.227,10.227,0,1,0,60.454,50.227,10.227,10.227,0,0,0,50.227,40Zm0,18.181a7.954,7.954,0,1,1,7.954-7.954A7.954,7.954,0,0,1,50.227,58.181Z" transform="translate(5.179 5.18)" fill="#fff"/><path d="M47.505,51.308,44.9,48.7l-1.607,1.607L46.7,53.718a1.136,1.136,0,0,0,1.607,0L55.127,46.9,53.52,45.293Z" transform="translate(5.628 5.902)" fill="#fff"/><path d="M50,19h9.091v2.273H50Z" transform="translate(6.542 2.317)" fill="#fff"/><path d="M50,25h9.091v2.273H50Z" transform="translate(6.542 3.135)" fill="#fff"/><path d="M50,31h9.091v2.273H50Z" transform="translate(6.542 3.953)" fill="#fff"/></g></svg>