<?xml version="1.0"?>
<svg xmlns="http://www.w3.org/2000/svg" xmlns:xlink="http://www.w3.org/1999/xlink" xmlns:svgjs="http://svgjs.com/svgjs" version="1.1" width="512" height="512" x="0" y="0" viewBox="0 0 512 512" style="enable-background:new 0 0 512 512" xml:space="preserve" class=""><g><g xmlns="http://www.w3.org/2000/svg" id="Out_line" data-name="Out line"><path d="M464,456a7.9979,7.9979,0,0,0-8-8H416a7.9979,7.9979,0,0,0-8,8v24H392V384a7.9979,7.9979,0,0,0-8-8H344a7.9979,7.9979,0,0,0-8,8v96H320V384a7.9979,7.9979,0,0,0-8-8H272a7.9979,7.9979,0,0,0-8,8v96H248V424a7.9979,7.9979,0,0,0-8-8H200a7.9979,7.9979,0,0,0-8,8v56H176V352a7.9979,7.9979,0,0,0-8-8H128a7.9979,7.9979,0,0,0-8,8V480H104V256a7.9979,7.9979,0,0,0-8-8H56a7.9979,7.9979,0,0,0-8,8V480H32v16H496V480H464ZM64,480V264H88V480Zm72,0V360h24V480Zm72,0V432h24v48Zm72,0V392h24v88Zm72,0V392h24v88Zm72,0V464h24v16Z" fill="#0c3761" data-original="#000000" class=""/><path d="M488,344H456a8.00039,8.00039,0,0,0-8,8v4.68652L301.65723,210.34277a8.003,8.003,0,0,0-11.31446,0L224,276.68652,85.65723,138.34277a8.003,8.003,0,0,0-11.31446,0l-56,56a8.00122,8.00122,0,0,0,0,11.31446l24,24a8.003,8.003,0,0,0,11.31446,0L80,203.31348,218.34277,341.65723a8.003,8.003,0,0,0,11.31446,0L296,275.31348,412.68652,392H408a8.00039,8.00039,0,0,0-8,8v32a8.00039,8.00039,0,0,0,8,8h80a8.00039,8.00039,0,0,0,8-8V352A8.00039,8.00039,0,0,0,488,344Zm-8,80H416V408h16a8.00066,8.00066,0,0,0,5.65723-13.65723l-136-136a8.003,8.003,0,0,0-11.31446,0L224,324.68652,85.65723,186.34277a8.003,8.003,0,0,0-11.31446,0L48,212.68652,35.31348,200,80,155.31348,218.34277,293.65723a8.003,8.003,0,0,0,11.31446,0L296,227.31348,450.34277,381.65723A8.00066,8.00066,0,0,0,464,376V360h16Z" fill="#0c3761" data-original="#000000" class=""/><path d="M196.51465,200H363.57422a23.9991,23.9991,0,0,0,20.5166-36.45117L300.80957,26.32129A23.8227,23.8227,0,0,0,280.3252,14.77246H280.292a23.82831,23.82831,0,0,0-20.4834,11.49414L176.03027,163.49414A24.00023,24.00023,0,0,0,196.51465,200Zm-6.82813-28.168L273.46484,34.60449v-.001a7.88,7.88,0,0,1,6.82911-3.83106h.00976a7.88237,7.88237,0,0,1,6.82813,3.84961l83.28125,137.22852A7.9992,7.9992,0,0,1,363.57422,184H196.51465a7.99936,7.99936,0,0,1-6.82813-12.168Z" fill="#0c3761" data-original="#000000" class=""/><path d="M264.08008,137.13184A8.00073,8.00073,0,0,0,272,144h16a8.00073,8.00073,0,0,0,7.91992-6.86816l8-56A8.00061,8.00061,0,0,0,296,72H264a8.00061,8.00061,0,0,0-7.91992,9.13184ZM286.77637,88l-5.71485,40h-2.123l-5.71485-40Z" fill="#0c3761" data-original="#000000" class=""/><circle cx="280" cy="160" r="8" fill="#0c3761" data-original="#000000" class=""/></g></g></svg>
