<svg xmlns="http://www.w3.org/2000/svg" width="68.163" height="68.163" viewBox="0 0 68.163 68.163"><g transform="translate(-1 -1)"><path d="M65.865,1H19.69a3.3,3.3,0,0,0-3.3,3.3V8.7h-4.4a3.3,3.3,0,0,0-3.3,3.3v4.4H4.3A3.3,3.3,0,0,0,1,19.69V50.473a3.3,3.3,0,0,0,3.3,3.3H21.167a4.127,4.127,0,0,0,.279.872,4.068,4.068,0,0,0,1.936,1.968l8.136,4.979a1.072,1.072,0,0,0,.192.093,10.016,10.016,0,0,0,2.876.608l3.167,6.871h2.419L36.3,60.746a1.075,1.075,0,0,0-1.026-.639,7.834,7.834,0,0,1-2.7-.45l-8.1-4.954a1.074,1.074,0,0,0-.117-.063,1.9,1.9,0,0,1-.917-.916,1.847,1.847,0,0,1,.66-2.338,1.813,1.813,0,0,1,1.394-.27l3.234,1.429a1.1,1.1,0,0,0,1.442-1.466L21.44,32.1a1.1,1.1,0,1,1,2-.92l3.673,7.979v.012l3.218,6.989,1-.46,1-.46h0l-.556-1.209-2.664-5.788a1.1,1.1,0,0,1,2-.916l3.22,6.992,1-.461,1-.46h0l-.7-1.527-1.591-3.464a1.1,1.1,0,0,1,2-.919l2.3,4.993,2-.919-1.381-3a1.1,1.1,0,0,1,2-.918l4.334,9.455a7.854,7.854,0,0,1-.571,7.916,1.1,1.1,0,0,0-.1,1.1L50.6,69.163h2.419L46.845,55.75a9.6,9.6,0,0,0,.913-1.979h2.716a3.3,3.3,0,0,0,3.3-3.3v-4.4h4.4a3.3,3.3,0,0,0,3.3-3.3v-4.4h4.4a3.3,3.3,0,0,0,3.3-3.3V4.3A3.3,3.3,0,0,0,65.865,1ZM51.573,50.473a1.1,1.1,0,0,1-1.1,1.1h-2.26a10.554,10.554,0,0,0-.947-5.387l-4.332-9.455a3.3,3.3,0,0,0-5.387-.891,3.281,3.281,0,0,0-4.913-.157,3.245,3.245,0,0,0-4.813-.245l-2.382-5.177a3.3,3.3,0,1,0-5.992,2.757l7.519,16.337-.67-.3A1,1,0,0,0,26.124,49a4.048,4.048,0,0,0-4.812,2.573H4.3a1.1,1.1,0,0,1-1.1-1.1V19.69a1.1,1.1,0,0,1,1.1-1.1H50.473a1.1,1.1,0,0,1,1.1,1.1Zm7.7-7.7a1.1,1.1,0,0,1-1.1,1.1h-4.4V19.69a3.3,3.3,0,0,0-3.3-3.3H10.895v-4.4a1.1,1.1,0,0,1,1.1-1.1H58.169a1.1,1.1,0,0,1,1.1,1.1Zm7.7-7.7a1.1,1.1,0,0,1-1.1,1.1h-4.4V11.994a3.3,3.3,0,0,0-3.3-3.3H18.59V4.3a1.1,1.1,0,0,1,1.1-1.1H65.865a1.1,1.1,0,0,1,1.1,1.1Z" fill="#fff"/><ellipse cx="1.411" cy="0.941" rx="1.411" ry="0.941" transform="translate(39.063 19.812)" fill="#fff"/><circle cx="0.941" cy="0.941" r="0.941" transform="translate(43.766 19.812)" fill="#fff"/><circle cx="0.941" cy="0.941" r="0.941" transform="translate(48.469 19.812)" fill="#fff"/><circle cx="0.941" cy="0.941" r="0.941" transform="translate(47.529 12.287)" fill="#fff"/><ellipse cx="1.411" cy="0.941" rx="1.411" ry="0.941" transform="translate(51.291 12.287)" fill="#fff"/><circle cx="0.941" cy="0.941" r="0.941" transform="translate(55.994 12.287)" fill="#fff"/><circle cx="0.941" cy="0.941" r="0.941" transform="translate(55.054 4.762)" fill="#fff"/><ellipse cx="1.411" cy="0.941" rx="1.411" ry="0.941" transform="translate(58.816 4.762)" fill="#fff"/><circle cx="0.941" cy="0.941" r="0.941" transform="translate(63.519 4.762)" fill="#fff"/><path d="M17.024,38.8a1.1,1.1,0,0,0-.31-1.216l-4.4-3.811-1.44,1.662,2.17,1.88H5v2.2H15.994A1.1,1.1,0,0,0,17.024,38.8Z" transform="translate(0.398 3.258)" fill="#fff"/><path d="M5.069,40.715a1.1,1.1,0,0,0,.31,1.216l4.4,3.811,1.44-1.662L9.047,42.2h8.047V40H6.1A1.1,1.1,0,0,0,5.069,40.715Z" transform="translate(0.398 3.877)" fill="#fff"/></g></svg>