<?xml version="1.0"?>
<svg xmlns="http://www.w3.org/2000/svg" xmlns:xlink="http://www.w3.org/1999/xlink" xmlns:svgjs="http://svgjs.com/svgjs" version="1.1" width="512" height="512" x="0" y="0" viewBox="0 0 62 62" style="enable-background:new 0 0 512 512" xml:space="preserve"><g><g xmlns="http://www.w3.org/2000/svg"><path d="m62 42h-6.616c-1.437-1.288-3.268-2-5.213-2h-.275c3.66-2.302 6.104-6.366 6.104-11 0-4.883-2.709-9.141-6.7-11.363l1.049-2.098c.831.293 1.721.461 2.651.461 4.411 0 8-3.589 8-8s-3.589-8-8-8-8 3.589-8 8c0 2.768 1.414 5.212 3.558 6.648l-1.081 2.162c-1.399-.514-2.902-.81-4.477-.81-.338 0-.669.025-1 .051v-12.051c0-1.103-.897-2-2-2h-10c0-1.103-.897-2-2-2h-14c-1.103 0-2 .897-2 2h-10c-1.103 0-2 .897-2 2v52c0 1.103.897 2 2 2h34.184c.414 1.161 1.514 2 2.816 2h1.184c.414 1.161 1.514 2 2.816 2s2.402-.839 2.816-2h16.184zm-15-34c0-3.309 2.691-6 6-6s6 2.691 6 6-2.691 6-6 6-6-2.691-6-6zm3.171 34c1.422 0 2.768.506 3.829 1.433v14.567h-8v-9.504c1.084.939 2.483 1.504 4 1.504v-2c-1.896 0-3.54-1.284-4-3.122l-.218-.878h-3.782c-1.103 0-2-.897-2-2zm-13.171 12c-.551 0-1-.449-1-1s.449-1 1-1h3v2zm-31-2v-44h30v10.063c-2.441 1.568-4.321 3.926-5.282 6.715l-2.793-1.029c.037-.247.075-.493.075-.749 0-2.757-2.243-5-5-5s-5 2.243-5 5 2.243 5 5 5c1.791 0 3.352-.955 4.236-2.374l2.977 1.097c-.132.741-.213 1.499-.213 2.277 0 5.485 3.419 10.176 8.233 12.083-.144.276-.233.585-.233.917h-1c-1.654 0-3 1.346-3 3 0 .771.301 1.468.78 2-.48.532-.78 1.229-.78 2s.301 1.468.78 2c-.261.289-.463.626-.596 1zm20-29c0 1.654-1.346 3-3 3s-3-1.346-3-3 1.346-3 3-3 3 1.346 3 3zm11 27c-.551 0-1-.449-1-1s.449-1 1-1h3v2zm0-4c-.551 0-1-.449-1-1s.449-1 1-1h1.556c.349.599.845 1.094 1.444 1.444v.556zm9.577-27.391-.899 1.798c-.846-.264-1.746-.407-2.678-.407-4.962 0-9 4.038-9 9s4.038 9 9 9 9-4.038 9-9c0-3.319-1.811-6.218-4.493-7.778l.896-1.793c3.337 1.892 5.597 5.47 5.597 9.571 0 6.065-4.935 11-11 11s-11-4.935-11-11 4.935-11 11-11c1.254 0 2.454.221 3.577.609zm-10.57 10.249 2.033.749c-.013.131-.04.258-.04.393 0 2.206 1.794 4 4 4s4-1.794 4-4c0-1.2-.542-2.266-1.382-3l1.993-3.986c2.027 1.228 3.389 3.448 3.389 5.986 0 3.86-3.14 7-7 7s-7-3.14-7-7c0-.048.006-.094.007-.142zm7.993 1.142c0 1.103-.897 2-2 2s-2-.897-2-2 .897-2 2-2 2 .897 2 2zm-1.164-3.909c-.27-.058-.549-.091-.836-.091-1.36 0-2.56.685-3.283 1.725l-2.376-.876c.91-2.81 3.55-4.849 6.659-4.849.61 0 1.2.087 1.765.234zm-2.836-22.091v12.363c-.688.163-1.359.371-2 .64v-11.003h-8v-2zm-12-2v4h-14v-4zm-26 2h10v2h-8v48h30.184c.328.919 1.086 1.627 2.036 1.884-.015.037-.022.078-.036.116h-34.184zm36 53c0-.551.449-1 1-1h1v2h-1c-.551 0-1-.449-1-1zm5 3c-.551 0-1-.449-1-1v-13h2v13c0 .551-.449 1-1 1zm17-2h-4v-14h4z" fill="#ffffff" data-original="#000000"/><path d="m8 50h6v-6h-6zm2-4h2v2h-2z" fill="#ffffff" data-original="#000000"/><path d="m16 46h12v2h-12z" fill="#ffffff" data-original="#000000"/><path d="m8 42h6v-6h-6zm2-4h2v2h-2z" fill="#ffffff" data-original="#000000"/><path d="m16 38h12v2h-12z" fill="#ffffff" data-original="#000000"/><path d="m8 34h6v-6h-6zm2-4h2v2h-2z" fill="#ffffff" data-original="#000000"/><path d="m16 30h12v2h-12z" fill="#ffffff" data-original="#000000"/><path d="m8 10h12v2h-12z" fill="#ffffff" data-original="#000000"/><path d="m8 14h10v2h-10z" fill="#ffffff" data-original="#000000"/><path d="m8 18h8v2h-8z" fill="#ffffff" data-original="#000000"/><path d="m8 22h2v2h-2z" fill="#ffffff" data-original="#000000"/><path d="m12 22h2v2h-2z" fill="#ffffff" data-original="#000000"/></g></g></svg>
