<?xml version="1.0"?>
<svg xmlns="http://www.w3.org/2000/svg" xmlns:xlink="http://www.w3.org/1999/xlink" xmlns:svgjs="http://svgjs.com/svgjs" version="1.1" width="512" height="512" x="0" y="0" viewBox="0 0 512 512" style="enable-background:new 0 0 512 512" xml:space="preserve" class=""><g><path xmlns="http://www.w3.org/2000/svg" d="M32,435.31348l48.9707,48.9707A39.73644,39.73644,0,0,0,109.25488,496H360a7.99977,7.99977,0,0,0,8-8V472a32.036,32.036,0,0,0-32-32V392a7.99977,7.99977,0,0,0-8-8H219.31348l-9.94092-9.94092A47.68367,47.68367,0,0,0,175.43164,360H150.98743A31.948,31.948,0,0,0,152,352V329.88824l5.78857-11.57672A20.94437,20.94437,0,0,0,139.05566,288H120a32.036,32.036,0,0,0-32,32v32a31.948,31.948,0,0,0,1.01257,8H57.94092A41.9882,41.9882,0,0,0,16,401.94092V496H32ZM352,472v8H336V456A16.01833,16.01833,0,0,1,352,472Zm-152,8H109.25488a23.84457,23.84457,0,0,1-16.9707-7.0293L79.31348,460,100,439.31348l14.34326,14.34326A7.99877,7.99877,0,0,0,120,456h64a16.01833,16.01833,0,0,1,16,16Zm-81.44153-64h2.88306l4.8,24H123.314l-7.96307-7.96295Zm4.49744-16h-6.11182l-4.03937-8.07867L120,386.24512l7.09528,5.67621Zm13.76147-20.7912A32.18322,32.18322,0,0,0,141.13232,376H152v15.355ZM120,368a16.01833,16.01833,0,0,1-16-16v-4.68652L115.31348,336H136v16A16.01833,16.01833,0,0,1,120,368Zm-16.81738,11.2088L88,391.355V376H98.86768A32.18322,32.18322,0,0,0,103.18262,379.2088Zm-3.05512,22.93433,3.48969,6.97943-1.86365,9.31732-9.77649-9.77637ZM320,480H216v-8a31.86,31.86,0,0,0-8-21.13232V400H320ZM197.16919,384.525A7.99546,7.99546,0,0,0,192,392v28.68652l-10.34326-10.34326-11.31348,11.31348,18.75391,18.7539A32.08221,32.08221,0,0,0,184,440H142.55847l-6.17566-30.87744,3.48969-6.97943,15.12994,12.10394A8.00013,8.00013,0,0,0,168,408V376h7.43164A31.76818,31.76818,0,0,1,197.16919,384.525ZM120,304h19.05566a4.94417,4.94417,0,0,1,4.42237,7.15527L139.05585,320H112a7.99877,7.99877,0,0,0-5.65674,2.34326L104,324.68652V320A16.01833,16.01833,0,0,1,120,304ZM57.94092,376H72v32a7.98362,7.98362,0,0,0,2.356,5.644l-.01276.01276L88.68652,428,68,448.68652,39.59766,420.28418A25.94129,25.94129,0,0,1,57.94092,376Z" fill="#0c3761" data-original="#000000"/><path xmlns="http://www.w3.org/2000/svg" d="M264,464a24,24,0,1,0-24-24A24.02687,24.02687,0,0,0,264,464Zm0-32a8,8,0,1,1-8,8A8.00917,8.00917,0,0,1,264,432Z" fill="#0c3761" data-original="#000000"/><path xmlns="http://www.w3.org/2000/svg" d="M472,16H144a24.02687,24.02687,0,0,0-24,24V272h16V80H480V312a8.00917,8.00917,0,0,1-8,8H176v16H472a24.02687,24.02687,0,0,0,24-24V40A24.02687,24.02687,0,0,0,472,16ZM136,64V40a8.00917,8.00917,0,0,1,8-8H472a8.00917,8.00917,0,0,1,8,8V64Z" fill="#0c3761" data-original="#000000"/><circle xmlns="http://www.w3.org/2000/svg" cx="152" cy="48" r="8" fill="#0c3761" data-original="#000000"/><circle xmlns="http://www.w3.org/2000/svg" cx="176" cy="48" r="8" fill="#0c3761" data-original="#000000"/><circle xmlns="http://www.w3.org/2000/svg" cx="200" cy="48" r="8" fill="#0c3761" data-original="#000000"/><path xmlns="http://www.w3.org/2000/svg" d="M216,168a7.99977,7.99977,0,0,0,8-8V112a7.99977,7.99977,0,0,0-8-8H168a7.99977,7.99977,0,0,0-8,8v48a7.99977,7.99977,0,0,0,8,8Zm-40-48h32v32H176Z" fill="#0c3761" data-original="#000000"/><rect xmlns="http://www.w3.org/2000/svg" x="248" y="112" width="40" height="16" fill="#0c3761" data-original="#000000"/><rect xmlns="http://www.w3.org/2000/svg" x="304" y="112" width="80" height="16" fill="#0c3761" data-original="#000000"/><rect xmlns="http://www.w3.org/2000/svg" x="248" y="144" width="72" height="16" fill="#0c3761" data-original="#000000"/><path xmlns="http://www.w3.org/2000/svg" d="M152,224a23.9892,23.9892,0,0,0,35.30157,21.16528l37.0445,30.87043a23.9986,23.9986,0,0,0,46.88843,1.98541L310.886,264.804a23.98686,23.98686,0,0,0,38.27929-28.10553l25.49292-30.59137a23.9706,23.9706,0,0,0,17.82862.33819l26.77893,37.49036a23.99445,23.99445,0,1,0,12.24743-10.38086l-26.77893-37.49036a23.99742,23.99742,0,1,0-41.89953-.76282L337.3418,225.89294A23.99961,23.99961,0,0,0,304,248c0,.7417.03882,1.4743.105,2.199l-34.44116,11.4804a23.98476,23.98476,0,0,0-41.44739-3.2464l-30.10937-25.09118A23.99993,23.99993,0,1,0,152,224Zm296,32a8,8,0,1,1-8-8A8.00917,8.00917,0,0,1,448,256Zm-64-80a8,8,0,1,1-8,8A8.00917,8.00917,0,0,1,384,176Zm-56,64a8,8,0,1,1-8,8A8.00917,8.00917,0,0,1,328,240Zm-80,24a8,8,0,1,1-8,8A8.00917,8.00917,0,0,1,248,264Zm-72-48a8,8,0,1,1-8,8A8.00917,8.00917,0,0,1,176,216Z" fill="#0c3761" data-original="#000000"/></g></svg>
