<?xml version="1.0" encoding="utf-8"?>
<!-- Generator: Adobe Illustrator 26.2.1, SVG Export Plug-In . SVG Version: 6.00 Build 0)  -->
<svg version="1.1" id="Layer_1" xmlns:svgjs="http://svgjs.com/svgjs"
	 xmlns="http://www.w3.org/2000/svg" xmlns:xlink="http://www.w3.org/1999/xlink" x="0px" y="0px" viewBox="0 0 512 512"
	 style="enable-background:new 0 0 512 512;" xml:space="preserve">
<style type="text/css">
	.st0{fill:#0F3764;}
</style>
<g>
	<g>
		<path class="st0" d="M512,346.8h-54.6c-11.9-10.6-27-16.5-43-16.5H412c30.2-19,50.4-52.6,50.4-90.8c0-40.3-22.4-75.5-55.3-93.8
			l8.7-17.3c6.9,2.4,14.2,3.8,21.9,3.8c36.4,0,66.1-29.6,66.1-66.1S474.1,0,437.7,0s-66.1,29.6-66.1,66.1c0,22.9,11.7,43,29.4,54.9
			l-8.9,17.9c-11.6-4.2-24-6.7-37-6.7c-2.8,0-5.5,0.2-8.3,0.4V33c0-9.1-7.4-16.5-16.5-16.5h-82.6c0-9.1-7.4-16.5-16.5-16.5H115.6
			c-9.1,0-16.5,7.4-16.5,16.5H16.5C7.4,16.5,0,23.9,0,33v429.4c0,9.1,7.4,16.5,16.5,16.5h282.3c3.4,9.6,12.5,16.5,23.3,16.5h9.8
			c3.4,9.6,12.5,16.5,23.3,16.5s19.8-6.9,23.3-16.5H512L512,346.8z M388.1,66.1c0-27.3,22.2-49.5,49.5-49.5
			c27.3,0,49.5,22.2,49.5,49.5s-22.2,49.5-49.5,49.5C410.4,115.6,388.1,93.4,388.1,66.1z M414.3,346.8c11.7,0,22.9,4.2,31.6,11.8
			V479h-66.1v-78.5c9,7.8,20.5,12.4,33,12.4v-16.5c-15.7,0-29.2-10.6-33-25.8l-1.8-7.3h-31.2c-9.1,0-16.5-7.4-16.5-16.5L414.3,346.8
			z M305.5,445.9c-4.6,0-8.3-3.7-8.3-8.3c0-4.6,3.7-8.3,8.3-8.3h24.8v16.5H305.5z M49.5,429.4V66.1h247.7v83.1
			c-20.2,12.9-35.7,32.4-43.6,55.5l-23.1-8.5c0.3-2,0.6-4.1,0.6-6.2c0-22.8-18.5-41.3-41.3-41.3s-41.3,18.5-41.3,41.3
			s18.5,41.3,41.3,41.3c14.8,0,27.7-7.9,35-19.6l24.6,9.1c-1.1,6.1-1.8,12.4-1.8,18.8c0,45.3,28.2,84,68,99.8
			c-1.2,2.3-1.9,4.8-1.9,7.6h-8.3c-13.7,0-24.8,11.1-24.8,24.8c0,6.4,2.5,12.1,6.4,16.5c-4,4.4-6.4,10.1-6.4,16.5s2.5,12.1,6.4,16.5
			c-2.2,2.4-3.8,5.2-4.9,8.3H49.5z M214.7,189.9c0,13.7-11.1,24.8-24.8,24.8c-13.7,0-24.8-11.1-24.8-24.8
			c0-13.7,11.1-24.8,24.8-24.8C203.6,165.2,214.7,176.3,214.7,189.9z M305.5,412.9c-4.6,0-8.3-3.7-8.3-8.3c0-4.6,3.7-8.3,8.3-8.3
			h24.8v16.5H305.5z M305.5,379.9c-4.6,0-8.3-3.7-8.3-8.3c0-4.6,3.7-8.3,8.3-8.3h12.8c2.9,4.9,7,9,11.9,11.9v4.6H305.5z
			 M384.6,153.7l-7.4,14.8c-7-2.2-14.4-3.4-22.1-3.4c-41,0-74.3,33.3-74.3,74.3s33.3,74.3,74.3,74.3s74.3-33.3,74.3-74.3
			c0-27.4-15-51.3-37.1-64.2l7.4-14.8c27.6,15.6,46.2,45.2,46.2,79c0,50.1-40.8,90.8-90.8,90.8s-90.8-40.8-90.8-90.8
			s40.8-90.8,90.8-90.8C365.5,148.6,375.4,150.5,384.6,153.7z M297.3,238.3l16.8,6.2c-0.1,1.1-0.3,2.1-0.3,3.2c0,18.2,14.8,33,33,33
			c18.2,0,33-14.8,33-33c0-9.9-4.5-18.7-11.4-24.8l16.5-32.9c16.7,10.1,28,28.5,28,49.4c0,31.9-25.9,57.8-57.8,57.8
			s-57.8-25.9-57.8-57.8C297.3,239.1,297.3,238.7,297.3,238.3L297.3,238.3z M363.4,247.7c0,9.1-7.4,16.5-16.5,16.5
			c-9.1,0-16.5-7.4-16.5-16.5c0-9.1,7.4-16.5,16.5-16.5C355.9,231.2,363.4,238.6,363.4,247.7z M353.7,215.5
			c-2.2-0.5-4.5-0.8-6.9-0.8c-11.2,0-21.1,5.7-27.1,14.2l-19.6-7.2c7.5-23.2,29.3-40,55-40c5,0,9.9,0.7,14.6,1.9L353.7,215.5z
			 M330.3,33v102.1c-5.7,1.3-11.2,3.1-16.5,5.3V49.5h-66.1V33H330.3z M231.2,16.5v33H115.6v-33H231.2z M16.5,33h82.6v16.5H33v396.4
			h249.3c2.7,7.6,9,13.4,16.8,15.6c-0.1,0.3-0.2,0.6-0.3,1H16.5V33z M313.8,470.7c0-4.6,3.7-8.3,8.3-8.3h8.3V479h-8.3
			C317.5,479,313.8,475.3,313.8,470.7z M355.1,495.5c-4.6,0-8.3-3.7-8.3-8.3V379.9h16.5v107.4C363.4,491.8,359.6,495.5,355.1,495.5z
			 M495.5,479h-33V363.4h33V479z"/>
		<path class="st0" d="M66.1,412.9h49.5v-49.5H66.1V412.9z M82.6,379.9h16.5v16.5H82.6V379.9z"/>
		<path class="st0" d="M132.1,379.9h99.1v16.5h-99.1V379.9z"/>
		<path class="st0" d="M66.1,346.8h49.5v-49.5H66.1V346.8z M82.6,313.8h16.5v16.5H82.6V313.8z"/>
		<path class="st0" d="M132.1,313.8h99.1v16.5h-99.1V313.8z"/>
		<path class="st0" d="M66.1,280.8h49.5v-49.5H66.1V280.8z M82.6,247.7h16.5v16.5H82.6V247.7z"/>
		<path class="st0" d="M132.1,247.7h99.1v16.5h-99.1V247.7z"/>
		<path class="st0" d="M66.1,82.6h99.1v16.5H66.1V82.6z"/>
		<path class="st0" d="M66.1,115.6h82.6v16.5H66.1V115.6z"/>
		<path class="st0" d="M66.1,148.6h66.1v16.5H66.1V148.6z"/>
		<path class="st0" d="M66.1,181.7h16.5v16.5H66.1V181.7z"/>
		<path class="st0" d="M99.1,181.7h16.5v16.5H99.1V181.7z"/>
	</g>
</g>
</svg>
