<svg xmlns="http://www.w3.org/2000/svg" width="69.877" height="69.877" viewBox="0 0 69.877 69.877"><path d="M67.5,59.607H66.369V20.16a3.381,3.381,0,0,0-3.381-3.381H56.225V15.652A1.127,1.127,0,0,0,55.1,14.525H53.3a15.654,15.654,0,0,0-1.24-2.986l1.271-1.272a1.127,1.127,0,0,0,0-1.594L48.552,3.891a1.16,1.16,0,0,0-1.594,0L45.686,5.163A15.628,15.628,0,0,0,42.7,3.924v-1.8A1.127,1.127,0,0,0,41.574,1H34.811a1.127,1.127,0,0,0-1.127,1.127v1.8A15.628,15.628,0,0,0,30.7,5.163L29.426,3.891a1.16,1.16,0,0,0-1.594,0L23.051,8.673a1.127,1.127,0,0,0,0,1.594l1.271,1.272a15.654,15.654,0,0,0-1.239,2.986h-1.8a1.127,1.127,0,0,0-1.127,1.127v1.127H8.889A3.381,3.381,0,0,0,5.508,20.16V59.607H4.381A3.381,3.381,0,0,0,1,62.988v2.254a5.642,5.642,0,0,0,5.635,5.635H65.242a5.642,5.642,0,0,0,5.635-5.635V62.988A3.381,3.381,0,0,0,67.5,59.607ZM22.414,16.779h1.534a1.127,1.127,0,0,0,1.1-.868,13.485,13.485,0,0,1,1.646-3.965,1.127,1.127,0,0,0-.162-1.39L25.442,9.47,28.63,6.281l1.086,1.088a1.127,1.127,0,0,0,1.39.162,13.412,13.412,0,0,1,3.965-1.645,1.127,1.127,0,0,0,.868-1.1V3.254h4.508V4.789a1.127,1.127,0,0,0,.868,1.1A13.412,13.412,0,0,1,45.28,7.537a1.127,1.127,0,0,0,1.39-.162l1.086-1.088,3.187,3.188-1.085,1.086a1.127,1.127,0,0,0-.162,1.39,13.485,13.485,0,0,1,1.645,3.965,1.127,1.127,0,0,0,1.1.868h1.534v4.508H52.437a1.127,1.127,0,0,0-1.1.868A13.485,13.485,0,0,1,49.7,26.125a1.127,1.127,0,0,0,.162,1.39L50.943,28.6,47.756,31.79,46.669,30.7a1.127,1.127,0,0,0-1.39-.162,13.561,13.561,0,0,1-2.549,1.225,13.167,13.167,0,0,0-.779-1.561l.934-.934a11.27,11.27,0,1,0-15.651-7.62,1.118,1.118,0,0,0-.312.764v1.563c-.385.1-.752.242-1.127.373a13.4,13.4,0,0,1-.753-2.2,1.127,1.127,0,0,0-1.094-.867H22.414Zm17.3,28.107.944.946-1.594,1.594-.946-.946a1.127,1.127,0,0,0-1.436-.132,11.148,11.148,0,0,1-4.335,1.792,1.127,1.127,0,0,0-.923,1.109V50.59H29.176V49.249a1.127,1.127,0,0,0-.923-1.109,11.148,11.148,0,0,1-4.335-1.792,1.127,1.127,0,0,0-1.436.132l-.946.946-1.594-1.594.944-.946a1.127,1.127,0,0,0,.132-1.436,11.149,11.149,0,0,1-1.791-4.335,1.127,1.127,0,0,0-1.109-.923H16.779V35.939H18.12a1.127,1.127,0,0,0,1.109-.923,11.149,11.149,0,0,1,1.791-4.335,1.127,1.127,0,0,0-.132-1.436l-.944-.946,1.594-1.594.947.946a1.127,1.127,0,0,0,1.436.131,11.109,11.109,0,0,1,4.333-1.791,1.127,1.127,0,0,0,.923-1.109V23.541H31.43v1.341a1.127,1.127,0,0,0,.923,1.109,11.109,11.109,0,0,1,4.334,1.791,1.127,1.127,0,0,0,1.436-.131l.947-.946L40.663,28.3l-.944.946a1.127,1.127,0,0,0-.132,1.436,11.149,11.149,0,0,1,1.791,4.335,1.127,1.127,0,0,0,1.109.923h1.341v2.254H42.487a1.127,1.127,0,0,0-1.109.923,11.149,11.149,0,0,1-1.791,4.335A1.127,1.127,0,0,0,39.719,44.886ZM29.176,19.033a9.016,9.016,0,1,1,13.312,7.9l-2.622-2.622a1.127,1.127,0,0,0-1.594,0l-1.1,1.1a13.3,13.3,0,0,0-3.486-1.441V22.414a1.127,1.127,0,0,0-1.127-1.127h-3.1A8.993,8.993,0,0,1,29.176,19.033ZM23.09,23.541a15.571,15.571,0,0,0,.644,1.731c-.1.053-.2.089-.292.145l-1.1-1.1a1.127,1.127,0,0,0-1.594,0L17.559,27.5a1.127,1.127,0,0,0,0,1.594l1.1,1.1a13.3,13.3,0,0,0-1.446,3.487H15.652a1.127,1.127,0,0,0-1.127,1.127V39.32a1.127,1.127,0,0,0,1.127,1.127h1.563a13.3,13.3,0,0,0,1.44,3.486l-1.1,1.1a1.127,1.127,0,0,0,0,1.594l3.187,3.187a1.16,1.16,0,0,0,1.594,0l1.1-1.1a13.337,13.337,0,0,0,3.486,1.44v1.563a1.127,1.127,0,0,0,1.127,1.127h4.508a1.127,1.127,0,0,0,1.127-1.127V50.154a13.337,13.337,0,0,0,3.486-1.44l1.1,1.1a1.127,1.127,0,0,0,1.594,0l3.187-3.187a1.127,1.127,0,0,0,0-1.594l-1.1-1.1a13.3,13.3,0,0,0,1.44-3.486h1.563a1.127,1.127,0,0,0,1.127-1.127V34.811a1.127,1.127,0,0,0-1.127-1.127h-.947a15.627,15.627,0,0,0,1.678-.782l1.272,1.272a1.127,1.127,0,0,0,1.594,0l4.782-4.782a1.127,1.127,0,0,0,0-1.594l-1.271-1.272A15.654,15.654,0,0,0,53.3,23.541h6.3V55.1H12.27V23.541ZM7.762,20.16a1.127,1.127,0,0,1,1.127-1.127H20.16v2.254H11.143a1.127,1.127,0,0,0-1.127,1.127V56.225a1.127,1.127,0,0,0,1.127,1.127h49.59a1.127,1.127,0,0,0,1.127-1.127V22.414a1.127,1.127,0,0,0-1.127-1.127H56.225V19.033h6.762a1.127,1.127,0,0,1,1.127,1.127V59.607H7.762ZM30.3,61.861h11.27v1.127a1.127,1.127,0,0,1-1.127,1.127H31.43A1.127,1.127,0,0,1,30.3,62.988Zm38.32,3.381a3.381,3.381,0,0,1-3.381,3.381H6.635a3.381,3.381,0,0,1-3.381-3.381V62.988a1.127,1.127,0,0,1,1.127-1.127H28.049v1.127a3.381,3.381,0,0,0,3.381,3.381h9.016a3.381,3.381,0,0,0,3.381-3.381V61.861H67.5a1.127,1.127,0,0,1,1.127,1.127Z" transform="translate(-1 -1)" fill="#fff"/><path d="M28.016,25a9.016,9.016,0,1,0,9.016,9.016A9.016,9.016,0,0,0,28.016,25Zm5.635,5.286a6.73,6.73,0,0,1,.733,1.476h-.733Zm-1.014-1.2a13.412,13.412,0,0,1-3.814-1.6,1.127,1.127,0,0,0-1.39.162l-1.086,1.088-.951-.95a6.737,6.737,0,0,1,7.241,1.3ZM28.016,40.779a6.752,6.752,0,0,1-4.56-11.742l2.09,2.088a1.127,1.127,0,0,0,1.594,0l1.272-1.272a15.628,15.628,0,0,0,2.986,1.24v1.8a1.127,1.127,0,0,0,1.127,1.127h2.254a6.769,6.769,0,0,1-6.762,6.762Z" transform="translate(1.287 2.049)" fill="#fff"/></svg>