<svg id="Layer_5" enable-background="new 0 0 64 64" height="512" viewBox="0 0 64 64" width="512" xmlns="http://www.w3.org/2000/svg"><g><path d="m51 11v2.145c-1.155.366-2 1.435-2 2.709 0 1.087.604 2.065 1.578 2.553l1.95.975c.291.145.472.438.472.764 0 .47-.383.854-.854.854h-.292c-.471 0-.854-.384-.854-.854v-1.146h-2v1.146c0 1.275.845 2.344 2 2.709v2.145h2v-2.145c1.155-.366 2-1.435 2-2.709 0-1.087-.604-2.065-1.578-2.553l-1.95-.975c-.291-.145-.472-.438-.472-.764 0-.47.383-.854.854-.854h.292c.471 0 .854.384.854.854v.146h2v-.146c0-1.275-.845-2.344-2-2.709v-2.145z"/><path d="m57.8 55.601c-1.426-1.07-3.071-1.829-4.8-2.242v-24.41c5.598-.507 10-5.221 10-10.949s-4.402-10.442-10-10.949v-6.051h-48v52.101c-2.279.465-4 2.485-4 4.899 0 2.757 2.243 5 5 5h44c2.795 0 5.565-.924 7.8-2.6.475-.356.81-.852 1.006-1.4h4.194v-2h-4.194c-.196-.549-.531-1.044-1.006-1.399zm3.2-37.601c0 4.963-4.038 9-9 9s-9-4.037-9-9 4.038-9 9-9 9 4.037 9 9zm-10-15v4.051c-5.598.507-10 5.221-10 10.949s4.402 10.442 10 10.949v24.092c-.332-.026-.666-.041-1-.041h-11.556c.344-.591.556-1.268.556-2 0-2.206-1.794-4-4-4h-16c-2.206 0-4 1.794-4 4v2h-8v-50zm-16 50c-1.103 0-2-.897-2-2h-2c0 .732.212 1.409.556 2h-14.556v-2c0-1.103.897-2 2-2h16c1.103 0 2 .897 2 2s-.897 2-2 2zm12 2v6h-28v-6zm-44 3c0-1.654 1.346-3 3-3h11v6h-11c-1.654 0-3-1.346-3-3zm53.6.8c-1.891 1.419-4.235 2.2-6.6 2.2h-1v-6h1c2.365 0 4.709.781 6.601 2.201.25.187.399.486.399.799s-.149.612-.4.8z"/><path d="m35 5h-26v14h26zm-2 12h-22v-10h22z"/><path d="m33 29h-24v16h24zm-2 4h-6v-2h6zm-14 2v8h-2v-8zm2 0h4v8h-4zm0-2v-2h4v2zm6 2h2v8h-2zm-8-4v2h-6v-2zm-6 4h2v8h-2zm18 8v-8h2v8z"/><path d="m9 21h2v2h-2z"/><path d="m13 21h22v2h-22z"/><path d="m9 25h26v2h-26z"/><path d="m35 31h14v2h-14z"/><path d="m35 35h14v2h-14z"/><path d="m35 39h2v2h-2z"/><path d="m39 39h10v2h-10z"/><path d="m35 43h14v2h-14z"/></g></svg>