<svg xmlns="http://www.w3.org/2000/svg" width="62.001" height="61" viewBox="0 0 62.001 61"><g transform="translate(-0.999 -1)"><path d="M30,37.818a1,1,0,0,0,1-1V33.182a1,1,0,0,0-1-1H28.733a9.1,9.1,0,0,0-.566-1.363l.9-.9a1,1,0,0,0,0-1.414l-2.571-2.571a1,1,0,0,0-1.414,0l-.9.9a9.174,9.174,0,0,0-1.363-.566V25a1,1,0,0,0-1-1H18.182a1,1,0,0,0-1,1v1.267a9.1,9.1,0,0,0-1.363.566l-.9-.9a1,1,0,0,0-1.414,0l-2.571,2.571a1,1,0,0,0,0,1.414l.9.9a9.175,9.175,0,0,0-.566,1.363H10a1,1,0,0,0-1,1v3.637a1,1,0,0,0,1,1h1.267a9.1,9.1,0,0,0,.566,1.363l-.9.9a1,1,0,0,0,0,1.414l2.571,2.571a1,1,0,0,0,1.414,0l.9-.9a9.174,9.174,0,0,0,1.363.566V45a1,1,0,0,0,1,1h3.637a1,1,0,0,0,1-1V43.733a9.1,9.1,0,0,0,1.363-.566l.9.9a1,1,0,0,0,1.414,0l2.571-2.571a1,1,0,0,0,0-1.414l-.9-.9a9.174,9.174,0,0,0,.566-1.363Zm-3.158-.648a7.269,7.269,0,0,1-.469,1.127,1.908,1.908,0,0,0,.323,2.242l.246.246-1.157,1.157-.246-.246a1.909,1.909,0,0,0-2.242-.323,7.257,7.257,0,0,1-1.124.468,1.906,1.906,0,0,0-1.354,1.812V44H19.182v-.348a1.905,1.905,0,0,0-1.352-1.811,7.27,7.27,0,0,1-1.127-.469,1.909,1.909,0,0,0-2.242.323l-.246.246-1.157-1.157.246-.246a1.908,1.908,0,0,0,.323-2.242,7.257,7.257,0,0,1-.468-1.124,1.906,1.906,0,0,0-1.812-1.354H11V34.182h.348a1.905,1.905,0,0,0,1.811-1.352,7.27,7.27,0,0,1,.469-1.127,1.908,1.908,0,0,0-.323-2.242l-.246-.246,1.157-1.157.246.246a1.909,1.909,0,0,0,2.242.323,7.257,7.257,0,0,1,1.124-.468,1.906,1.906,0,0,0,1.354-1.812V26h1.637v.348a1.905,1.905,0,0,0,1.352,1.811,7.27,7.27,0,0,1,1.127.469,1.909,1.909,0,0,0,2.242-.323l.246-.246,1.157,1.157-.246.246a1.908,1.908,0,0,0-.323,2.242,7.257,7.257,0,0,1,.468,1.124,1.906,1.906,0,0,0,1.812,1.354H29v1.637h-.348a1.905,1.905,0,0,0-1.811,1.352Z" fill="#fff"/><path d="M20,29.5A5.5,5.5,0,1,0,25.5,35,5.5,5.5,0,0,0,20,29.5Zm0,9A3.5,3.5,0,1,1,23.5,35,3.5,3.5,0,0,1,20,38.5Z" fill="#fff"/><path d="M29,55H3V15H29v3h2V13a5.006,5.006,0,0,0-5-5H5.777A4.9,4.9,0,0,0,1,13V57a4.9,4.9,0,0,0,4.777,5H26a5.006,5.006,0,0,0,5-5V50H29ZM5.777,10H26a3,3,0,0,1,3,3H3a2.9,2.9,0,0,1,2.777-3ZM26,60H5.777A2.9,2.9,0,0,1,3,57H29a3,3,0,0,1-3,3Z" fill="#fff"/><path d="M41.555,20.168l-6-4A1,1,0,0,0,34,17v3H20A14.987,14.987,0,1,0,34.378,30.714l-1.916.572A13,13,0,1,1,20,22H34v3a1,1,0,0,0,1.555.832l6-4a1,1,0,0,0,0-1.664ZM36,23.132V18.868L39.2,21Z" fill="#fff"/><path d="M62,1H44a1,1,0,0,0-1,1V37a1,1,0,0,0,1,1H62a1,1,0,0,0,1-1V2a1,1,0,0,0-1-1ZM61,36H45V3H61Z" fill="#fff"/><path d="M47,6h2V8H47Z" fill="#fff"/><path d="M51,6h8V8H51Z" fill="#fff"/><path d="M47,11h2v2H47Z" fill="#fff"/><path d="M51,11h8v2H51Z" fill="#fff"/><path d="M47,16h2v2H47Z" fill="#fff"/><path d="M51,16h8v2H51Z" fill="#fff"/><path d="M47,21h2v2H47Z" fill="#fff"/><path d="M51,21h8v2H51Z" fill="#fff"/><path d="M47,26h2v2H47Z" fill="#fff"/><path d="M51,26h8v2H51Z" fill="#fff"/><path d="M47,31h2v2H47Z" fill="#fff"/><path d="M51,31h8v2H51Z" fill="#fff"/></g></svg>