<?xml version="1.0"?>
<svg xmlns="http://www.w3.org/2000/svg" xmlns:xlink="http://www.w3.org/1999/xlink" xmlns:svgjs="http://svgjs.com/svgjs" version="1.1" width="512" height="512" x="0" y="0" viewBox="0 0 64 64" style="enable-background:new 0 0 512 512" xml:space="preserve" class=""><g><g xmlns="http://www.w3.org/2000/svg"><path d="m47 44.056v-5.259l-10.519 9.203 10.484 9.174.083-5.174h1.381c1.896 0 3.641.95 4.668 2.542l1.513 2.344.335-2.894c.282-2.541-.534-5.09-2.239-6.995-1.481-1.654-3.52-2.696-5.706-2.941zm1.429 5.944h-3.35l-.045 2.826-5.515-4.826 5.481-4.796v2.796h1c1.988 0 3.89.85 5.215 2.331.789.881 1.333 1.939 1.599 3.066-1.26-.897-2.783-1.397-4.385-1.397z" fill="#414042" data-original="#000000" class=""/><path d="m60 1h-44c-1.654 0-3 1.346-3 3v25h-9c-1.654 0-3 1.346-3 3v20c0 1.654 1.346 3 3 3h6.465l3.316 4.974c.428.643 1.144 1.026 1.916 1.026 1.27 0 2.303-1.033 2.303-2.303v-3.697h9c1.654 0 3-1.346 3-3v-13h5.028c-1.892 2.51-3.028 5.621-3.028 9 0 8.271 6.729 15 15 15s15-6.729 15-15c0-3.379-1.136-6.49-3.028-9h1.028c1.654 0 3-1.346 3-3v-32c0-1.654-1.346-3-3-3zm-13 32c-3.923 0-7.488 1.526-10.164 4h-20.133l18.318-15.702c.927.447 1.945.702 2.979.702s2.052-.255 2.979-.702l18.318 15.702h-2.134c-2.675-2.474-6.24-4-10.163-4zm-13.723-12.84-18.277 15.666v-29.789zm9.446 0 18.277-14.123v29.789zm-26.723-17.16h44c.402 0 .744.241.903.584l-19.931 15.402c-1.693 1.308-4.25 1.308-5.943 0l-19.932-15.402c.159-.343.501-.584.903-.584zm12 49c0 .551-.448 1-1 1h-11v5.697c0 .268-.405.391-.555.168l-3.91-5.865h-7.535c-.552 0-1-.449-1-1v-20c0-.551.448-1 1-1h9v2h-4v2h4v1c0 .352.072.686.184 1h-8.184v2h23zm19 9c-7.168 0-13-5.832-13-13s5.832-13 13-13 13 5.832 13 13-5.832 13-13 13z" fill="#414042" data-original="#000000" class=""/><path d="m24 49h2v2h-2z" fill="#414042" data-original="#000000" class=""/><path d="m5 49h17v2h-17z" fill="#414042" data-original="#000000" class=""/><path d="m5 41h21v2h-21z" fill="#414042" data-original="#000000" class=""/><path d="m5 33h2v2h-2z" fill="#414042" data-original="#000000" class=""/><path d="m1 5h10v2h-10z" fill="#414042" data-original="#000000" class=""/><path d="m5 9h6v2h-6z" fill="#414042" data-original="#000000" class=""/><path d="m1 13h10v2h-10z" fill="#414042" data-original="#000000" class=""/><path d="m5 17h6v2h-6z" fill="#414042" data-original="#000000" class=""/><path d="m5 45h21v2h-21z" fill="#414042" data-original="#000000" class=""/></g></g></svg>
