<?xml version="1.0"?>
<svg xmlns="http://www.w3.org/2000/svg" xmlns:xlink="http://www.w3.org/1999/xlink" xmlns:svgjs="http://svgjs.com/svgjs" version="1.1" width="512" height="512" x="0" y="0" viewBox="0 0 64 64" style="enable-background:new 0 0 512 512" xml:space="preserve" class=""><g><path xmlns="http://www.w3.org/2000/svg" d="m2 21h16c.553 0 1-.447 1-1v-18c0-.553-.447-1-1-1h-16c-.553 0-1 .447-1 1v18c0 .553.447 1 1 1zm12-2h-2.132l.964-1.445c.171-.257.214-.578.116-.871l-1.548-4.643c1.464.198 2.6 1.442 2.6 2.959zm-4-4.838.896 2.69-.896 1.345-.896-1.345zm0-4.162c-1.103 0-2-.897-2-2s.897-2 2-2 2 .897 2 2-.897 2-2 2zm-1.401 2.04-1.548 4.643c-.098.293-.055.614.116.871l.965 1.446h-2.132v-4c0-1.517 1.136-2.761 2.599-2.96zm-5.599-9.04h14v16h-1v-4c0-2-1.188-3.717-2.889-4.516.548-.685.889-1.541.889-2.484 0-2.206-1.794-4-4-4s-4 1.794-4 4c0 .943.341 1.799.889 2.484-1.701.799-2.889 2.516-2.889 4.516v4h-1z" fill="#0c3761" data-original="#000000"/><path xmlns="http://www.w3.org/2000/svg" d="m2 42h16c.553 0 1-.447 1-1v-18c0-.553-.447-1-1-1h-16c-.553 0-1 .447-1 1v18c0 .553.447 1 1 1zm12-2h-2.132l.964-1.445c.171-.257.214-.578.116-.871l-1.548-4.643c1.464.198 2.6 1.442 2.6 2.959zm-4-4.838.896 2.69-.896 1.345-.896-1.345zm0-4.162c-1.103 0-2-.897-2-2s.897-2 2-2 2 .897 2 2-.897 2-2 2zm-1.401 2.04-1.548 4.643c-.098.293-.055.614.116.871l.965 1.446h-2.132v-4c0-1.517 1.136-2.761 2.599-2.96zm-5.599-9.04h14v16h-1v-4c0-2-1.188-3.717-2.889-4.516.548-.685.889-1.541.889-2.484 0-2.206-1.794-4-4-4s-4 1.794-4 4c0 .943.341 1.799.889 2.484-1.701.799-2.889 2.516-2.889 4.516v4h-1z" fill="#0c3761" data-original="#000000"/><path xmlns="http://www.w3.org/2000/svg" d="m2 63h16c.553 0 1-.447 1-1v-18c0-.553-.447-1-1-1h-16c-.553 0-1 .447-1 1v18c0 .553.447 1 1 1zm12-2h-2.132l.964-1.445c.171-.257.214-.578.116-.871l-1.548-4.643c1.464.198 2.6 1.442 2.6 2.959zm-4-4.838.896 2.69-.896 1.345-.896-1.345zm0-4.162c-1.103 0-2-.897-2-2s.897-2 2-2 2 .897 2 2-.897 2-2 2zm-1.401 2.04-1.548 4.643c-.098.293-.055.614.116.871l.965 1.446h-2.132v-4c0-1.517 1.136-2.761 2.599-2.96zm-5.599-9.04h14v16h-1v-4c0-2-1.188-3.717-2.889-4.516.548-.685.889-1.541.889-2.484 0-2.206-1.794-4-4-4s-4 1.794-4 4c0 .943.341 1.799.889 2.484-1.701.799-2.889 2.516-2.889 4.516v4h-1z" fill="#0c3761" data-original="#000000"/><path xmlns="http://www.w3.org/2000/svg" d="m53 1c-5.514 0-10 4.486-10 10s4.486 10 10 10 10-4.486 10-10-4.486-10-10-10zm0 18c-4.411 0-8-3.589-8-8s3.589-8 8-8 8 3.589 8 8-3.589 8-8 8z" fill="#0c3761" data-original="#000000"/><path xmlns="http://www.w3.org/2000/svg" d="m51.443 13.029-2.236-2.236-1.414 1.414 3 3c.187.188.442.293.707.293.013 0 .025 0 .038-.001.278-.011.54-.137.721-.349l6-7-1.518-1.3z" fill="#0c3761" data-original="#000000"/><path xmlns="http://www.w3.org/2000/svg" d="m53 22c-5.514 0-10 4.486-10 10s4.486 10 10 10 10-4.486 10-10-4.486-10-10-10zm0 18c-4.411 0-8-3.589-8-8s3.589-8 8-8 8 3.589 8 8-3.589 8-8 8z" fill="#0c3761" data-original="#000000"/><path xmlns="http://www.w3.org/2000/svg" d="m51.443 34.029-2.236-2.236-1.414 1.414 3 3c.187.188.442.293.707.293.013 0 .025 0 .038-.001.278-.011.54-.137.721-.349l6-7-1.518-1.301z" fill="#0c3761" data-original="#000000"/><path xmlns="http://www.w3.org/2000/svg" d="m53 43c-5.514 0-10 4.486-10 10s4.486 10 10 10 10-4.486 10-10-4.486-10-10-10zm0 18c-4.411 0-8-3.589-8-8s3.589-8 8-8 8 3.589 8 8-3.589 8-8 8z" fill="#0c3761" data-original="#000000"/><path xmlns="http://www.w3.org/2000/svg" d="m56.182 48.904-3.182 3.182-3.182-3.182-1.414 1.414 3.182 3.182-3.182 3.182 1.414 1.414 3.182-3.182 3.182 3.182 1.414-1.414-3.182-3.182 3.182-3.182z" fill="#0c3761" data-original="#000000"/><path xmlns="http://www.w3.org/2000/svg" d="m34.507 14.87c.153.087.323.13.493.13.178 0 .356-.048.515-.143l5-3c.3-.18.485-.505.485-.857s-.185-.677-.485-.857l-5-3c-.309-.185-.693-.19-1.008-.013-.314.178-.507.51-.507.87v2h-13v2h13v2c0 .36.193.692.507.87zm1.493-5.103 2.057 1.233-2.057 1.233z" fill="#0c3761" data-original="#000000"/><path xmlns="http://www.w3.org/2000/svg" d="m21 33h13v2c0 .36.193.692.507.87.153.087.323.13.493.13.178 0 .356-.048.515-.143l5-3c.3-.18.485-.505.485-.857s-.185-.677-.485-.857l-5-3c-.309-.186-.693-.19-1.008-.013-.314.178-.507.51-.507.87v2h-13zm15-2.233 2.057 1.233-2.057 1.233z" fill="#0c3761" data-original="#000000"/><path xmlns="http://www.w3.org/2000/svg" d="m21 54h13v2c0 .36.193.692.507.87.153.087.323.13.493.13.178 0 .356-.048.515-.143l5-3c.3-.18.485-.505.485-.857s-.185-.677-.485-.857l-5-3c-.309-.186-.693-.19-1.008-.013-.314.178-.507.51-.507.87v2h-13zm15-2.233 2.057 1.233-2.057 1.233z" fill="#0c3761" data-original="#000000"/></g></svg>
