<?xml version="1.0"?>
<svg xmlns="http://www.w3.org/2000/svg" xmlns:xlink="http://www.w3.org/1999/xlink" xmlns:svgjs="http://svgjs.com/svgjs" version="1.1" width="512" height="512" x="0" y="0" viewBox="0 0 512.035 512.035" style="enable-background:new 0 0 512 512" xml:space="preserve" class=""><g><g xmlns="http://www.w3.org/2000/svg"><path d="m509.976 442.82c1.313-1.39 2.053-3.281 2.041-5.188v-70.612c0-4.143-3.358-7.5-7.5-7.5s-7.5 3.357-7.5 7.5v63.156h-59.287c-4.142 0-7.5 3.357-7.5 7.5v59.357h-184.992v-338.363h251.78v168.39c.276 9.854 14.685 9.961 15 0v-175.889c0-4.143-3.358-7.5-7.5-7.5h-222.72v-136.136c0-4.143-3.358-7.5-7.5-7.5h-199.918c-1.578-.016-4.104.921-5.382 2.199l-66.787 66.857c-1.404 1.406-2.205 3.364-2.194 5.345v88.527c0 4.143 3.358 7.5 7.5 7.5s7.5-3.357 7.5-7.5v-81.071h59.287c4.142 0 7.5-3.357 7.5-7.5v-59.357h184.993v128.635h-29.06c-4.142 0-7.5 3.357-7.5 7.5v202.229h-215.22v-145.114c-.279-9.863-14.687-9.954-15 0v152.614c0 4.143 3.358 7.5 7.5 7.5h222.72v136.136c0 4.143 3.358 7.5 7.5 7.5h199.993c1.973 0 3.904-.797 5.306-2.199l66.787-66.857c.052-.053.103-.105.153-.159zm-484.365-375.928 17.306-17.324 23.888-23.913v41.237zm460.813 378.285-17.306 17.324-23.888 23.913v-41.237z" fill="#ffffff" data-original="#000000" class=""/><path d="m126.336 62.783h101.778c9.916-.307 9.909-14.696 0-15h-101.778c-9.917.307-9.909 14.696 0 15z" fill="#ffffff" data-original="#000000" class=""/><path d="m126.336 104.336h101.778c9.916-.307 9.909-14.696 0-15h-101.778c-9.917.307-9.909 14.697 0 15z" fill="#ffffff" data-original="#000000" class=""/><path d="m104.571 158.542c-20.563 34.69 5.68 80.549 46.031 80.039 40.346.506 66.597-45.347 46.028-80.039-19.801-35.309-72.261-35.31-92.059 0zm7.888 26.675c0-4.196.685-8.352 2.008-12.293 9.544 5.537 19.089 11.075 28.633 16.612v33.3c-17.452-3.513-30.641-19.046-30.641-37.619zm45.642 37.619v-33.3c9.544-5.538 19.089-11.075 28.633-16.612 7.653 21.425-6.825 46.004-28.633 49.912zm-7.5-75.984c11.049 0 21.493 4.87 28.664 13.063-9.555 5.544-19.109 11.087-28.664 16.631-9.555-5.544-19.109-11.087-28.664-16.631 7.171-8.193 17.614-13.063 28.664-13.063z" fill="#ffffff" data-original="#000000" class=""/><path d="m48.859 278.01h147.159c9.916-.307 9.909-14.696 0-15h-147.159c-9.917.307-9.909 14.696 0 15z" fill="#ffffff" data-original="#000000" class=""/><path d="m48.859 320.456h147.159c9.916-.307 9.909-14.696 0-15h-147.159c-9.917.307-9.909 14.697 0 15z" fill="#ffffff" data-original="#000000" class=""/><path d="m48.859 193.117h25.445c9.916-.307 9.909-14.696 0-15h-25.445c-9.917.307-9.909 14.696 0 15z" fill="#ffffff" data-original="#000000" class=""/><path d="m48.859 235.563h32.159c9.916-.307 9.909-14.696 0-15h-32.159c-9.917.307-9.909 14.696 0 15z" fill="#ffffff" data-original="#000000" class=""/><path d="m48.859 150.67h32.159c9.916-.307 9.909-14.696 0-15h-32.159c-9.917.307-9.909 14.697 0 15z" fill="#ffffff" data-original="#000000" class=""/><path d="m458.563 378.868c9.916-.307 9.909-14.696 0-15h-11.354v-26.858c0-4.143-3.358-7.5-7.5-7.5h-39.459v-50.537c0-4.143-3.358-7.5-7.5-7.5h-46.958c-4.142 0-7.5 3.357-7.5 7.5v26.483h-39.458c-4.142 0-7.5 3.357-7.5 7.5v50.911h-11.354c-9.916.307-9.909 14.696 0 15h178.583zm-152.23-58.412h31.958v43.411h-31.958zm46.959-33.983h31.958v77.395h-31.958zm46.958 77.395v-19.358h31.958v19.357h-31.958z" fill="#ffffff" data-original="#000000" class=""/><path d="m458.586 191.182h-179.289c-9.916.307-9.909 14.696 0 15h179.289c9.916-.307 9.909-14.696 0-15z" fill="#ffffff" data-original="#000000" class=""/><path d="m458.586 233.342h-179.289c-9.916.307-9.909 14.696 0 15h179.289c9.916-.307 9.909-14.696 0-15z" fill="#ffffff" data-original="#000000" class=""/><path d="m392.905 406.239h-113.608c-9.916.307-9.909 14.696 0 15h113.607c9.917-.307 9.91-14.697.001-15z" fill="#ffffff" data-original="#000000" class=""/><path d="m392.905 445.671h-113.608c-9.916.307-9.909 14.696 0 15h113.607c9.917-.307 9.91-14.696.001-15z" fill="#ffffff" data-original="#000000" class=""/><path d="m182.022 458.647c-2.712-3.132-7.448-3.471-10.58-.759-3.131 2.711-3.471 7.447-.759 10.579l6.029 6.962c-35.007-6.127-61.697-36.744-61.697-73.479 0-4.143-3.358-7.5-7.5-7.5s-7.5 3.357-7.5 7.5c0 45.571 34.199 83.304 78.28 88.884l-7.612 8.79c-2.712 3.132-2.372 7.868.76 10.58 3.631 2.671 7.157 2.418 10.579-.76l17.744-20.489c2.441-2.818 2.441-7.002 0-9.82z" fill="#ffffff" data-original="#000000" class=""/><path d="m328.591 53.422c3.422 3.178 6.949 3.431 10.58.759 3.131-2.711 3.471-7.448.759-10.579l-6.03-6.962c35.007 6.127 61.697 36.744 61.697 73.478 0 4.143 3.358 7.5 7.5 7.5s7.5-3.357 7.5-7.5c0-45.571-34.199-83.304-78.28-88.884l7.612-8.79c6.259-7.698-4.622-17.111-11.339-9.82l-17.744 20.489c-2.441 2.818-2.441 7.002 0 9.82z" fill="#ffffff" data-original="#000000" class=""/></g></g></svg>
