<svg height="512" viewBox="0 0 512 512" width="512" xmlns="http://www.w3.org/2000/svg" fill="#0c3761"><g id="Outline"><path d="m234.681 367.233-13.18-4.687-2.843-6.863 6.005-12.634a8 8 0 0 0 -1.568-9.092l-13.052-13.057a8 8 0 0 0 -9.092-1.568l-12.634 6-6.863-2.843-4.687-13.18a8 8 0 0 0 -7.538-5.309h-18.458a8 8 0 0 0 -7.538 5.319l-4.687 13.18-6.863 2.843-12.634-6a8 8 0 0 0 -9.092 1.568l-13.052 13.047a8 8 0 0 0 -1.568 9.092l6 12.634-2.837 6.863-13.18 4.687a8 8 0 0 0 -5.32 7.538v18.458a8 8 0 0 0 5.319 7.538l13.18 4.687 2.843 6.863-6 12.634a8 8 0 0 0 1.568 9.092l13.047 13.057a8 8 0 0 0 9.092 1.568l12.634-6 6.863 2.843 4.687 13.18a8 8 0 0 0 7.538 5.309h18.458a8 8 0 0 0 7.538-5.319l4.687-13.18 6.863-2.843 12.634 6a8 8 0 0 0 9.092-1.568l13.057-13.047a8 8 0 0 0 1.568-9.092l-6.005-12.634 2.843-6.863 13.18-4.687a8 8 0 0 0 5.314-7.538v-18.458a8 8 0 0 0 -5.319-7.538zm-10.681 20.351-11.21 3.985a8 8 0 0 0 -4.71 4.476l-5.565 13.435a8 8 0 0 0 .166 6.5l5.107 10.745-5.067 5.067-10.745-5.107a8 8 0 0 0 -6.5-.166l-13.435 5.565a8 8 0 0 0 -4.476 4.71l-3.981 11.206h-7.168l-3.985-11.21a8 8 0 0 0 -4.476-4.71l-13.435-5.565a7.992 7.992 0 0 0 -6.5.166l-10.745 5.107-5.067-5.067 5.107-10.745a8 8 0 0 0 .166-6.5l-5.565-13.435a8 8 0 0 0 -4.71-4.476l-11.206-3.981v-7.168l11.21-3.985a8 8 0 0 0 4.71-4.476l5.565-13.435a8 8 0 0 0 -.166-6.5l-5.107-10.745 5.067-5.067 10.745 5.107a8 8 0 0 0 6.5.166l13.435-5.565a8 8 0 0 0 4.476-4.71l3.981-11.206h7.168l3.985 11.21a8 8 0 0 0 4.476 4.71l13.435 5.565a8 8 0 0 0 6.5-.166l10.745-5.107 5.067 5.067-5.107 10.745a8 8 0 0 0 -.166 6.5l5.565 13.435a8 8 0 0 0 4.71 4.476l11.206 3.981z"/><path d="m160 349.474a34.526 34.526 0 1 0 34.526 34.526 34.565 34.565 0 0 0 -34.526-34.526zm0 53.052a18.526 18.526 0 1 1 18.526-18.526 18.546 18.546 0 0 1 -18.526 18.526z"/><path d="m240 272h-160a32.036 32.036 0 0 0 -32 32v160a32.036 32.036 0 0 0 32 32h160a32.036 32.036 0 0 0 32-32v-160a32.036 32.036 0 0 0 -32-32zm16 192a16.019 16.019 0 0 1 -16 16h-160a16.019 16.019 0 0 1 -16-16v-160a16.019 16.019 0 0 1 16-16h160a16.019 16.019 0 0 1 16 16z"/><path d="m416 424v-384a8 8 0 0 0 -8-8h-224a8 8 0 0 0 -5.657 2.343l-48 48a8 8 0 0 0 -2.343 5.657v168h16v-160h40a8 8 0 0 0 8-8v-40h208v368h-112v16h120a8 8 0 0 0 8-8zm-260.687-344 20.687-20.687v20.687z"/><path d="m282.343 149.657a8 8 0 0 0 11.314 0l72-72-11.314-11.314-66.343 66.344-42.343-42.344a8 8 0 0 0 -11.314 0l-64 64 11.314 11.314 58.343-58.344z"/><path d="m168 224h208v-16h-16v-88h-16v88h-16v-56h-16v56h-16v-40h-16v40h-16v-56h-16v56h-16v-64h-16v64h-16v-32h-16v32h-16z"/><path d="m304 248h16v16h-16z"/><path d="m336 248h40v16h-40z"/><path d="m288 280h88v16h-88z"/><path d="m288 312h88v16h-88z"/><path d="m288 344h88v16h-88z"/><path d="m288 376h72v16h-72z"/><path d="m432 448h-144v16h152a8 8 0 0 0 8-8v-384h-16z"/></g></svg>