<svg height="512" viewBox="0 0 64 64" width="512" xmlns="http://www.w3.org/2000/svg"><g id="Credit_Card-Ecommerce-Man-Debit_Card-Payment_Method" data-name="Credit Card-Ecommerce-Man-Debit Card-Payment Method"><path d="m28 21a1 1 0 0 0 -1-1h-8a1 1 0 0 0 -1 1 4.733 4.733 0 0 0 5 5 4.733 4.733 0 0 0 5-5zm-7.877 1h5.754a2.7 2.7 0 0 1 -2.877 2 2.7 2.7 0 0 1 -2.877-2z"/><path d="m19 16a1 1 0 0 1 1 1h2a3 3 0 0 0 -6 0h2a1 1 0 0 1 1-1z"/><path d="m27 16a1 1 0 0 1 1 1h2a3 3 0 0 0 -6 0h2a1 1 0 0 1 1-1z"/><path d="m58 9h-12a3.009 3.009 0 0 0 -3 3v12h-1a3.009 3.009 0 0 0 -3 3v3.17a2.956 2.956 0 0 0 .88 2.12l1.06 1.07-.88 6.64a15.057 15.057 0 0 0 -8.03-6.38l-2.67-.89-1.36-2.03v-2.05a10.023 10.023 0 0 0 5-8.65h.5a3.5 3.5 0 0 0 0-7h-.5v-7a1 1 0 0 0 -1-1h-3v-2a1 1 0 0 0 -1-1h-10a5 5 0 0 0 -5 5v6h-.5a3.5 3.5 0 0 0 0 7h.5a10.023 10.023 0 0 0 5 8.65v2.05l-1.27 1.91-3.31.94a13.068 13.068 0 0 0 -9.42 12.5v14.95a1 1 0 0 0 1 1h30a1 1 0 0 0 1-1v-6.94l1.15.38a9 9 0 0 0 11.85-8.54v-8.9h9a3.009 3.009 0 0 0 3-3v-22a3.009 3.009 0 0 0 -3-3zm-25 6h.5a1.5 1.5 0 0 1 0 3h-.5zm-20 3h-.5a1.5 1.5 0 0 1 0-3h.5zm28 9a1 1 0 0 1 1-1h2a1 1 0 0 1 0 2h-1v4h-.59l-1.12-1.12a.99.99 0 0 1 -.29-.71zm-12-19v-1h2v3.18a3 3 0 0 0 -1-.18h-1.53a3.918 3.918 0 0 0 .53-2zm-14-1a3.009 3.009 0 0 1 3-3h9v4c0 .49 0 2-3 2h-8a3 3 0 0 0 -1 .18zm0 13v-7a1 1 0 0 1 1-1h14a1 1 0 0 1 1 1v7a8 8 0 0 1 -16 0zm5 10.7v-1.16a10.013 10.013 0 0 0 6 0v1.16l-3 4.5zm1.59 5.98-2.84 1.71-.7-4.16.95-1.43zm5.41-3.88.95 1.43-.7 4.16-2.84-1.71zm20 13.1a7 7 0 0 1 -9.21 6.64l-1.79-.59v-8.95h-2v17h-22v-17h-2v17h-4v-13.95a11.064 11.064 0 0 1 7.97-10.58l2.16-.61.88 5.3a1 1 0 0 0 .99.84 1 1 0 0 0 .51-.14l4.49-2.69 4.49 2.69a1 1 0 0 0 .51.14 1 1 0 0 0 .99-.84l.86-5.16 1.54.52a13.07 13.07 0 0 1 8.18 8.12l-.56 4.23 1.98.26 1.89-14.13h.12a3.009 3.009 0 0 0 3 3h1zm12-11.9a1 1 0 0 1 -1 1h-12a1 1 0 0 1 -1-1v-4.18a2.988 2.988 0 0 0 0-5.64v-12.18a1 1 0 0 1 1-1h12a1 1 0 0 1 1 1z"/><path d="m56 13h-4a1 1 0 0 0 -1 1v6a1 1 0 0 0 1 1h4a1 1 0 0 0 1-1v-6a1 1 0 0 0 -1-1zm-1 6h-2v-4h2z"/><path d="m50 25a3 3 0 0 0 -3 3v2a3 3 0 0 0 6 0v-2a3 3 0 0 0 -3-3zm1 5a1 1 0 0 1 -2 0v-2a1 1 0 0 1 2 0z"/><path d="m55 31h2v2h-2z"/><path d="m55 27h2v2h-2z"/><path d="m55 23h2v2h-2z"/><path d="m47 13h2v2h-2z"/><path d="m47 17h2v2h-2z"/><path d="m47 21h2v2h-2z"/></g></svg>