<?xml version="1.0"?>
<svg xmlns="http://www.w3.org/2000/svg" xmlns:xlink="http://www.w3.org/1999/xlink" xmlns:svgjs="http://svgjs.com/svgjs" version="1.1" width="512" height="512" x="0" y="0" viewBox="0 0 480 480" style="enable-background:new 0 0 512 512" xml:space="preserve" class=""><g><path xmlns="http://www.w3.org/2000/svg" d="m256 304h-32c-4.417969 0-8 3.582031-8 8s3.582031 8 8 8h32c4.417969 0 8-3.582031 8-8s-3.582031-8-8-8zm0 0" fill="#0c3761" data-original="#000000" class=""/><path xmlns="http://www.w3.org/2000/svg" d="m424 56c0-13.253906-10.746094-24-24-24h-320c-13.253906 0-24 10.746094-24 24v40h368zm-16 24h-336v-24c0-4.417969 3.582031-8 8-8h320c4.417969 0 8 3.582031 8 8zm0 0" fill="#0c3761" data-original="#000000" class=""/><path xmlns="http://www.w3.org/2000/svg" d="m64 192h352c4.417969 0 8-3.582031 8-8v-64c0-4.417969-3.582031-8-8-8h-352c-4.417969 0-8 3.582031-8 8v64c0 4.417969 3.582031 8 8 8zm344-16h-176v-48h176zm-336-48h144v48h-144zm0 0" fill="#0c3761" data-original="#000000" class=""/><path xmlns="http://www.w3.org/2000/svg" d="m88 144h16v16h-16zm0 0" fill="#0c3761" data-original="#000000" class=""/><path xmlns="http://www.w3.org/2000/svg" d="m120 144h16v16h-16zm0 0" fill="#0c3761" data-original="#000000" class=""/><path xmlns="http://www.w3.org/2000/svg" d="m152 144h16v16h-16zm0 0" fill="#0c3761" data-original="#000000" class=""/><path xmlns="http://www.w3.org/2000/svg" d="m456 0h-432c-13.253906 0-24 10.746094-24 24v432c0 13.253906 10.746094 24 24 24h384c13.253906 0 24-10.746094 24-24v-16c0-4.417969-3.582031-8-8-8h-113.753906l-20-80h165.753906c13.253906 0 24-10.746094 24-24v-304c0-13.253906-10.746094-24-24-24zm-432 16h432c4.417969 0 8 3.582031 8 8v248h-40v-56c0-4.417969-3.582031-8-8-8h-192c-4.417969 0-8 3.582031-8 8v56h-56v-8c0-13.253906-10.746094-24-24-24h-112c-2.730469.027344-5.4375.523438-8 1.472656v-217.472656c0-4.417969 3.582031-8 8-8zm384 256h-176v-48h176zm-248 160v-80h29.753906l-20 80zm-144-168c0-4.417969 3.582031-8 8-8h112c4.417969 0 8 3.582031 8 8v152h-128zm8 200c-4.417969 0-8-3.582031-8-8v-24h128v24c0 4.417969-3.582031 8-8 8zm392-8c0 4.417969-3.582031 8-8 8h-249.472656c.949218-2.5625 1.445312-5.269531 1.472656-8v-8h256zm-122.246094-24h-107.507812l20-80h67.507812zm170.246094-104c0 4.417969-3.582031 8-8 8h-296v-48h304zm0 0" fill="#0c3761" data-original="#000000" class=""/></g></svg>
