<?xml version="1.0"?>
<svg xmlns="http://www.w3.org/2000/svg" xmlns:xlink="http://www.w3.org/1999/xlink" xmlns:svgjs="http://svgjs.com/svgjs" version="1.1" width="512" height="512" x="0" y="0" viewBox="0 0 64 64" style="enable-background:new 0 0 512 512" xml:space="preserve" class=""><g><path xmlns="http://www.w3.org/2000/svg" d="m14 57h2v2h-2z" fill="#414042" data-original="#000000" class=""/><path xmlns="http://www.w3.org/2000/svg" d="m14 49h2v6h-2z" fill="#414042" data-original="#000000" class=""/><path xmlns="http://www.w3.org/2000/svg" d="m10 21v26.857l-8.839 13.6a1 1 0 0 0 .839 1.543h26a1 1 0 0 0 .839-1.545l-2.246-3.455h6.407a1 1 0 0 0 .707-.293l8-8a1 1 0 0 0 .293-.707v-10h2a1 1 0 0 0 1-1v-8a1 1 0 0 0 -1-1h-2v-4h2a1 1 0 0 0 1-1v-8a1 1 0 0 0 -1-1h-8a1 1 0 0 0 -1 1v4h-24a1 1 0 0 0 -1 1zm-6.157 40 11.157-17.165 11.157 17.165zm30.157-6.414v-4.586h4.586zm9-17.586h-6v-6h6zm-6-20h6v6h-6zm-2 5v2a1 1 0 0 0 1 1h4v4h-4a1 1 0 0 0 -1 1v8a1 1 0 0 0 1 1h4v9h-7a1 1 0 0 0 -1 1v7h-6.707l-9.454-14.545a1.04 1.04 0 0 0 -1.678 0l-2.161 3.325v-22.78z" fill="#414042" data-original="#000000" class=""/><path xmlns="http://www.w3.org/2000/svg" d="m18 39h4a1 1 0 0 0 1-1v-4a1 1 0 0 0 -1-1h-4a1 1 0 0 0 -1 1v4a1 1 0 0 0 1 1zm1-4h2v2h-2z" fill="#414042" data-original="#000000" class=""/><path xmlns="http://www.w3.org/2000/svg" d="m28 39h4a1 1 0 0 0 1-1v-4a1 1 0 0 0 -1-1h-4a1 1 0 0 0 -1 1v4a1 1 0 0 0 1 1zm1-4h2v2h-2z" fill="#414042" data-original="#000000" class=""/><path xmlns="http://www.w3.org/2000/svg" d="m28 29h4a1 1 0 0 0 1-1v-4a1 1 0 0 0 -1-1h-4a1 1 0 0 0 -1 1v4a1 1 0 0 0 1 1zm1-4h2v2h-2z" fill="#414042" data-original="#000000" class=""/><path xmlns="http://www.w3.org/2000/svg" d="m20 31h4a1 1 0 0 0 1-1v-4a1 1 0 0 0 -1-1h-4a1 1 0 0 0 -1 1v4a1 1 0 0 0 1 1zm1-4h2v2h-2z" fill="#414042" data-original="#000000" class=""/><path xmlns="http://www.w3.org/2000/svg" d="m47 30a1 1 0 0 0 1 1h8a1 1 0 0 0 1-1v-8a1 1 0 0 0 -1-1h-8a1 1 0 0 0 -1 1zm2-7h6v6h-6z" fill="#414042" data-original="#000000" class=""/><path xmlns="http://www.w3.org/2000/svg" d="m48 19h8a1 1 0 0 0 1-1v-8a1 1 0 0 0 -1-1h-8a1 1 0 0 0 -1 1v8a1 1 0 0 0 1 1zm1-8h6v6h-6z" fill="#414042" data-original="#000000" class=""/><path xmlns="http://www.w3.org/2000/svg" d="m33 14a1 1 0 0 0 1-1v-6a1 1 0 0 0 -1-1h-6a1 1 0 0 0 -1 1v6a1 1 0 0 0 1 1zm-5-6h4v4h-4z" fill="#414042" data-original="#000000" class=""/><path xmlns="http://www.w3.org/2000/svg" d="m43 9a1 1 0 0 0 1-1v-6a1 1 0 0 0 -1-1h-6a1 1 0 0 0 -1 1v6a1 1 0 0 0 1 1zm-5-6h4v4h-4z" fill="#414042" data-original="#000000" class=""/><path xmlns="http://www.w3.org/2000/svg" d="m62 1h-4a1 1 0 0 0 -1 1v4a1 1 0 0 0 1 1h4a1 1 0 0 0 1-1v-4a1 1 0 0 0 -1-1zm-1 4h-2v-2h2z" fill="#414042" data-original="#000000" class=""/><path xmlns="http://www.w3.org/2000/svg" d="m36 45h2v2h-2z" fill="#414042" data-original="#000000" class=""/><path xmlns="http://www.w3.org/2000/svg" d="m22 45h13v2h-13z" fill="#414042" data-original="#000000" class=""/><path xmlns="http://www.w3.org/2000/svg" d="m36 42h2v2h-2z" fill="#414042" data-original="#000000" class=""/><path xmlns="http://www.w3.org/2000/svg" d="m22 42h13v2h-13z" fill="#414042" data-original="#000000" class=""/></g></svg>
