<?xml version="1.0"?>
<svg xmlns="http://www.w3.org/2000/svg" xmlns:xlink="http://www.w3.org/1999/xlink" xmlns:svgjs="http://svgjs.com/svgjs" version="1.1" width="512" height="512" x="0" y="0" viewBox="0 0 64 64" style="enable-background:new 0 0 512 512" xml:space="preserve" class=""><g><g xmlns="http://www.w3.org/2000/svg" id="Data-Folder-Management-Structure-Gear"><path d="M61,51H60V45a2.006,2.006,0,0,0-2-2H48a2.006,2.006,0,0,0-2,2v2H45a1,1,0,0,0-1,1V58a3.009,3.009,0,0,0,3,3H59a3.009,3.009,0,0,0,3-3V52A1,1,0,0,0,61,51ZM48,45H58v6H56.41l-3.7-3.71A1.033,1.033,0,0,0,52,47H48ZM60,58a1,1,0,0,1-1,1H47a1,1,0,0,1-1-1V49h5.59l3.7,3.71A1.033,1.033,0,0,0,56,53h4Z" fill="#0c3761" data-original="#000000" class=""/><path d="M61,31H60V25a2.006,2.006,0,0,0-2-2H48a2.006,2.006,0,0,0-2,2v2H45a1,1,0,0,0-1,1V38a3.009,3.009,0,0,0,3,3H59a3.009,3.009,0,0,0,3-3V32A1,1,0,0,0,61,31ZM48,25H58v6H56.41l-3.7-3.71A1.033,1.033,0,0,0,52,27H48ZM60,38a1,1,0,0,1-1,1H47a1,1,0,0,1-1-1V29h5.59l3.7,3.71A1.033,1.033,0,0,0,56,33h4Z" fill="#0c3761" data-original="#000000" class=""/><path d="M61,10H60V4a2.006,2.006,0,0,0-2-2H48a2.006,2.006,0,0,0-2,2V6H45a1,1,0,0,0-1,1V17a3.009,3.009,0,0,0,3,3H59a3.009,3.009,0,0,0,3-3V11A1,1,0,0,0,61,10ZM48,4H58v6H56.41l-3.7-3.71A1.033,1.033,0,0,0,52,6H48ZM60,17a1,1,0,0,1-1,1H47a1,1,0,0,1-1-1V8h5.59l3.7,3.71A1.033,1.033,0,0,0,56,12h4Z" fill="#0c3761" data-original="#000000" class=""/><path d="M29.14,29.01l-2.68-.38a10.291,10.291,0,0,0-.68-1.64l1.63-2.17a.994.994,0,0,0-.1-1.31l-2.82-2.82a.994.994,0,0,0-1.31-.1l-2.17,1.63a10.291,10.291,0,0,0-1.64-.68l-.38-2.68A1,1,0,0,0,18,18H14a1,1,0,0,0-.99.86l-.38,2.68a10.291,10.291,0,0,0-1.64.68L8.82,20.59a.994.994,0,0,0-1.31.1L4.69,23.51a.994.994,0,0,0-.1,1.31l1.63,2.17a10.291,10.291,0,0,0-.68,1.64l-2.68.38A1,1,0,0,0,2,30v4a1,1,0,0,0,.86.99l2.68.38a10.291,10.291,0,0,0,.68,1.64L4.59,39.18a.994.994,0,0,0,.1,1.31l2.82,2.82a.994.994,0,0,0,1.31.1l2.17-1.63a10.291,10.291,0,0,0,1.64.68l.38,2.68A1,1,0,0,0,14,46h4a1,1,0,0,0,.99-.86l.38-2.68a10.291,10.291,0,0,0,1.64-.68l2.17,1.63a.994.994,0,0,0,1.31-.1l2.82-2.82a.994.994,0,0,0,.1-1.31l-1.63-2.17a10.291,10.291,0,0,0,.68-1.64l2.68-.38A1,1,0,0,0,30,34V30A1,1,0,0,0,29.14,29.01ZM28,33.13l-2.46.35a1,1,0,0,0-.83.75,8.664,8.664,0,0,1-.98,2.35,1.017,1.017,0,0,0,.06,1.11l1.5,1.99-1.61,1.61-1.99-1.5a1.017,1.017,0,0,0-1.11-.06,8.664,8.664,0,0,1-2.35.98,1,1,0,0,0-.75.83L17.13,44H14.87l-.35-2.46a1,1,0,0,0-.75-.83,8.664,8.664,0,0,1-2.35-.98,1.017,1.017,0,0,0-1.11.06l-1.99,1.5L6.71,39.68l1.5-1.99a1.017,1.017,0,0,0,.06-1.11,8.664,8.664,0,0,1-.98-2.35,1,1,0,0,0-.83-.75L4,33.13V30.87l2.46-.35a1,1,0,0,0,.83-.75,8.664,8.664,0,0,1,.98-2.35,1.017,1.017,0,0,0-.06-1.11l-1.5-1.99,1.61-1.61,1.99,1.5a1.017,1.017,0,0,0,1.11.06,8.664,8.664,0,0,1,2.35-.98,1,1,0,0,0,.75-.83L14.87,20h2.26l.35,2.46a1,1,0,0,0,.75.83,8.664,8.664,0,0,1,2.35.98,1.017,1.017,0,0,0,1.11-.06l1.99-1.5,1.61,1.61-1.5,1.99a1.017,1.017,0,0,0-.06,1.11,8.664,8.664,0,0,1,.98,2.35,1,1,0,0,0,.83.75l2.46.35Z" fill="#0c3761" data-original="#000000" class=""/><path d="M16,26a6,6,0,1,0,6,6A6.006,6.006,0,0,0,16,26Zm0,10a4,4,0,1,1,4-4A4,4,0,0,1,16,36Z" fill="#0c3761" data-original="#000000" class=""/><path d="M35,13V31H32v2h3V54a1,1,0,0,0,1,1h6V53H37V33h5V31H37V14h5V12H36A1,1,0,0,0,35,13Z" fill="#0c3761" data-original="#000000" class=""/></g></g></svg>
