<svg xmlns="http://www.w3.org/2000/svg" width="65.807" height="65.807" viewBox="0 0 65.807 65.807"><g transform="translate(0 0)"><path d="M18.675,54.351A11.675,11.675,0,1,0,7,42.675,11.689,11.689,0,0,0,18.675,54.351ZM9.185,43.737h4.29a5.323,5.323,0,0,0,4.138,4.138v4.29A9.565,9.565,0,0,1,9.185,43.737Zm9.49-4.246a3.184,3.184,0,1,1-3.184,3.184A3.188,3.188,0,0,1,18.675,39.491Zm1.061,12.674v-4.29a5.323,5.323,0,0,0,4.138-4.138h4.29A9.565,9.565,0,0,1,19.737,52.165Zm8.429-10.551h-4.29a5.323,5.323,0,0,0-4.138-4.138v-4.29A9.565,9.565,0,0,1,28.165,41.614ZM17.614,33.185v4.29a5.323,5.323,0,0,0-4.138,4.138H9.185A9.565,9.565,0,0,1,17.614,33.185Z" transform="translate(-0.631 0.842)" fill="#fff"/><path d="M35,21.737A12.737,12.737,0,1,0,47.737,9,12.751,12.751,0,0,0,35,21.737Zm23.351,0A10.614,10.614,0,1,1,47.737,11.123,10.626,10.626,0,0,1,58.351,21.737Z" transform="translate(1.088 -0.509)" fill="#fff"/><path d="M54.07,38.651A16.958,16.958,0,0,0,50.886,5.3V1H6.307V31.736L3.486,34.557l1.393,2.705A16.032,16.032,0,0,0,3.9,39.628L1,40.559v7.917l2.9.93a15.891,15.891,0,0,0,.975,2.366L3.485,54.477,6.307,57.3v9.508H50.886v-8.6a5.316,5.316,0,0,0,4.246-5.2V44.517a3.177,3.177,0,0,0-1.487-2.684,3.149,3.149,0,0,0,.426-1.561Zm-3.184,2.682H48.763A1.062,1.062,0,0,1,47.7,40.272V39.063a15.345,15.345,0,0,0,4.246,0v1.209A1.062,1.062,0,0,1,50.886,41.333Zm13.8-19.105a14.86,14.86,0,1,1-14.86-14.86A14.876,14.876,0,0,1,64.684,22.228ZM7,51.244a13.772,13.772,0,0,1-1.223-2.969l-.155-.549-2.5-.8v-4.82l2.5-.8.155-.549A13.681,13.681,0,0,1,7,37.79l.278-.5-1.2-2.329L9.49,31.554l2.329,1.2.5-.278a13.681,13.681,0,0,1,2.969-1.224l.549-.155.8-2.5h4.82l.8,2.5.549.155a13.681,13.681,0,0,1,2.969,1.224l.5.278,2.329-1.2,3.409,3.409-1.2,2.329.278.5a13.681,13.681,0,0,1,1.224,2.969l.155.549,2.5.8v4.82l-2.5.8-.155.549a13.772,13.772,0,0,1-1.223,2.969l-.279.5,1.2,2.33L28.6,57.479l-2.33-1.2-.5.279A13.772,13.772,0,0,1,22.8,57.783l-.549.155-.8,2.5h-4.82l-.8-2.5-.549-.155a13.772,13.772,0,0,1-2.969-1.223l-.5-.279-2.33,1.2L6.081,54.071l1.2-2.33ZM8.43,64.684V59.42l.654.654,2.705-1.391a15.891,15.891,0,0,0,2.366.975l.931,2.9H23l.93-2.9a15.891,15.891,0,0,0,2.366-.975L29,60.075l5.6-5.6-1.393-2.706a15.938,15.938,0,0,0,.975-2.366l2.9-.932V40.558l-2.9-.93a15.985,15.985,0,0,0-.975-2.366L34.6,34.557l-5.6-5.6L26.3,30.352a16.033,16.033,0,0,0-2.366-.975L23,26.474H15.085l-.93,2.9a15.985,15.985,0,0,0-2.366.975L9.084,28.958l-.654.655V3.123H48.763V5.3a16.958,16.958,0,0,0-3.184,33.351v1.621A3.149,3.149,0,0,0,46,41.833a3.177,3.177,0,0,0-1.487,2.684v8.491a5.317,5.317,0,0,0,4.246,5.2v6.476ZM53.008,53.008a3.184,3.184,0,0,1-6.368,0V44.517A1.062,1.062,0,0,1,47.7,43.456h4.246a1.062,1.062,0,0,1,1.061,1.061Z" transform="translate(-1 -1)" fill="#fff"/><path d="M41.794,21.661l-1.5,1.5L44.228,27.1l10.3-10.3-1.5-1.5-8.8,8.8Z" transform="translate(1.413 -0.122)" fill="#fff"/><path d="M10,15.614H31.228V5H10Zm2.123-8.491H29.105v6.368H12.123Z" transform="translate(-0.447 -0.754)" fill="#fff"/><path d="M10,17h2.123v2.123H10Z" transform="translate(-0.447 -0.018)" fill="#fff"/><path d="M14,17H29.921v2.123H14Z" transform="translate(-0.202 -0.018)" fill="#fff"/><path d="M10,21H30.167v2.123H10Z" transform="translate(-0.447 0.228)" fill="#fff"/><path d="M33,57h8.491v2.123H33Z" transform="translate(0.965 2.438)" fill="#fff"/><path d="M33,53h8.491v2.123H33Z" transform="translate(0.965 2.193)" fill="#fff"/></g></svg>