<svg xmlns="http://www.w3.org/2000/svg" width="120" height="120" viewBox="0 0 120 120"><g transform="translate(-657 -83.568)"><circle cx="60" cy="60" r="60" transform="translate(657 83.568)" fill="#18b57b"/><g transform="translate(675.39 99.769)"><path d="M77.75,30.933C66.266,19.094,68.385,20.561,66.926,20.052H44.59L36.1,11.136a1.134,1.134,0,0,0-.784-.336H8.785A4.18,4.18,0,0,0,4.61,14.975v48.2a4.18,4.18,0,0,0,4.175,4.175H36.221v5.078A4.18,4.18,0,0,0,40.4,76.606H73.9a4.18,4.18,0,0,0,4.175-4.175V31.7a1.134,1.134,0,0,0-.323-.771Zm-9.739-7.09,6.453,6.779H68.011Zm-17.528,26.1h-12.1V46.715h12.1a1.082,1.082,0,0,0,1.082-1.082V42.208l7.917,6.115-7.917,6.119V51.026A1.082,1.082,0,0,0,50.483,49.944ZM32.2,37.46H44.3v3.235H32.2a1.082,1.082,0,0,0-1.082,1.082v3.416L23.2,39.074l7.917-6.115v3.418A1.082,1.082,0,0,0,32.2,37.46ZM42.854,21.37H36.4v-6.78ZM6.775,63.179v-48.2a2.013,2.013,0,0,1,2.01-2.01H34.235v9.488a1.082,1.082,0,0,0,1.082,1.082H44.3v11.76H33.285v-4.54a1.09,1.09,0,0,0-1.744-.856L20.773,38.217a1.089,1.089,0,0,0,0,1.713L31.54,48.255a1.077,1.077,0,0,0,.662.227A1.089,1.089,0,0,0,33.285,47.4v-4.54H44.3v1.692h-7a1.082,1.082,0,0,0-1.082,1.082v5.393A1.082,1.082,0,0,0,37.3,52.108h7V63.179a2.013,2.013,0,0,1-2.01,2.01H8.785a2.013,2.013,0,0,1-2.01-2.01Zm69.134,9.252a2.013,2.013,0,0,1-2.01,2.01H40.4a2.013,2.013,0,0,1-2.01-2.01V67.354h3.9a4.18,4.18,0,0,0,4.175-4.175V52.108H49.4v4.54a1.082,1.082,0,0,0,.605.972,1.122,1.122,0,0,0,1.139-.116l10.767-8.325a1.09,1.09,0,0,0,0-1.713L51.145,39.148A1.082,1.082,0,0,0,49.4,40v4.546H46.463c0-1.762,0-6.357,0-8.173-.006-.019,0-13.9,0-13.926a2.123,2.123,0,0,0-.026-.234H65.844V31.7a1.082,1.082,0,0,0,1.084,1.082h8.98Z" fill="#fff"/><path d="M92.607,57.356a1.082,1.082,0,0,0,1.082,1.082h10.152a1.082,1.082,0,1,0,0-2.165H93.689A1.083,1.083,0,0,0,92.607,57.356Z" transform="translate(-33.572 -17.349)" fill="#fff"/><path d="M106.973,69.729H101.9a1.082,1.082,0,1,0,0,2.165h5.076a1.082,1.082,0,1,0,0-2.165Z" transform="translate(-36.704 -22.482)" fill="#fff"/><path d="M103.842,83.185H93.689a1.082,1.082,0,0,0,0,2.165h10.152a1.082,1.082,0,1,0,0-2.165Z" transform="translate(-33.572 -27.616)" fill="#fff"/><path d="M16.559,43.48H26.712a1.082,1.082,0,1,0,0-2.165H16.559a1.082,1.082,0,0,0,0,2.165Z" transform="translate(-4.146 -11.642)" fill="#fff"/><path d="M16.559,56.935h5.076a1.082,1.082,0,1,0,0-2.165H16.559a1.082,1.082,0,0,0,0,2.165Z" transform="translate(-4.146 -16.775)" fill="#fff"/><path d="M26.712,68.226H16.559a1.082,1.082,0,1,0,0,2.165H26.712a1.082,1.082,0,0,0,0-2.165Z" transform="translate(-4.146 -21.909)" fill="#fff"/></g></g></svg>