<svg id="Capa_1" enable-background="new 0 0 511.997 511.997" height="512" viewBox="0 0 511.997 511.997" width="512" xmlns="http://www.w3.org/2000/svg"  fill="#0c3761"><g><g><g><path d="m494.676 209.824c0-4.142-3.358-7.5-7.5-7.5s-7.5 3.358-7.5 7.5v130.986h-57.647c18.996-18.231 30.839-43.86 30.839-72.205 0-40.732-24.454-75.856-59.45-91.473v-88.286h74.887c6.27 0 11.371 5.101 11.371 11.372v76.282c0 4.142 3.358 7.5 7.5 7.5s7.5-3.358 7.5-7.5v-76.283c0-14.542-11.83-26.372-26.371-26.372h-2.583v-30.375c0-23.97-19.5-43.47-43.47-43.47-.061 0-.121.008-.182.009-.061-.001-.12-.009-.181-.009h-278.42c-23.97 0-43.47 19.5-43.47 43.47v30.376h-56.305c-14.542 0-26.372 11.83-26.372 26.372l-.004 278.132c0 14.54 11.834 26.37 26.38 26.37h150.312l-5.067 56.448h-17.27c-9.265 0-16.803 7.538-16.803 16.803v17.224c0 9.265 7.538 16.803 16.803 16.803h168.65c9.265 0 16.803-7.538 16.803-16.803v-17.224c0-9.265-7.538-16.803-16.803-16.803h-17.27l-5.067-56.448h150.322c14.541 0 26.37-11.83 26.37-26.37zm-56.807 58.781c0 46.93-38.181 85.11-85.111 85.11s-85.11-38.18-85.11-85.11 38.18-85.11 85.11-85.11 85.111 38.18 85.111 85.11zm-279.611 28.495c-1.13 0-2.05-.92-2.05-2.05v-17.49c0-1.13.919-2.05 2.05-2.05h16.895v21.59zm-2.05-75.23v-17.48c0-1.136.919-2.06 2.05-2.06h16.895v21.59h-16.895c-1.13 0-2.05-.92-2.05-2.05zm96.768 38.64h-62.823v-21.59h66.987c-2.149 6.908-3.565 14.135-4.164 21.59zm-94.718 0c-1.13 0-2.05-.919-2.05-2.05v-17.48c0-1.136.919-2.06 2.05-2.06h16.895v21.59zm115.741-53.638c-4.149 5.281-7.773 10.992-10.806 17.048h-73.039v-21.59h81.795c1.13 0 2.05.924 2.05 2.06zm-83.846 68.638h62.737c.51 7.448 1.838 14.674 3.896 21.59h-66.632v-21.59zm231.736-260.51c.061 0 .121-.008.182-.009.061.001.12.009.182.009 15.698 0 28.47 12.771 28.47 28.47v30.375h-57.303v-30.375c-.002-15.699 12.77-28.47 28.469-28.47zm-306.89 28.47c0-15.698 12.771-28.47 28.47-28.47h245.596c-6.628 7.632-10.646 17.591-10.646 28.47v128.364c-8.193-2.174-16.793-3.339-25.661-3.339-25.772 0-49.299 9.791-67.062 25.847-3.105-4.241-8.103-7.011-13.747-7.011h-113.69c-9.401 0-17.05 7.653-17.05 17.06v17.48c0 3.537 1.084 6.825 2.935 9.552-1.851 2.729-2.935 6.019-2.935 9.558v17.48c0 3.536 1.083 6.823 2.934 9.55-1.85 2.726-2.934 6.014-2.934 9.55v17.49c0 9.401 7.648 17.05 17.05 17.05h104.341c5.223 10.782 12.325 20.49 20.876 28.7h-168.477zm-71.305 45.376h56.304v251.964h-67.675v-240.593c0-6.27 5.101-11.371 11.371-11.371zm264.3 372.322h-53.194c-4.142 0-7.5 3.358-7.5 7.5s3.358 7.5 7.5 7.5h85.523c.994 0 1.803.809 1.803 1.803v17.224c0 .994-.809 1.803-1.803 1.803h-168.65c-.994 0-1.803-.809-1.803-1.803v-17.224c0-.994.809-1.803 1.803-1.803h49.803c4.142 0 7.5-3.358 7.5-7.5s-3.358-7.5-7.5-7.5h-17.474l5.067-56.448h19.072v8.394c0 15.36 12.497 27.857 27.857 27.857s27.857-12.497 27.857-27.857v-8.394h19.072zm-39.139-56.448v8.394c0 7.089-5.768 12.857-12.857 12.857s-12.857-5.768-12.857-12.857v-8.394zm210.824-26.37c0 6.269-5.101 11.37-11.37 11.37h-424.61c-6.275 0-11.38-5.101-11.38-11.37v-22.54h271.322c14.52 8.211 31.28 12.905 49.117 12.905s34.597-4.695 49.117-12.905h77.804z"/><path d="m151.874 153.42c1.464 1.464 3.384 2.197 5.303 2.197s3.839-.732 5.303-2.197l13.66-13.66c2.929-2.929 2.929-7.678 0-10.606-2.929-2.929-7.678-2.929-10.606 0l-8.357 8.357-2.876-2.876c-2.929-2.929-7.678-2.929-10.606 0-2.929 2.929-2.929 7.678 0 10.606z"/><path d="m352.758 133.787h-97.643c-4.142 0-7.5 3.358-7.5 7.5s3.358 7.5 7.5 7.5h97.643c4.142 0 7.5-3.358 7.5-7.5s-3.358-7.5-7.5-7.5z"/><path d="m205.192 148.787h24.904c4.142 0 7.5-3.358 7.5-7.5s-3.358-7.5-7.5-7.5h-24.904c-4.142 0-7.5 3.358-7.5 7.5s3.358 7.5 7.5 7.5z"/><path d="m151.874 116.979c1.464 1.465 3.384 2.197 5.303 2.197s3.839-.732 5.303-2.197l13.66-13.66c2.929-2.929 2.929-7.677 0-10.606-2.928-2.929-7.677-2.929-10.606 0l-8.357 8.356-2.876-2.876c-2.929-2.929-7.678-2.929-10.606 0-2.929 2.929-2.929 7.678 0 10.606z"/><path d="m352.758 97.347h-5.017c-4.142 0-7.5 3.358-7.5 7.5s3.358 7.5 7.5 7.5h5.017c4.142 0 7.5-3.358 7.5-7.5s-3.358-7.5-7.5-7.5z"/><path d="m320.544 112.347c4.142 0 7.5-3.358 7.5-7.5s-3.358-7.5-7.5-7.5h-24.458c-4.142 0-7.5 3.358-7.5 7.5s3.358 7.5 7.5 7.5z"/><path d="m205.192 112.347h65.876c4.142 0 7.5-3.358 7.5-7.5s-3.358-7.5-7.5-7.5h-65.876c-4.142 0-7.5 3.358-7.5 7.5s3.358 7.5 7.5 7.5z"/><path d="m151.874 80.539c1.406 1.407 3.314 2.197 5.303 2.197s3.897-.79 5.303-2.197l13.66-13.66c2.929-2.929 2.929-7.678 0-10.606-2.929-2.929-7.678-2.929-10.606 0l-8.357 8.356-2.876-2.876c-2.928-2.929-7.677-2.929-10.606 0s-2.929 7.677 0 10.606z"/><path d="m255.115 75.906h97.643c4.142 0 7.5-3.358 7.5-7.5s-3.358-7.5-7.5-7.5h-97.643c-4.142 0-7.5 3.358-7.5 7.5s3.358 7.5 7.5 7.5z"/><path d="m205.192 75.906h24.904c4.142 0 7.5-3.358 7.5-7.5s-3.358-7.5-7.5-7.5h-24.904c-4.142 0-7.5 3.358-7.5 7.5s3.358 7.5 7.5 7.5z"/><path d="m352.758 223.958c-4.142 0-7.5 3.358-7.5 7.5v2.855c-10.176 1.604-17.991 10.408-17.991 21.028 0 11.752 9.561 21.313 21.313 21.313h8.356c3.481 0 6.313 2.833 6.313 6.314s-2.832 6.313-6.313 6.313h-8.356c-2.544 0-4.829-1.515-5.82-3.859-1.614-3.814-6.017-5.601-9.83-3.986-3.815 1.614-5.599 6.015-3.986 9.83 2.906 6.87 9.107 11.622 16.313 12.752v1.734c0 4.142 3.358 7.5 7.5 7.5s7.5-3.358 7.5-7.5v-1.757c10.176-1.603 17.992-10.408 17.992-21.028 0-11.752-9.561-21.313-21.313-21.313h-8.356c-3.481 0-6.313-2.832-6.313-6.313s2.832-6.313 6.313-6.313h8.356c2.101 0 4.06 1.042 5.24 2.789 2.318 3.432 6.981 4.334 10.413 2.016s4.335-6.981 2.016-10.413c-3.343-4.949-8.554-8.21-14.347-9.122v-2.839c0-4.143-3.358-7.501-7.5-7.501z"/><path d="m282.91 250.35c-1.045 4.008 1.357 8.104 5.365 9.149 4.006 1.044 8.104-1.356 9.149-5.365 6.557-25.148 29.311-42.712 55.333-42.712 31.531 0 57.184 25.653 57.184 57.184s-25.653 57.184-57.184 57.184c-25.757 0-48.45-17.348-55.183-42.187-1.084-3.998-5.204-6.36-9.201-5.276-3.998 1.084-6.36 5.203-5.276 9.201 8.501 31.36 37.147 53.262 69.661 53.262 39.802 0 72.184-32.382 72.184-72.184s-32.382-72.184-72.184-72.184c-32.847 0-61.57 22.176-69.848 53.928z"/></g></g></g></svg>