<svg height="495pt" viewBox="-1 0 495 495.99682" width="495pt" xmlns="http://www.w3.org/2000/svg"><path d="m254.886719 221.96875c0-41.242188-31.550781-75.632812-72.644531-79.175781-41.089844-3.542969-78.0625 24.9375-85.121094 65.574219-7.0625 40.632812 18.136718 79.917968 58.015625 90.441406v24.789062h-28.828125c-22.265625 0-27.773438 16.539063-30.734375 25.425782-.480469 1.59375-1.066407 3.15625-1.761719 4.675781-6.75 4.144531-12.90625 6.160156-18.816406 6.160156h-7.710938v-14.09375c0-3.3125-2.6875-6-6-6h-54.785156c-3.316406 0-6 2.6875-6 6v140.191406c0 3.3125 2.683594 6 6 6h54.785156c3.3125 0 6-2.6875 6-6v-11.785156h6.644532c14.773437 0 29.253906 4.125 41.804687 11.914063 14.75 9.152343 31.183594 9.910156 48.132813 9.910156h44.597656c7.890625.007812 15.136718-4.363282 18.808594-11.347656 3.667968-6.984376 3.160156-15.429688-1.320313-21.925782 5.875-3.316406 9.828125-9.226562 10.648437-15.925781.816407-6.699219-1.597656-13.386719-6.503906-18.019531 4.210938-4.054688 6.609375-9.632813 6.65625-15.480469.050782-5.84375-2.257812-11.460937-6.398437-15.585937 5.441406-5.105469 7.640625-12.789063 5.714843-20-1.921874-7.214844-7.652343-12.785157-14.914062-14.503907 10.726562-5.324219 17.324219-17.285156 17.324219-33.019531v-.589844c0-3.3125-2.6875-6-6-6h-36.78125v-24.789062c34.816406-9.304688 59.078125-40.796875 59.1875-76.839844zm-71.1875 140.660156h-16.5625v-61.621094c5.507812.574219 11.058593.574219 16.5625 0zm-75.75-140.660156c.003906-35.457031 27.449219-64.859375 62.820312-67.300781 35.371094-2.441407 66.601563 22.910156 71.476563 58.027343 4.878906 35.121094-18.257813 68.023438-52.957032 75.3125-19.894531 4.179688-40.613281-.835937-56.394531-13.648437-15.785156-12.8125-24.949219-32.0625-24.945312-52.390625zm-52.664063 257.988281h-42.785156v-128.191406h42.785156zm169.46875-97.007812c-.003906 4.59375-3.726562 8.3125-8.320312 8.320312h-13.179688c-.292968 0-.582031.023438-.871094.066407h-8.492187c-3.3125 0-6 2.6875-6 6 0 3.316406 2.6875 6 6 6h21.082031c5.363282.054687 9.683594 4.421874 9.683594 9.785156 0 5.363281-4.320312 9.726562-9.683594 9.78125h-21.082031c-3.3125 0-6 2.6875-6 6s2.6875 6 6 6h21.558594c3.347656-.035156 6.453125 1.730468 8.136719 4.625 1.6875 2.894531 1.6875 6.46875 0 9.363281-1.683594 2.894531-4.789063 4.660156-8.136719 4.625h-31.082031c-3.3125 0-6 2.6875-6 6s2.6875 6 6 6h24.101562c3.324219-.035156 6.410156 1.71875 8.082031 4.59375 1.671875 2.871094 1.671875 6.421875 0 9.296875-1.671875 2.871094-4.757812 4.625-8.082031 4.589844h-44.601562c-15.144532 0-29.738282-.621094-41.804688-8.105469-14.453125-8.96875-31.125-13.722656-48.132812-13.71875h-6.644532v-90.3125h7.714844c8.351562 0 16.726562-2.699219 25.609375-8.253906 3.484375-2.175781 4.816406-6.167969 6.355469-10.789063 3.355468-10.082031 6.710937-17.214844 19.347656-17.214844h28.828125v20.800782c-.886719-2.96875-3.890625-4.773438-6.929687-4.164063-3.035157.609375-5.109376 3.429688-4.785157 6.511719.976563 9.042969 8.613281 15.894531 17.710938 15.882812h55.300781c4.589844.007813 8.308594 3.726563 8.316406 8.316407zm1.347656-47.347657c-1.054687 7.605469-4.921874 18.648438-18.453124 18.648438h-11.949219v-18.652344zm0 0"/><path d="m486.5 197.265625h-54.789062c-3.3125 0-6 2.6875-6 6v14.09375h-7.710938c-5.910156 0-12.070312-2.011719-18.820312-6.160156-.691407-1.515625-1.28125-3.078125-1.761719-4.675781-2.957031-8.882813-8.46875-25.421876-30.734375-25.421876h-28.824219v-24.792968c38.613281-10.191406 63.667969-47.457032 58.53125-87.0625-5.140625-39.605469-38.875-69.246094-78.8125-69.246094s-73.667969 29.640625-78.808594 69.246094c-5.136719 39.605468 19.914063 76.871094 58.53125 87.0625v24.789062h-36.785156c-3.3125 0-6 2.6875-6 6v.585938c0 15.734375 6.601563 27.699218 17.324219 33.019531-7.261719 1.71875-12.992188 7.292969-14.917969 14.503906-1.921875 7.210938.273437 14.894531 5.71875 20.003907-4.140625 4.121093-6.449219 9.742187-6.402344 15.585937.050781 5.84375 2.449219 11.421875 6.660157 15.476563-4.90625 4.632812-7.320313 11.320312-6.503907 18.019531.820313 6.699219 4.769531 12.613281 10.648438 15.929687-4.484375 6.492188-4.992188 14.941406-1.320313 21.925782 3.671875 6.988281 10.917969 11.359374 18.808594 11.347656h44.601562c16.949219 0 33.382813-.757813 48.132813-9.90625 12.550781-7.792969 27.03125-11.917969 41.804687-11.914063h6.644532v11.78125c0 3.316407 2.683594 6 6 6h54.785156c3.3125 0 6-2.683593 6-6v-140.191406c0-3.3125-2.6875-6-6-6zm-168.921875-38.328125c2.765625 0 5.53125-.144531 8.28125-.429688v61.621094h-16.5625v-61.621094c2.753906.285157 5.515625.429688 8.28125.429688zm-67.46875-79.46875c.003906-35.457031 27.453125-64.859375 62.824219-67.300781 35.371094-2.441407 66.597656 22.910156 71.472656 58.027343 4.878906 35.117188-18.257812 68.019532-52.953125 75.3125-19.894531 4.179688-40.617187-.835937-56.398437-13.648437-15.785157-12.8125-24.949219-32.0625-24.945313-52.390625zm47.1875 113.628906v18.648438h-11.949219c-13.53125 0-17.398437-11.042969-18.453125-18.648438zm121.769531 126.574219c-17.007812-.003906-33.679687 4.75-48.128906 13.71875-12.066406 7.484375-26.660156 8.105469-41.808594 8.105469h-44.597656c-3.324219.035156-6.410156-1.71875-8.082031-4.589844-1.675781-2.875-1.675781-6.425781 0-9.296875 1.671875-2.875 4.757812-4.628906 8.082031-4.59375h24.097656c3.316406 0 6-2.6875 6-6s-2.683594-6-6-6h-31.078125c-3.347656.035156-6.457031-1.730469-8.140625-4.625s-1.683594-6.46875 0-9.363281c1.683594-2.894532 4.792969-4.660156 8.140625-4.625h21.554688c3.316406 0 6-2.6875 6-6s-2.683594-6-6-6h-21.082031c-5.363282-.054688-9.683594-4.417969-9.683594-9.78125 0-5.363282 4.320312-9.730469 9.683594-9.785156h21.082031c3.3125 0 6-2.683594 6-6 0-3.3125-2.6875-6-6-6h-8.492188c-.289062-.042969-.578125-.066407-.867187-.066407h-13.183594c-4.558594-.050781-8.230469-3.761719-8.230469-8.320312 0-4.558594 3.671875-8.269531 8.230469-8.320313h55.300781c9.09375.011719 16.734375-6.839844 17.710938-15.882812.320312-3.078125-1.753907-5.902344-4.789063-6.507813-3.039062-.609375-6.039062 1.191407-6.929687 4.160157v-20.800782h28.828125c12.640625 0 15.992187 7.136719 19.351562 17.214844 1.539063 4.621094 2.867188 8.613281 6.351563 10.792969 8.882812 5.554687 17.261719 8.253906 25.613281 8.253906h7.710938v90.3125zm61.433594 17.785156h-42.789062v-128.191406h42.789062zm0 0"/><path d="m169.269531 246.992188 41.558594-41.558594c1.539063-1.511719 2.144531-3.734375 1.59375-5.816406-.550781-2.082032-2.179687-3.710938-4.261719-4.261719-2.082031-.554688-4.304687.054687-5.816406 1.589843l-37.316406 37.320313-16.539063-16.539063c-1.507812-1.550781-3.734375-2.167968-5.828125-1.617187-2.089844.550781-3.722656 2.183594-4.273437 4.277344-.550781 2.089843.066406 4.316406 1.617187 5.824219l20.78125 20.78125c2.34375 2.34375 6.140625 2.34375 8.484375 0zm0 0"/><path d="m334.886719 105.261719c2.351562 2.3125 6.121093 2.296875 8.453125-.035157 2.328125-2.328124 2.34375-6.101562.03125-8.449218l-17.308594-17.308594 17.308594-17.308594c2.3125-2.347656 2.296875-6.121094-.03125-8.449218-2.332032-2.332032-6.101563-2.347657-8.453125-.035157l-17.308594 17.308594-17.308594-17.308594c-1.511719-1.539062-3.730469-2.144531-5.8125-1.59375-2.085937.554688-3.710937 2.179688-4.261719 4.265625-.554687 2.082032.054688 4.300782 1.589844 5.8125l17.3125 17.308594-17.308594 17.308594c-1.535156 1.511718-2.144531 3.730468-1.59375 5.8125.554688 2.085937 2.179688 3.710937 4.265626 4.265625 2.082031.550781 4.300781-.054688 5.8125-1.59375l17.308593-17.308594zm0 0"/></svg>