<svg xmlns="http://www.w3.org/2000/svg" width="67.948" height="67.948" viewBox="0 0 67.948 67.948"><g transform="translate(0)"><path d="M63.419,0H4.53A4.53,4.53,0,0,0,0,4.53V36.239a4.53,4.53,0,0,0,4.53,4.53h6.795v2.265H10.192a3.4,3.4,0,0,0-3.4,3.4V58.889a3.4,3.4,0,0,0,3.4,3.4h1.132v2.265a3.4,3.4,0,0,0,3.4,3.4h38.5a3.4,3.4,0,0,0,3.4-3.4V40.769h6.795a4.53,4.53,0,0,0,4.53-4.53V4.53A4.53,4.53,0,0,0,63.419,0ZM2.265,11.674l1.549,1.452a2.274,2.274,0,0,1,.716,1.653V25.99a2.265,2.265,0,0,1-.716,1.652L2.265,29.095ZM9.06,58.889V46.431A1.132,1.132,0,0,1,10.192,45.3H39.637a1.132,1.132,0,0,1,1.132,1.132V58.889a1.132,1.132,0,0,1-1.132,1.132H10.192A1.132,1.132,0,0,1,9.06,58.889Zm45.3,5.662a1.132,1.132,0,0,1-1.132,1.132h-38.5a1.132,1.132,0,0,1-1.132-1.132V62.286H39.637a3.4,3.4,0,0,0,3.4-3.4V46.431a3.4,3.4,0,0,0-3.4-3.4H13.59V40.769H54.359ZM48.7,8.4l4.061,4.061H48.886a.189.189,0,0,1-.189-.189V8.4Zm.189,6.326h5.473V38.5H13.59V7.927a1.132,1.132,0,0,1,1.132-1.132H46.431v5.473a2.456,2.456,0,0,0,2.454,2.454ZM56.624,38.5V13.59a1.132,1.132,0,0,0-.332-.8L48.365,4.862a1.132,1.132,0,0,0-.8-.332H14.722a3.4,3.4,0,0,0-3.4,3.4V38.5H4.53a2.265,2.265,0,0,1-2.265-2.265V32.2l3.1-2.9a4.543,4.543,0,0,0,1.433-3.3V14.779a4.553,4.553,0,0,0-1.431-3.306l-3.1-2.9V4.53A2.265,2.265,0,0,1,4.53,2.265H57.756A2.265,2.265,0,0,1,60.021,4.53V36.239A2.265,2.265,0,0,1,57.756,38.5Zm9.06-2.265A2.265,2.265,0,0,1,63.418,38.5H61.656a4.485,4.485,0,0,0,.63-2.265V4.53a4.482,4.482,0,0,0-.63-2.265h1.762A2.265,2.265,0,0,1,65.683,4.53Z" transform="translate(0)" fill="#fff"/><g transform="translate(20.385 9.06)"><path d="M159.262,68.267H157a3.4,3.4,0,0,0-3.4,3.4v2.265a1.132,1.132,0,1,0,2.265,0V71.664A1.132,1.132,0,0,1,157,70.532h2.265a1.132,1.132,0,0,0,0-2.265Z" transform="translate(-153.6 -68.267)" fill="#fff" fill-rule="evenodd"/><path d="M159.263,192.264H157a1.132,1.132,0,0,1-1.132-1.132v-2.265a1.132,1.132,0,0,0-2.265,0v2.265a3.4,3.4,0,0,0,3.4,3.4h2.265a1.132,1.132,0,0,0,0-2.265Z" transform="translate(-153.601 -171.879)" fill="#fff" fill-rule="evenodd"/><path d="M278.729,187.733a1.132,1.132,0,0,0-1.132,1.132v2.265a1.132,1.132,0,0,1-1.132,1.132H274.2a1.132,1.132,0,0,0,0,2.265h2.265a3.4,3.4,0,0,0,3.4-3.4v-2.265A1.133,1.133,0,0,0,278.729,187.733Z" transform="translate(-257.212 -171.878)" fill="#fff" fill-rule="evenodd"/><path d="M276.464,68.267H274.2a1.132,1.132,0,1,0,0,2.265h2.265a1.132,1.132,0,0,1,1.132,1.132v2.265a1.132,1.132,0,0,0,2.265,0V71.664A3.4,3.4,0,0,0,276.464,68.267Z" transform="translate(-257.212 -68.267)" fill="#fff" fill-rule="evenodd"/></g><path d="M97.264,358.4H95a1.132,1.132,0,0,0-1.132,1.132v7.927a1.132,1.132,0,0,0,2.265,0v-2.265h1.132a3.4,3.4,0,0,0,0-6.795Zm0,4.53H96.132v-2.265h1.132a1.132,1.132,0,0,1,0,2.265Z" transform="translate(-81.41 -310.836)" fill="#fff"/><path d="M236.063,358.4h-4.53a1.132,1.132,0,0,0-1.132,1.132v7.927a1.132,1.132,0,0,0,2.265,0v-2.265h2.265a1.132,1.132,0,1,0,0-2.265h-2.265v-2.265h3.4a1.132,1.132,0,0,0,0-2.265Z" transform="translate(-199.824 -310.836)" fill="#fff" fill-rule="evenodd"/><path d="M165.53,358.4h-2.265a1.132,1.132,0,0,0-1.132,1.132v7.927a1.132,1.132,0,0,0,1.132,1.132h2.265a3.4,3.4,0,0,0,3.4-3.4v-3.4A3.4,3.4,0,0,0,165.53,358.4Zm1.133,6.795a1.132,1.132,0,0,1-1.132,1.132H164.4v-5.662h1.132a1.132,1.132,0,0,1,1.132,1.132v3.4Z" transform="translate(-140.616 -310.836)" fill="#fff"/></g></svg>