<?xml version="1.0"?>
<svg xmlns="http://www.w3.org/2000/svg" xmlns:xlink="http://www.w3.org/1999/xlink" xmlns:svgjs="http://svgjs.com/svgjs" version="1.1" width="512" height="512" x="0" y="0" viewBox="0 0 512 512" style="enable-background:new 0 0 512 512" xml:space="preserve" class=""><g><path xmlns="http://www.w3.org/2000/svg" d="m72.125 193.546h-40.041c-17.691 0-32.084 14.393-32.084 32.084v179.37c0 9.674 15 9.674 15 0v-179.37c0-9.42 7.664-17.084 17.084-17.084h40.041c9.42 0 17.084 7.664 17.084 17.084v254.286c0 9.42-7.664 17.084-17.084 17.084h-40.041c-9.42 0-17.084-7.664-17.084-17.084v-30.916c0-9.674-15-9.674-15 0v30.916c0 17.691 14.393 32.084 32.084 32.084h40.041c17.691 0 32.084-14.393 32.084-32.084v-254.286c0-17.691-14.393-32.084-32.084-32.084z" fill="#414042" data-original="#000000" class=""/><path xmlns="http://www.w3.org/2000/svg" d="m208.056 311.4h-40.041c-17.691 0-32.084 14.393-32.084 32.084v136.432c0 17.691 14.393 32.084 32.084 32.084h40.041c17.691 0 32.084-14.393 32.084-32.084v-136.432c0-17.691-14.393-32.084-32.084-32.084zm17.084 168.516c0 9.42-7.664 17.084-17.084 17.084h-40.041c-9.42 0-17.084-7.664-17.084-17.084v-136.432c0-9.42 7.664-17.084 17.084-17.084h40.041c9.42 0 17.084 7.664 17.084 17.084z" fill="#414042" data-original="#000000" class=""/><path xmlns="http://www.w3.org/2000/svg" d="m343.985 222.766h-40.041c-17.691 0-32.084 14.393-32.084 32.084v225.066c0 17.691 14.393 32.084 32.084 32.084h40.041c17.691 0 32.084-14.393 32.084-32.084v-162.916c0-9.674-15-9.674-15 0v162.916c0 9.42-7.664 17.084-17.084 17.084h-40.041c-9.42 0-17.084-7.664-17.084-17.084v-225.066c0-9.42 7.664-17.084 17.084-17.084h40.041c9.42 0 17.084 7.664 17.084 17.084v17.15c0 9.674 15 9.674 15 0v-17.15c0-17.692-14.392-32.084-32.084-32.084z" fill="#414042" data-original="#000000" class=""/><path xmlns="http://www.w3.org/2000/svg" d="m479.916 125.365h-40.041c-17.691 0-32.084 14.393-32.084 32.084v322.467c0 17.691 14.393 32.084 32.084 32.084h40.041c17.691 0 32.084-14.393 32.084-32.084v-322.467c0-17.691-14.393-32.084-32.084-32.084zm17.084 354.551c0 9.42-7.664 17.084-17.084 17.084h-40.041c-9.42 0-17.084-7.664-17.084-17.084v-322.467c0-9.42 7.664-17.084 17.084-17.084h40.041c9.42 0 17.084 7.664 17.084 17.084z" fill="#414042" data-original="#000000" class=""/><path xmlns="http://www.w3.org/2000/svg" d="m52.104 139.396c5.551 0 10.757-1.49 15.251-4.08l94.643 97.586c-2.006 3.231-3.443 6.885-4.132 10.854-1.396 8.051.432 16.162 5.146 22.839 4.712 6.674 11.744 11.117 19.801 12.509 1.759.304 3.509.451 5.237.451 14.608 0 27.576-10.508 30.152-25.362v.001c1.071-6.177.238-12.387-2.333-17.96l89.303-71.741c5.727 4.263 11.996 6.404 18.807 6.423 14.608 0 27.577-10.508 30.154-25.362 1.097-6.326.195-12.687-2.526-18.363l89.875-72.2c5.128 3.867 11.506 6.166 18.413 6.166 16.883 0 30.617-13.717 30.617-30.578s-13.734-30.579-30.616-30.579-30.618 13.717-30.618 30.578c0 4.543 1.005 8.854 2.792 12.733l-90.036 72.33c-3.758-2.748-8.124-4.619-12.847-5.435-16.624-2.874-32.509 8.299-35.39 24.911-1.045 6.026-.284 12.086 2.142 17.553l-89.474 71.878c-3.838-2.895-8.334-4.861-13.209-5.703-7.317-1.265-14.488.192-20.47 3.634l-94.647-97.591c2.903-4.673 4.584-10.178 4.584-16.07 0-16.861-13.735-30.578-30.618-30.578s-30.617 13.717-30.617 30.578 13.734 30.578 30.616 30.578zm407.792-124.396c8.611 0 15.617 6.988 15.617 15.578s-7.006 15.578-15.617 15.578c-8.421 0-15.618-7.14-15.618-15.578-.001-8.59 7.005-15.578 15.618-15.578zm-151.32 122.68c1.313-7.57 7.927-12.923 15.38-12.923 9.653 0 16.81 8.821 15.398 18.235-1.469 8.466-9.564 14.165-18.056 12.694-4.112-.71-7.7-2.977-10.103-6.38-2.399-3.4-3.33-7.529-2.619-11.626zm-107.772 102.326c2.404 3.404 3.185 7.551 2.62 11.625-1.468 8.466-9.563 14.161-18.056 12.693-8.372-1.447-14.175-9.623-12.723-18.004 2.32-13.367 20.269-17.492 28.159-6.314zm-148.7-146.766c8.612 0 15.618 6.988 15.618 15.578s-7.006 15.578-15.618 15.578c-8.611 0-15.617-6.988-15.617-15.578s7.006-15.578 15.617-15.578z" fill="#414042" data-original="#000000" class=""/></g></svg>
