<svg xmlns="http://www.w3.org/2000/svg" width="81.632" height="72.724" viewBox="0 0 81.632 72.724"><g transform="translate(-24.616 -29.727)"><g transform="translate(24.616 52.567)"><g transform="translate(6.076 7.486)"><ellipse cx="0.853" cy="0.853" rx="0.853" ry="0.853" transform="translate(18.647)" fill="#fff"/><path d="M161.962,284.352H144.139a.746.746,0,0,1,0-1.492h17.823a.746.746,0,1,1,0,1.492Z" transform="translate(-134.184 -260.196)" fill="#fff"/><path d="M161.962,334.341H144.139a.746.746,0,0,1,0-1.492h17.823a.746.746,0,1,1,0,1.492Z" transform="translate(-134.184 -304.857)" fill="#fff"/><path d="M154.33,184.927H144.139a.746.746,0,0,1,0-1.492H154.33a.746.746,0,1,1,0,1.492Z" transform="translate(-134.184 -171.369)" fill="#fff"/><path d="M93.987,88.459H89.224V79.908A.746.746,0,0,0,89,79.374l-.011-.011L80.823,71.44a.751.751,0,0,0-1.266.535V79.9a.746.746,0,0,0,.746.746h7.428v7.814H64V74.106a1.387,1.387,0,0,1,1.386-1.385h7.349a.746.746,0,0,0,0-1.492H65.387a2.881,2.881,0,0,0-2.878,2.877V88.458H57.746a.746.746,0,0,0,0,1.492h4.763v13.09a2.881,2.881,0,0,0,2.878,2.877h20.96a2.881,2.881,0,0,0,2.878-2.877V89.951h4.763a.746.746,0,1,0,0-1.492ZM81.049,79.152V73.739l5.579,5.414Zm6.682,23.888a1.387,1.387,0,0,1-1.386,1.385H65.387A1.387,1.387,0,0,1,64,103.04V89.951H87.732v13.09Z" transform="translate(-57 -71.123)" fill="#fff"/></g><g transform="translate(0 0)"><path d="M345.683,14.581a.746.746,0,0,1-.746-.746V1.568H332.671a.746.746,0,0,1,0-1.492h13.012a.746.746,0,0,1,.746.746V13.835a.746.746,0,0,1-.746.746Z" transform="translate(-296.545 -0.068)" fill="#fff"/><path d="M14.861,346.423H1.849a.746.746,0,0,1-.746-.746V332.664a.746.746,0,1,1,1.492,0v12.267H14.861a.746.746,0,1,1,0,1.492Z" transform="translate(-0.985 -296.539)" fill="#fff"/><path d="M.746,14.5A.746.746,0,0,1,0,13.756V.746A.746.746,0,0,1,.746,0h9.815a.746.746,0,0,1,0,1.492H1.492V13.756A.746.746,0,0,1,.746,14.5Z" transform="translate(0 0)" fill="#fff"/><ellipse cx="0.853" cy="0.853" rx="0.853" ry="0.853" transform="translate(12.906 0)" fill="#fff"/><path d="M345.683,346.423H332.671a.746.746,0,0,1,0-1.492h12.266V332.664a.746.746,0,0,1,1.492,0v13.013A.746.746,0,0,1,345.683,346.423Z" transform="translate(-296.545 -296.539)" fill="#fff"/></g></g><g transform="translate(66.308 29.727)"><path d="M45.445,16.642H40.452V8.321a.835.835,0,0,0-.244-.588L32.719.244A.83.83,0,0,0,32.131,0H10.5A2.5,2.5,0,0,0,8,2.5V42.437a2.5,2.5,0,0,0,2.5,2.5H24.642v5.825a2.5,2.5,0,0,0,2.5,2.5H45.445a2.5,2.5,0,0,0,2.5-2.5V19.138A2.5,2.5,0,0,0,45.445,16.642ZM26.306,22.467h19.97V46.6H26.306Zm19.97-3.328V20.8H26.306V19.138a.833.833,0,0,1,.832-.832H45.445A.833.833,0,0,1,46.277,19.138ZM32.963,2.841l4.648,4.648H33.8a.833.833,0,0,1-.832-.832ZM10.5,43.269a.832.832,0,0,1-.832-.832V2.5a.833.833,0,0,1,.832-.832H31.3V6.657a2.5,2.5,0,0,0,2.5,2.5h4.993v7.489H27.138a2.5,2.5,0,0,0-2.5,2.5V43.269ZM45.445,51.59H27.138a.832.832,0,0,1-.832-.832v-2.5h19.97v2.5A.832.832,0,0,1,45.445,51.59Z" transform="translate(-8 0)" fill="#fff"/><path d="M46.406,34.74l-2.5-2.5A.83.83,0,0,0,43.321,32H35.832a.832.832,0,0,0-.832.832V46.978a.831.831,0,0,0,.832.832h9.985a.831.831,0,0,0,.832-.832V35.328A.832.832,0,0,0,46.406,34.74Zm-1.42,11.406H36.664V33.664h6.312l2.009,2.009Z" transform="translate(-12.534 -5.373)" fill="#fff"/><path d="M41.832,38a.832.832,0,0,0,0,1.664H43.5A.832.832,0,0,0,43.5,38Z" transform="translate(-13.541 -6.38)" fill="#fff"/><path d="M43.161,41H39.832a.832.832,0,0,0,0,1.664h3.328a.832.832,0,0,0,0-1.664Z" transform="translate(-13.205 -6.884)" fill="#fff"/><path d="M43.161,44H39.832a.832.832,0,0,0,0,1.664h3.328a.832.832,0,0,0,0-1.664Z" transform="translate(-13.205 -7.387)" fill="#fff"/><path d="M41.241,59.243a.844.844,0,0,0,0,1.182.844.844,0,0,0,1.182,0,.836.836,0,0,0-1.182-1.182Z" transform="translate(-13.541 -9.908)" fill="#fff"/><path d="M21.832,12a.832.832,0,0,0,0,1.664h7.489a.832.832,0,0,0,0-1.664Z" transform="translate(-10.183 -2.015)" fill="#fff"/><path d="M20.832,9.664h9.153a.832.832,0,0,0,0-1.664H20.832a.832.832,0,0,0,0,1.664Z" transform="translate(-10.015 -1.343)" fill="#fff"/><path d="M23.153,20H14.832a.832.832,0,0,0,0,1.664h8.321a.832.832,0,0,0,0-1.664Z" transform="translate(-9.008 -3.358)" fill="#fff"/><path d="M23.153,24H14.832a.832.832,0,0,0,0,1.664h8.321a.832.832,0,0,0,0-1.664Z" transform="translate(-9.008 -4.029)" fill="#fff"/><path d="M23.153,28H14.832a.832.832,0,0,0,0,1.664h8.321a.832.832,0,0,0,0-1.664Z" transform="translate(-9.008 -4.701)" fill="#fff"/><path d="M23.153,32H14.832a.832.832,0,0,0,0,1.664h8.321a.832.832,0,0,0,0-1.664Z" transform="translate(-9.008 -5.373)" fill="#fff"/><path d="M23.153,36H14.832a.832.832,0,0,0,0,1.664h8.321a.832.832,0,0,0,0-1.664Z" transform="translate(-9.008 -6.044)" fill="#fff"/><path d="M23.153,40H14.832a.832.832,0,0,0,0,1.664h8.321a.832.832,0,0,0,0-1.664Z" transform="translate(-9.008 -6.716)" fill="#fff"/><path d="M23.153,44H14.832a.832.832,0,0,0,0,1.664h8.321a.832.832,0,0,0,0-1.664Z" transform="translate(-9.008 -7.387)" fill="#fff"/><path d="M14.832,17.664H32.306a.832.832,0,0,0,0-1.664H14.832a.832.832,0,0,0,0,1.664Z" transform="translate(-9.008 -2.686)" fill="#fff"/><path d="M39.832,17.666a.877.877,0,0,0,.591-.241.844.844,0,0,0,0-1.182.871.871,0,0,0-1.182,0,.844.844,0,0,0,0,1.182A.873.873,0,0,0,39.832,17.666Z" transform="translate(-13.205 -2.688)" fill="#fff"/></g></g></svg>