<svg id="Layer_1" height="512" viewBox="0 0 512 512" width="512" xmlns="http://www.w3.org/2000/svg" data-name="Layer 1"><path d="m504 321.286h-157.333v-19.744a8 8 0 0 0 -8-8h-165.334a8 8 0 0 0 -8 8v37.774h-157.333a8 8 0 0 0 -8 8v96.175a8 8 0 0 0 8 8h496a8 8 0 0 0 8-8v-114.2a8 8 0 0 0 -8-8.005zm-173.333-11.744v125.949h-149.334v-125.949zm-314.667 45.774h149.333v80.175h-149.333zm480 80.175h-149.333v-98.2h149.333zm-257.922-82.73a8 8 0 0 1 1.565-11.205l15.776-11.912a8 8 0 0 1 12.82 6.384v64.977h7.161a8 8 0 0 1 0 16h-30.32a8 8 0 0 1 0-16h7.159v-48.912l-2.956 2.232a8 8 0 0 1 -11.205-1.564zm-51.425-171.47a40.9 40.9 0 0 0 -20.553 28.053 8.1 8.1 0 0 0 -.146 1.27c-.474 13.755-.576 27.7-.3 41.449a19.243 19.243 0 0 0 19.174 18.8h.172c47.11-.434 94.885-.434 142 0h.179a19.242 19.242 0 0 0 19.173-18.8c.272-13.76.171-27.706-.3-41.449a7.984 7.984 0 0 0 -.147-1.27 40.9 40.9 0 0 0 -20.553-28.053 8.025 8.025 0 0 0 -1.917-.748c-14.51-3.592-29.287-6.927-43.921-9.911a8.005 8.005 0 0 0 -6.893 1.842l-16.621 14.666-16.616-14.666a8.006 8.006 0 0 0 -6.893-1.842c-14.633 2.984-29.41 6.319-43.921 9.911a8.025 8.025 0 0 0 -1.917.748zm45.138 5.821 18.915 16.7a8 8 0 0 0 10.588 0l18.915-16.7c12.778 2.656 25.638 5.576 38.3 8.7a24.936 24.936 0 0 1 11.571 16.04c.443 13.234.535 26.653.274 39.9a3.189 3.189 0 0 1 -3.178 3.114h-.03c-23.605-.217-47.375-.326-71.146-.326s-47.541.109-71.146.326h-.029a3.19 3.19 0 0 1 -3.179-3.115c-.261-13.233-.168-26.653.275-39.9a24.93 24.93 0 0 1 11.57-16.04c12.663-3.123 25.523-6.043 38.3-8.699zm24.267-29.285c20.833 0 36.105-26.377 38.836-51.878 2.486-23.219-6.145-39.866-22.529-43.482a69.168 69.168 0 0 0 -32.613 0c-16.451 3.63-25.127 20.246-22.648 43.4 2.734 25.54 18.052 51.96 38.954 51.96zm-12.808-79.747.212-.049a53.086 53.086 0 0 1 25.192 0l.212.049c12.019 2.6 10.537 22.253 10.118 26.166-2.067 19.317-13.21 37.581-22.926 37.581-9.773 0-20.972-18.3-23.045-37.665-.586-5.472-1.579-23.523 10.237-26.082zm194.35 137.914-11.305 9.978-11.305-9.978a8 8 0 0 0 -6.892-1.842c-11.114 2.266-22.335 4.8-33.353 7.526a7.992 7.992 0 0 0 -1.917.748 32.928 32.928 0 0 0 -16.543 22.579 7.981 7.981 0 0 0 -.145 1.27c-.361 10.457-.438 21.057-.231 31.507a16.537 16.537 0 0 0 16.617 16.141c35.678-.329 71.86-.329 107.538 0h.153a16.524 16.524 0 0 0 16.464-16.143c.207-10.449.13-21.049-.231-31.506a7.981 7.981 0 0 0 -.145-1.27 32.924 32.924 0 0 0 -16.543-22.579 8.025 8.025 0 0 0 -1.917-.748c-11.018-2.727-22.239-5.26-33.353-7.526a8 8 0 0 0 -6.892 1.843zm35.3 20.943a16.956 16.956 0 0 1 7.587 10.589c.33 9.942.4 20.01.2 29.938a.483.483 0 0 1 -.469.46c-17.889-.165-35.9-.247-53.917-.247s-36.028.082-53.917.247a.483.483 0 0 1 -.469-.459c-.2-9.929-.129-20 .2-29.939a16.96 16.96 0 0 1 7.586-10.589c9.162-2.254 18.458-4.369 27.707-6.3l13.592 12.003a8 8 0 0 0 10.588 0l13.6-12.006c9.246 1.934 18.542 4.049 27.704 6.303zm-46.558-28.646c16.873 0 29.189-20.864 31.35-41.035 2-18.646-5.113-32.057-18.557-35.036a54.331 54.331 0 0 0 -25.587 0c-13.502 2.989-20.648 16.38-18.648 34.973 2.158 20.207 14.509 41.098 31.434 41.098zm-9.293-60.459c.071-.015.142-.031.212-.049a38.3 38.3 0 0 1 18.161 0c.07.018.141.034.212.05 7.484 1.621 6.435 15.045 6.148 17.72-1.586 14.811-9.743 26.738-15.44 26.738s-13.984-12.368-15.53-26.8c-.293-2.662-1.332-16.021 6.229-17.659zm-380.998 167.742c32.819-.3 66.1-.3 98.923 0h.147a15.843 15.843 0 0 0 15.786-15.474c.191-9.618.119-19.382-.212-29.02a7.893 7.893 0 0 0 -.146-1.272 30.926 30.926 0 0 0 -15.539-21.208 8.055 8.055 0 0 0 -1.918-.747c-10.133-2.51-20.466-4.841-30.71-6.93a8 8 0 0 0 -6.893 1.841l-9.976 8.806-9.978-8.806a8 8 0 0 0 -6.892-1.841c-10.247 2.089-20.579 4.421-30.709 6.93a8.031 8.031 0 0 0 -1.917.747 30.924 30.924 0 0 0 -15.541 21.211 8.1 8.1 0 0 0 -.146 1.27c-.332 9.638-.4 19.4-.212 29.02a15.805 15.805 0 0 0 15.933 15.473zm.246-43.241a14.953 14.953 0 0 1 6.6-9.229c8.275-2.036 16.68-3.949 25.052-5.7l12.274 10.833a8 8 0 0 0 10.588 0l12.268-10.837c8.371 1.755 16.776 3.668 25.054 5.7a14.964 14.964 0 0 1 6.6 9.229c.3 9.052.361 18.211.186 27.24-16.393-.15-32.9-.225-49.4-.225s-33.011.075-49.4.225c-.184-9.025-.119-18.184.181-27.236zm37.343-106.789c-12.756 2.828-19.517 15.409-17.648 32.868 2.021 18.866 13.63 38.38 29.561 38.38 15.884 0 27.461-19.485 29.477-38.323 1.874-17.5-4.854-30.107-17.564-32.925a50.612 50.612 0 0 0 -23.826 0zm25.482 31.222c-1.386 12.94-8.619 24.026-13.569 24.026-4.985 0-12.263-11.113-13.652-24.084-.252-2.353-1.183-14.161 5.239-15.551.071-.016.141-.032.213-.05a34.6 34.6 0 0 1 16.4 0c.07.018.141.034.212.05 6.486 1.404 5.312 14.159 5.157 15.609z"/></svg>