<?xml version="1.0" encoding="utf-8"?>
<!-- Generator: Adobe Illustrator 26.2.1, SVG Export Plug-In . SVG Version: 6.00 Build 0)  -->
<svg version="1.1" id="Layer_1" xmlns:svgjs="http://svgjs.com/svgjs"
	 xmlns="http://www.w3.org/2000/svg" xmlns:xlink="http://www.w3.org/1999/xlink" x="0px" y="0px" viewBox="0 0 512 512"
	 style="enable-background:new 0 0 512 512;" xml:space="preserve">
<style type="text/css">
	.st0{fill:#0F3764;}
</style>
<g>
	<path class="st0" d="M112,184c-4.4,0-8-3.6-8-8V64c0-4.4,3.6-8,8-8s8,3.6,8,8v112C120,180.4,116.4,184,112,184z"/>
	<path class="st0" d="M446.3,496H152c-26.5,0-48-21.5-48-48v-32c0-4.4,3.6-8,8-8s8,3.6,8,8v32c0,17.7,14.3,32,32,32s32-14.3,32-32
		c0-4.9-1.1-9.8-3.3-14.2c-3.5-7.1-3.1-15.6,1.2-22.3c4.4-7.2,12.2-11.6,20.7-11.6H448c26.5,0,48,21.5,48,48c0,1.6-0.1,3.1-0.2,4.7
		C492.7,477.6,471.4,496.3,446.3,496z M187.4,480h258.8c16.9,0.4,31.4-12,33.6-28.8c1.8-17.6-11.1-33.3-28.6-35
		c-1.1-0.1-2.2-0.2-3.2-0.2H202.6c-2.9,0-5.6,1.5-7.1,4c-1.3,2-1.5,4.6-0.4,6.7C203.8,444.4,200.8,465.5,187.4,480z"/>
	<path class="st0" d="M322.4,256H240c-4.4,0-8-3.6-8-8s3.6-8,8-8h82.4c4.4,0,8,3.6,8,8S326.8,256,322.4,256z"/>
	<path class="st0" d="M384,304H248c-4.4,0-8-3.6-8-8s3.6-8,8-8h136c4.4,0,8,3.6,8,8S388.4,304,384,304z"/>
	<path class="st0" d="M384,352H248c-4.4,0-8-3.6-8-8s3.6-8,8-8h136c4.4,0,8,3.6,8,8S388.4,352,384,352z"/>
	<path class="st0" d="M448,416c-4.4,0-8-3.6-8-8V64c0-17.7-14.3-32-32-32H72c-4.4,0-8-3.6-8-8s3.6-8,8-8h336c26.5,0,48,21.5,48,48
		v344C456,412.4,452.4,416,448,416z"/>
	<path class="st0" d="M112,112H72c-26.5,0-48-21.5-48-48s21.5-48,48-48s48,21.5,48,48c0,4.4-3.6,8-8,8s-8-3.6-8-8
		c0-17.7-14.3-32-32-32S40,46.3,40,64s14.3,32,32,32h40c4.4,0,8,3.6,8,8S116.4,112,112,112z"/>
	<path class="st0" d="M216,184c-4.4,0-8-3.6-8-8v-64c0-4.4,3.6-8,8-8s8,3.6,8,8v64C224,180.4,220.4,184,216,184z"/>
	<path class="st0" d="M240,120h-48c-4.4,0-8-3.6-8-8s3.6-8,8-8h48c4.4,0,8,3.6,8,8S244.4,120,240,120z"/>
	<path class="st0" d="M248,184c-1,0-1.9-0.2-2.8-0.5c-4.1-1.5-6.2-6.2-4.7-10.3c0,0,0,0,0,0l24-64c1.5-4.1,6.2-6.2,10.3-4.7
		c4.1,1.5,6.2,6.2,4.7,10.3l-24,64C254.3,181.9,251.3,184,248,184z"/>
	<path class="st0" d="M296,184c-3.3,0-6.3-2.1-7.5-5.2l-24-64c-1.5-4.1,0.6-8.7,4.7-10.3c4.1-1.5,8.7,0.6,10.3,4.7l0,0l24,64
		c1.6,4.1-0.5,8.7-4.7,10.3c0,0,0,0,0,0C297.9,183.8,297,184,296,184z"/>
	<path class="st0" d="M368,184c-2.5,0-4.9-1.2-6.4-3.2l-48-64c-2.6-3.5-1.9-8.6,1.6-11.2c3.5-2.6,8.5-1.9,11.2,1.6l48,64
		c2.7,3.5,1.9,8.5-1.6,11.2C371.4,183.4,369.7,184,368,184z"/>
	<path class="st0" d="M320,184c-4.4,0-8-3.6-8-8c0-1.7,0.6-3.4,1.6-4.8l48-64c2.6-3.5,7.7-4.3,11.2-1.6s4.3,7.7,1.6,11.2
		c0,0,0,0,0,0l-48,64C324.9,182.8,322.5,184,320,184z"/>
	<path class="st0" d="M288,168h-32c-4.4,0-8-3.6-8-8s3.6-8,8-8h32c4.4,0,8,3.6,8,8S292.4,168,288,168z"/>
	<path class="st0" d="M120,400c-57.4,0-104-46.6-104-104s46.6-104,104-104s104,46.6,104,104C223.9,353.4,177.4,399.9,120,400z
		 M120,208c-48.6,0-88,39.4-88,88s39.4,88,88,88s88-39.4,88-88C207.9,247.4,168.6,208.1,120,208z"/>
	<path class="st0" d="M120,352c-17.7,0-32-14.3-32-32c0-4.4,3.6-8,8-8s8,3.6,8,8c0,8.8,7.2,16,16,16s16-7.2,16-16s-7.2-16-16-16
		c-17.7,0-32-14.3-32-32s14.3-32,32-32s32,14.3,32,32c0,4.4-3.6,8-8,8s-8-3.6-8-8c0-8.8-7.2-16-16-16s-16,7.2-16,16s7.2,16,16,16
		c17.7,0,32,14.3,32,32S137.7,352,120,352z"/>
	<path class="st0" d="M120,256c-4.4,0-8-3.6-8-8v-16c0-4.4,3.6-8,8-8s8,3.6,8,8v16C128,252.4,124.4,256,120,256z"/>
	<path class="st0" d="M120,368c-4.4,0-8-3.6-8-8v-16c0-4.4,3.6-8,8-8s8,3.6,8,8v16C128,364.4,124.4,368,120,368z"/>
</g>
</svg>
