<?xml version="1.0"?>
<svg xmlns="http://www.w3.org/2000/svg" xmlns:xlink="http://www.w3.org/1999/xlink" xmlns:svgjs="http://svgjs.com/svgjs" version="1.1" width="512" height="512" x="0" y="0" viewBox="0 0 512 512" style="enable-background:new 0 0 512 512" xml:space="preserve" class=""><g><g xmlns="http://www.w3.org/2000/svg"><path d="m265.684 76.031c0-4.143-3.358-7.5-7.5-7.5h-87.161c-9.386 0-9.813 15 0 15h87.161c4.142 0 7.5-3.357 7.5-7.5z" fill="#414042" data-original="#000000"/><path d="m171.023 122.336c-9.386 0-9.813 15 0 15h51.337c9.386 0 9.813-15 0-15z" fill="#414042" data-original="#000000"/><path d="m163.624 382.557c9.386 0 9.813-15 0-15h-98.601c-9.386 0-9.813 15 0 15z" fill="#414042" data-original="#000000"/><path d="m92.718 202.794c4.142 0 7.5-3.357 7.5-7.5v-8.766c16.894-3.304 26.761-17.228 28.948-30.236 2.81-16.714-5.934-31.247-22.275-37.023-2.192-.775-4.436-1.588-6.672-2.434v-35.664c5.636 1.341 8.996 4.192 9.291 4.45 6.925 6.273 17.301-4.448 10.119-11.073-.428-.395-7.626-6.88-19.41-8.64v-7.296c0-9.386-15-9.813-15 0v7.872c-12.526 2.752-22.019 12.205-24.415 24.915-1.99 10.561 1.392 20.743 8.827 26.575 3.946 3.096 8.858 5.931 15.588 8.925v45.197c-5.837-.426-9.875-1.845-16.493-6.175-7.855-5.137-16.424 7.181-8.212 12.553 9.629 6.299 16.205 8.172 24.705 8.648v8.172c-.001 4.143 3.357 7.5 7.499 7.5zm7.5-69.982c.556.199 1.101.397 1.674.599 13.934 4.926 13.076 16.854 12.481 20.394-1.162 6.914-5.983 14.243-14.155 17.148zm-21.33-26.64c-3.012-2.362-4.293-6.958-3.344-11.994.852-4.521 3.842-9.954 9.674-12.136v28.172c-2.383-1.291-4.538-2.637-6.33-4.042z" fill="#414042" data-original="#000000"/><path d="m494.5 398.334h-70.083v-81.166c0-9.649-7.851-17.5-17.5-17.5h-26.639v-31.822-33.237c0-9.649-7.851-17.5-17.5-17.5-11.426 0-22.852 0-34.278 0v-58.109c0-9.386-15-9.813-15 0v58.108h-78.632c-9.649 0-17.5 7.851-17.5 17.5v25.338h-152.345c-9.386 0-9.813 15 0 15h152.345v38.806h-152.345c-9.386 0-9.813 15 0 15h152.345v113.19h-199.951c-1.333 0-2.417-1.086-2.417-2.421v-422.1c0-1.335 1.084-2.421 2.417-2.421h293.665c1.333 0 2.417 1.086 2.417 2.421v62.246c0 9.386 15 9.813 15 0v-62.246c.001-9.606-7.812-17.421-17.416-17.421h-293.666c-9.604 0-17.417 7.815-17.417 17.421v422.101c0 9.605 7.813 17.421 17.417 17.421h199.95v4.32 33.237c0 9.649 7.851 17.5 17.5 17.5h205.916c9.386 0 9.813-15 0-15h-16.367v-17.889h72.584v15.389c0 1.379-1.122 2.5-2.5 2.5h-13.918c-9.386 0-9.813 15 0 15h13.918c9.649 0 17.5-7.851 17.5-17.5v-78.666c0-9.649-7.851-17.5-17.5-17.5zm-131.722-166.226c1.378 0 2.5 1.121 2.5 2.5v24.945c-13.699-2.937-24.509-13.747-27.446-27.445zm-130.41 2.5c0-1.379 1.122-2.5 2.5-2.5h24.946c-2.937 13.698-13.747 24.509-27.446 27.445zm2.5 262.392c-1.378 0-2.5-1.121-2.5-2.5v-24.945c13.699 2.937 24.509 13.747 27.446 27.445zm86.966-111.97c-5.852 6.586-14.133 10.329-23.011 10.329-16.985 0-30.804-13.818-30.804-30.804s13.818-30.805 30.804-30.805c8.817 0 17.196 3.819 23.011 10.341zm.15 111.97c.016-.1.032-.12.049 0zm-.15-179.832v7.808c-6.906-4.013-14.831-6.226-23.011-6.226-25.256 0-45.804 20.548-45.804 45.805 0 25.256 20.547 45.804 45.804 45.804 8.24 0 16.126-2.179 23.011-6.187v92.829h-46.787c-3.272-21.984-20.695-39.407-42.679-42.679v-179.534c21.984-3.272 39.407-20.695 42.679-42.679h47.552c3.272 21.984 20.695 39.407 42.68 42.679v24.88h-25.944c-9.65 0-17.501 7.851-17.501 17.5zm87.583 179.832h-70.083c-1.378 0-2.5-1.121-2.5-2.5v-15.389h72.583zm0-32.889h-72.583v-17.889h72.583zm0-32.888h-72.583v-17.889h72.583zm0-32.889h-72.583v-17.889h72.583zm0-32.889h-72.583v-17.889h72.583zm0-32.888h-72.583v-15.389c0-1.379 1.122-2.5 2.5-2.5h67.583c1.378 0 2.5 1.121 2.5 2.5zm87.583 131.554h-72.583v-17.889h72.583zm0-32.888h-72.583v-17.889h70.083c1.378 0 2.5 1.121 2.5 2.5z" fill="#414042" data-original="#000000"/><path d="m263.629 176.881c3.535 2.928 7.071 2.928 10.606 0l86.407-86.407 39.775 39.775c3.535 2.928 7.071 2.928 10.606 0l78.907-78.908v20.476c0 9.386 15 9.813 15 0v-38.58c.001-4.084-3.416-7.503-7.5-7.503h-38.583c-9.386 0-9.813 15 0 15h20.476l-73.604 73.604-39.775-39.775c-2.929-2.928-7.678-2.928-10.606 0l-91.71 91.71c-2.928 2.93-2.928 7.678.001 10.608z" fill="#414042" data-original="#000000"/></g></g></svg>
