<?xml version="1.0" encoding="UTF-8"?>
<svg xmlns="http://www.w3.org/2000/svg" id="Icons" viewBox="0 0 60 60" width="512" height="512"><path d="M54,22H44V4a4,4,0,0,0-4-4H4A4,4,0,0,0,0,4V40a4,4,0,0,0,4,4H22V54a6.006,6.006,0,0,0,6,6H54a6.006,6.006,0,0,0,6-6V28A6.006,6.006,0,0,0,54,22ZM15,2H29V14.777a.21.21,0,0,1-.118.2.184.184,0,0,1-.209-.017l-6.088-4.39a1,1,0,0,0-1.17,0L15.327,14.96a.186.186,0,0,1-.209.016.21.21,0,0,1-.118-.2Zm7,26V42H4a2,2,0,0,1-2-2V4A2,2,0,0,1,4,2h9V14.777a2.206,2.206,0,0,0,3.5,1.805L22,12.613l5.5,3.968a2.192,2.192,0,0,0,2.29.176A2.214,2.214,0,0,0,31,14.777V2h9a2,2,0,0,1,2,2V22H28A6.006,6.006,0,0,0,22,28ZM58,54a4,4,0,0,1-4,4H28a4,4,0,0,1-4-4V28a4,4,0,0,1,4-4H54a4,4,0,0,1,4,4Z"/><path d="M28,46a2,2,0,0,0,2,2h2a2,2,0,0,0,2-2V42h.19a1.808,1.808,0,0,0,1.663-1.053,1.692,1.692,0,0,0-.3-1.84l-3.184-3.5A1.912,1.912,0,0,0,29.64,35.6l-3.193,3.514a1.689,1.689,0,0,0-.3,1.836A1.808,1.808,0,0,0,27.81,42H28Zm3-8.926L33.658,40H33a1,1,0,0,0-1,1v5H30V41a1,1,0,0,0-1-1h-.658Z"/><path d="M37.81,37H38v9a2,2,0,0,0,2,2h2a2,2,0,0,0,2-2V37h.19a1.813,1.813,0,0,0,1.664-1.052,1.694,1.694,0,0,0-.3-1.841l-3.184-3.5A1.915,1.915,0,0,0,39.64,30.6l-3.194,3.514a1.689,1.689,0,0,0-.3,1.836A1.81,1.81,0,0,0,37.81,37ZM41,32.074,43.658,35H43a1,1,0,0,0-1,1V46H40V36a1,1,0,0,0-1-1h-.658Z"/><path d="M52.366,26.6A1.912,1.912,0,0,0,49.64,26.6l-3.193,3.514a1.689,1.689,0,0,0-.3,1.836A1.808,1.808,0,0,0,47.81,33H48V46a2,2,0,0,0,2,2h2a2,2,0,0,0,2-2V33h.19a1.808,1.808,0,0,0,1.663-1.053,1.692,1.692,0,0,0-.3-1.84ZM53,31a1,1,0,0,0-1,1V46H50V32a1,1,0,0,0-1-1h-.658L51,28.074,53.658,31Z"/><path d="M52,50H30a2,2,0,0,0-2,2v2a2,2,0,0,0,2,2H52a2,2,0,0,0,2-2V52A2,2,0,0,0,52,50ZM30,54V52H52l0,2Z"/></svg>
