<svg xmlns="http://www.w3.org/2000/svg" width="67.948" height="67.948" viewBox="0 0 67.948 67.948"><g transform="translate(-1 -1)"><path d="M63.469,1H17.439a5.486,5.486,0,0,0-5.48,5.48V57.989H2.1a1.1,1.1,0,0,0-1.1,1.1v4.384a5.486,5.486,0,0,0,5.48,5.48H54.7a5.486,5.486,0,0,0,5.48-5.48V14.151h7.672a1.1,1.1,0,0,0,1.1-1.1V6.48A5.486,5.486,0,0,0,63.469,1ZM6.48,66.756a3.288,3.288,0,0,1-3.288-3.288V60.181H49.221v3.288a5.45,5.45,0,0,0,1.1,3.288ZM57.989,6.48V63.469a3.288,3.288,0,1,1-6.576,0V59.085a1.1,1.1,0,0,0-1.1-1.1H14.151V6.48a3.288,3.288,0,0,1,3.288-3.288H59.113A5.423,5.423,0,0,0,57.989,6.48Zm8.768,5.48H60.181V6.48a3.288,3.288,0,0,1,6.576,0Z" fill="#fff"/><path d="M33.959,28.919A10.959,10.959,0,1,0,23,17.959,10.959,10.959,0,0,0,33.959,28.919Zm0-19.727a8.768,8.768,0,1,1-8.768,8.768,8.768,8.768,0,0,1,8.768-8.768Z" transform="translate(2.111 0.576)" fill="#fff"/><path d="M0,0H12.4V2.192H0Z" transform="translate(30.907 22.146) rotate(-45)" fill="#fff"/><circle cx="1.662" cy="1.662" r="1.662" transform="translate(31.553 14.101)" fill="#fff"/><circle cx="1.662" cy="1.662" r="1.662" transform="translate(37.37 19.919)" fill="#fff"/><path d="M53.358,29H16.1A1.1,1.1,0,0,0,15,30.1V52.015a1.1,1.1,0,0,0,1.1,1.1H53.358a1.1,1.1,0,0,0,1.1-1.1V30.1A1.1,1.1,0,0,0,53.358,29Zm-1.1,21.919H17.192V31.192h35.07Z" transform="translate(1.343 2.686)" fill="#fff"/><path d="M19,33H40.919v2.192H19Z" transform="translate(1.727 3.07)" fill="#fff"/><path d="M41,33h6.576v2.192H41Z" transform="translate(3.838 3.07)" fill="#fff"/><path d="M19,37H40.919v2.192H19Z" transform="translate(1.727 3.454)" fill="#fff"/><path d="M41,37h6.576v2.192H41Z" transform="translate(3.838 3.454)" fill="#fff"/><path d="M19,41H40.919v2.192H19Z" transform="translate(1.727 3.838)" fill="#fff"/><path d="M41,41h6.576v2.192H41Z" transform="translate(3.838 3.838)" fill="#fff"/><path d="M19,45H40.919v2.192H19Z" transform="translate(1.727 4.221)" fill="#fff"/><path d="M41,45h6.576v2.192H41Z" transform="translate(3.838 4.221)" fill="#fff"/></g></svg>