<?xml version="1.0"?>
<svg xmlns="http://www.w3.org/2000/svg" xmlns:xlink="http://www.w3.org/1999/xlink" xmlns:svgjs="http://svgjs.com/svgjs" version="1.1" width="512" height="512" x="0" y="0" viewBox="0 0 64 64" style="enable-background:new 0 0 512 512" xml:space="preserve" class=""><g><path xmlns="http://www.w3.org/2000/svg" d="m7 54v7c0 .552.447 1 1 1h48c.553 0 1-.448 1-1v-5.589c.809-.182 1.579-.576 2.207-1.204 1.769-1.769 1.769-4.646 0-6.414l-2.207-2.207v-12.586c0-.552-.447-1-1-1h-2v-16c0-2.757-2.243-5-5-5h-11v-4c0-2.757-2.243-5-5-5h-24c-2.757 0-5 2.243-5 5v39h-1c-.553 0-1 .448-1 1v2c0 2.757 2.243 5 5 5zm2 6v-6h17c2.206 0 4-1.794 4-4v-16h1.426c-.271.955-.426 1.959-.426 3 0 6.065 4.935 11 11 11 1.363 0 2.664-.261 3.87-.716l6.923 6.923c.628.628 1.398 1.022 2.207 1.204v4.589zm33-14c-4.963 0-9-4.038-9-9s4.037-9 9-9 9 4.038 9 9-4.037 9-9 9zm15.793 6.793c-.988.988-2.598.988-3.586 0l-6.442-6.442c1.456-.901 2.685-2.129 3.586-3.586l6.442 6.442c.988.989.988 2.597 0 3.586zm-2.793-9.207-2.716-2.716c.455-1.206.716-2.507.716-3.87 0-1.041-.155-2.045-.426-3h2.426zm-3-27.586v16h-.214c-1.825-3.556-5.521-6-9.786-6s-7.961 2.444-9.786 6h-2.214v-8h11c2.757 0 5-2.243 5-5v-3c0-1.654 1.346-3 3-3s3 1.346 3 3zm-6.974-3c-.635.838-1.026 1.87-1.026 3v3c0 1.654-1.346 3-3 3s-3-1.346-3-3v-6zm-9.026-6v12c0 1.13.391 2.162 1.026 3h-7.026v-15c0-1.654 1.346-3 3-3s3 1.346 3 3zm-30 0c0-1.654 1.346-3 3-3h20.026c-.635.838-1.026 1.87-1.026 3v43c0 1.103-.897 2-2 2s-2-.897-2-2v-3c0-.552-.447-1-1-1h-17zm-2 41h18v2c0 .728.195 1.411.537 2h-15.537c-1.654 0-3-1.346-3-3z" fill="#414042" data-original="#000000" class=""/><path xmlns="http://www.w3.org/2000/svg" d="m21 29h5v2h-5z" fill="#414042" data-original="#000000" class=""/><path xmlns="http://www.w3.org/2000/svg" d="m8 29h11v2h-11z" fill="#414042" data-original="#000000" class=""/><path xmlns="http://www.w3.org/2000/svg" d="m8 10h2v2h-2z" fill="#414042" data-original="#000000" class=""/><path xmlns="http://www.w3.org/2000/svg" d="m8 33h18v2h-18z" fill="#414042" data-original="#000000" class=""/><path xmlns="http://www.w3.org/2000/svg" d="m8 37h18v2h-18z" fill="#414042" data-original="#000000" class=""/><path xmlns="http://www.w3.org/2000/svg" d="m8 41h18v2h-18z" fill="#414042" data-original="#000000" class=""/><path xmlns="http://www.w3.org/2000/svg" d="m21 14h5v2h-5z" fill="#414042" data-original="#000000" class=""/><path xmlns="http://www.w3.org/2000/svg" d="m8 14h11v2h-11z" fill="#414042" data-original="#000000" class=""/><path xmlns="http://www.w3.org/2000/svg" d="m21 18h5v2h-5z" fill="#414042" data-original="#000000" class=""/><path xmlns="http://www.w3.org/2000/svg" d="m8 18h11v2h-11z" fill="#414042" data-original="#000000" class=""/><path xmlns="http://www.w3.org/2000/svg" d="m8 25h2v2h-2z" fill="#414042" data-original="#000000" class=""/><path xmlns="http://www.w3.org/2000/svg" d="m40 38.586-2.293-2.293-1.414 1.414 3 3c.195.195.451.293.707.293s.512-.098.707-.293l7-7-1.414-1.414z" fill="#414042" data-original="#000000" class=""/></g></svg>
