<?xml version="1.0"?>
<svg xmlns="http://www.w3.org/2000/svg" xmlns:xlink="http://www.w3.org/1999/xlink" xmlns:svgjs="http://svgjs.com/svgjs" version="1.1" width="512" height="512" x="0" y="0" viewBox="0 0 60 60" style="enable-background:new 0 0 512 512" xml:space="preserve" class=""><g><g xmlns="http://www.w3.org/2000/svg" id="014---Risk-Management"><path id="Shape" d="m22.3 33.032h21.4c1.1943327.0007968 2.2925662-.6545324 2.859-1.706.61586-1.1047153.5852465-2.4563019-.08-3.532l-10.7-17.2c-.5906523-.96815664-1.6428936-1.55880993-2.777-1.55880993s-2.1863477.59065329-2.777 1.55880993l-10.705 17.206c-.6643643 1.0753246-.6945926 2.4260305-.079 3.53.5674983 1.0499208 1.6655238 1.7035897 2.859 1.702zm-1.081-4.181 10.7-17.2c.2261981-.3825447.6375835-.6172149 1.082-.6172149s.8558019.2346702 1.082.6172149l10.7 17.2c.2851933.45613.2978574 1.0317689.033 1.5-.2179795.4132452-.6448165.6738768-1.112.679h-21.404c-.4671835-.0051232-.8940205-.2657548-1.112-.679-.2652453-.4679221-.2533513-1.0434362.031-1.5z" fill="#0c3761" data-original="#000000" class=""/><path id="Shape" d="m57.708 36.32c-.8084955-.2321941-1.6762758-.1313732-2.41.28l-2.11 1.192c-.0941812-.2615943-.2291858-.5066277-.4-.726l-2.769-3.6c.378485-.7697502.7061854-1.5634465.981-2.376l4.509-.588c1.1431277-.1354179 2.0578096-1.0125492 2.241-2.149.3346691-2.2053756.3346691-4.4486244 0-6.654-.1767977-1.1437266-1.0922404-2.0305744-2.241-2.171l-4.509-.589c-.2737453-.8113936-.6001042-1.604075-.977-2.373l2.773-3.6c.7012296-.914307.7239456-2.1791023.056-3.118-.6629307-.89327043-1.388775-1.73808367-2.172-2.528-.7946322-.78756842-1.6444575-1.51742236-2.543-2.184-.9390638-.65856149-2.1971081-.63061395-3.106.069l-3.6 2.771c-.767976-.37643498-1.5596511-.70245817-2.37-.976l-.589-4.511c-.1395863-1.1443914-1.0211976-2.05743058-2.16-2.237-2.205837-.33299326-4.449163-.33299326-6.655 0-1.1389321.17973633-2.0198637 1.0941572-2.157 2.239l-.59 4.509c-.8121146.27355464-1.6054735.59991747-2.375.977l-3.6-2.767c-.907299-.71141453-2.1753547-.73830774-3.112-.066-.8956938.66289002-1.7416242 1.39050377-2.531 2.177-.7843389.79236374-1.5121254 1.63877471-2.178 2.533-.6723381.9373413-.6466877 2.2056098.063 3.115l2.771 3.595c-.3772451.7686396-.7032886 1.5613664-.976 2.373l-4.524.589c-1.14417475.1506605-2.05372435 1.0345947-2.237 2.174-.32266596 2.2082755-.32266596 4.4517245 0 6.66.19379636 1.1288551 1.10347657 1.9979246 2.24 2.14l4.522.589c.2722793.8124442.5983333 1.6058645.976 2.375l-2.774 3.608c-.2111433.2812233-.3647416.601333-.452.942l-.8.344c-.3010211-1.374075-1.5163431-2.3544819-2.923-2.358h-6c-1.65685425 0-3 1.3431458-3 3v14c0 1.6568542 1.34314575 3 3 3h6c1.5777835-.0042976 2.8814599-1.2322908 2.98-2.807.2046004-.006325.4088839.02035.605.079l20.369 6.516c1.5558126.4645067 3.2401926.1486389 4.522-.848l21.324-17.096c.755386-.6036657 1.1966302-1.5170414 1.2-2.484-.0032105-.5379729-.1407025-1.0666297-.4-1.538-.4062554-.73199-1.0869407-1.2723648-1.892-1.502zm-41.849-7.132-5.15-.669c-.2540247-.0275663-.4627226-.2129864-.52-.462-.29133306-2.0105009-.29133306-4.0524991 0-6.063.0511859-.2565912.2612738-.451356.521-.483l5.15-.67c.3899006-.0501079.7142745-.3240062.829-.7.3317144-1.1083358.7742839-2.1804196 1.321-3.2.1884888-.3476608.1543864-.7737451-.087-1.087l-3.158-4.1c-.1658741-.1987212-.1836847-.4820722-.044-.7.6074706-.8167737 1.271785-1.58969095 1.988-2.313.7169805-.71561048 1.4857295-1.37740316 2.3-1.98.2168165-.13970562.4986592-.12521086.7.036l4.109 3.16c.3132436.2406379.7387861.2743364 1.086.086 1.0219133-.54672551 2.0959193-.98992888 3.206-1.323.3753963-.11442749.6491588-.43785838.7-.827l.67-5.142c.0251458-.25748505.2161651-.46801273.47-.518 2.0112068-.30449674 4.0567932-.30449674 6.068 0 .2544572.04927044.4456703.26086866.469.519l.67 5.14c.0508412.38914162.3246037.71257251.7.827 1.1095795.33357888 2.1832042.77676311 3.205 1.323.3476608.1884888.7737451.1543864 1.087-.087l4.1-3.158c.1995748-.16371861.4814953-.18143933.7-.044 1.6367379 1.20450908 3.0823457 2.64910552 4.288 4.285.1487805.2188675.1365918.5093649-.03.715l-3.16 4.1c-.2413864.3132549-.2754888.7393392-.087 1.087.5459317 1.0201992.9891101 2.0921348 1.323 3.2.1144275.3753963.4378584.6491588.827.7l5.14.67c.2620327.0245825.4751048.2216742.52.481.1536444 1.0023416.2305346 2.0149512.23 3.029.0004341 1.0169943-.0761179 2.0325625-.229 3.038-.0548495.2502738-.2649564.4365416-.52.461l-5.14.669c-.3891416.0508412-.7125725.3246037-.827.7-.3330711 1.1100807-.7762745 2.1840867-1.323 3.206-.1883364.3472139-.1546379.7727564.086 1.086l3.165 4.12c.1218649.158771.1591443.3667901.1.558l-5.444 3.072c-.3479028-1.1578449-1.3272305-2.0148051-2.521-2.206l-1.71-.29c-.023 0-.05-.007-.077-.009l-20.542-3.313c-1.6571978-.2612176-3.3534236-.1034211-4.934.459l1.839-2.391c.2406379-.3132436.2743364-.7387861.086-1.086-.5466204-1.0213674-.9891788-2.0950992-1.321-3.205-.1143974-.3763848-.4388393-.6507319-.829-.701zm-5.859 23.812c0 .5522847-.44771525 1-1 1h-6c-.55228475 0-1-.4477153-1-1v-14c0-.5522847.44771525-1 1-1h6c.55228475 0 1 .4477153 1 1zm47.554-12.721-21.318 17.091c-.7639877.5902846-1.764395.7791389-2.691.508l-20.357-6.512c-.3758993-.1169259-.7673353-.1762651-1.161-.176h-.027v-10.683l4.748-2.056c1.2659135-.4526268 2.6257169-.5778402 3.953-.364l20.59 3.32.064.008 1.664.282c.560954.0926191.9745266.5744881.981 1.143-.0002417.1503992-.0290877.2993799-.085.439v.011c-.0545774.1355328-.1354683.2589084-.238.363-.222449.2213299-.5232015.3460146-.837.347h-18.99c-.5522847 0-1 .4477153-1 1s.4477153 1 1 1h3.714l5.82 3.614c.9110987.5145365 2.0244598.5171891 2.938.007l6.41-3.621h.108c.8380383-.0014844 1.6417459-.3330992 2.237-.923.2079223-.2072056.3853609-.4428926.527-.7l10.673-6.034c.5583622-.3099408 1.2622028-.111204 1.576.445.0955713.1755675.1460807.3721076.147.572-.0010602.3582449-.1652214.6965052-.446.919zm-18.888 5.721-3.322 1.876c-.2931359.1636472-.6488283.1692812-.947.015l-3.043-1.891z" fill="#0c3761" data-original="#000000" class=""/><path id="Path" d="m7 40h-2c-.55228475 0-1 .4477153-1 1s.44771525 1 1 1h2c.55228475 0 1-.4477153 1-1s-.44771525-1-1-1z" fill="#0c3761" data-original="#000000" class=""/><path id="Path" d="m7 50h-2c-.55228475 0-1 .4477153-1 1s.44771525 1 1 1h2c.55228475 0 1-.4477153 1-1s-.44771525-1-1-1z" fill="#0c3761" data-original="#000000" class=""/><path id="Path" d="m33 24.032c.5522847 0 1-.4477153 1-1v-8c0-.5522847-.4477153-1-1-1s-1 .4477153-1 1v8c0 .5522847.4477153 1 1 1z" fill="#0c3761" data-original="#000000" class=""/><path id="Path" d="m33 29.032c.5522847 0 1-.4477153 1-1v-1c0-.5522847-.4477153-1-1-1s-1 .4477153-1 1v1c0 .5522847.4477153 1 1 1z" fill="#0c3761" data-original="#000000" class=""/></g></g></svg>
