<svg id="Capa_1" enable-background="new 0 0 512 512" height="512" viewBox="0 0 512 512" width="512" xmlns="http://www.w3.org/2000/svg"><g><path d="m466.51 233.8c4.143 0 7.5-3.357 7.5-7.5v-210.8c0-8.547-6.953-15.5-15.5-15.5h-294.039c-8.547 0-15.5 6.953-15.5 15.5v19.5h-19.5c-8.547 0-15.5 6.953-15.5 15.5v76.4c0 4.143 3.357 7.5 7.5 7.5s7.5-3.357 7.5-7.5v-76.4c0-.28.22-.5.5-.5h294.039c.28 0 .5.22.5.5v402.38c0 .28-.22.5-.5.5h-223.881c2.308-7.593 3.562-15.642 3.562-23.979 0-42.717-32.595-77.964-74.22-82.177v-185.324c0-4.143-3.357-7.5-7.5-7.5s-7.5 3.357-7.5 7.5v185.188c-42.46 3.386-75.98 38.996-75.98 82.312 0 45.546 37.054 82.6 82.6 82.6 31.457 0 58.855-17.68 72.801-43.62h230.118c8.547 0 15.5-6.953 15.5-15.5v-19.5h19.5c8.547 0 15.5-6.953 15.5-15.5v-156.58c0-4.143-3.357-7.5-7.5-7.5s-7.5 3.357-7.5 7.5v156.58c0 .28-.22.5-.5.5h-19.5v-367.88c0-8.547-6.953-15.5-15.5-15.5h-259.539v-19.5c0-.28.22-.5.5-.5h294.039c.28 0 .5.22.5.5v210.8c0 4.142 3.357 7.5 7.5 7.5zm-345.92 263.2c-37.274 0-67.6-30.325-67.6-67.6s30.325-67.601 67.6-67.601 67.601 30.325 67.601 67.601c-.001 37.275-30.326 67.6-67.601 67.6z"/><path d="m165.915 395.266c-7.988-7.7-21.009-7.446-29.026.571l-26.438 26.438-6.572-6.573c-3.877-3.876-9.016-6.003-14.49-6.003-.064 0-.129 0-.192.001-5.546.05-10.722 2.277-14.574 6.272-7.701 7.988-7.445 21.009.57 29.026l16.522 16.523c4.999 4.998 11.653 7.75 18.736 7.75 7.084 0 13.738-2.753 18.738-7.752l36.995-36.996c3.923-3.922 6.055-9.136 6.005-14.682s-2.278-10.722-6.274-14.575zm-10.337 18.65-36.996 36.996c-2.166 2.166-5.054 3.359-8.131 3.359s-5.965-1.192-8.13-3.356l-16.521-16.522c-2.235-2.236-2.409-5.903-.38-8.009 1.035-1.073 2.425-1.672 3.912-1.686h.052c1.47 0 2.849.57 3.888 1.61l9.048 9.048c4.484 4.483 11.78 4.482 16.265-.001l28.911-28.912c2.235-2.235 5.901-2.408 8.008-.38 1.074 1.036 1.674 2.426 1.688 3.914.011 1.488-.561 2.887-1.614 3.939z"/><path d="m291.73 147.073 3.051-8.011h21.199l3.015 7.989c1.133 3.003 3.987 4.854 7.018 4.854.88 0 1.775-.156 2.647-.485 3.875-1.462 5.831-5.789 4.368-9.665l-19.459-51.562c-.025-.068-.053-.137-.08-.205-1.346-3.27-4.497-5.381-8.032-5.381-.003 0-.006 0-.008 0-3.538.003-6.69 2.121-8.031 5.395-.022.058-.046.115-.067.172l-19.638 51.561c-1.475 3.871.469 8.204 4.339 9.679 3.869 1.473 8.204-.47 9.678-4.341zm18.589-23.011h-9.825l4.935-12.957z"/><path d="m386.448 85.58c-4.143 0-7.5 3.357-7.5 7.5v28.132l-22.975-33.27c-1.865-2.701-5.268-3.874-8.404-2.898-3.133.977-5.268 3.878-5.268 7.16v52.199c0 4.143 3.357 7.5 7.5 7.5s7.5-3.357 7.5-7.5v-28.14l21.627 31.317c2.167 3.127 5.797 4.451 9.242 3.373 3.51-1.097 5.777-4.36 5.777-8.312v-49.561c.001-4.142-3.356-7.5-7.499-7.5z"/><path d="m166.532 84.606c-4.143 0-7.5 3.357-7.5 7.5v52.253c0 3.65 2.628 6.77 6.225 7.391.537.093.91.157 6.8.157 2.812 0 6.884-.015 12.83-.048 4.143-.023 7.481-3.4 7.458-7.542-.023-4.128-3.376-7.458-7.499-7.458-.015 0-.029 0-.043 0-3.681.021-7.564.036-10.771.042v-44.795c0-4.142-3.357-7.5-7.5-7.5z"/><path d="m268.432 118.255c0-18.554-15.095-33.648-33.648-33.648s-33.648 15.095-33.648 33.648 15.095 33.648 33.648 33.648 33.648-15.094 33.648-33.648zm-52.297 0c0-10.283 8.365-18.648 18.648-18.648s18.648 8.365 18.648 18.648-8.365 18.648-18.648 18.648-18.648-8.365-18.648-18.648z"/><path d="m166.532 184.305h166.438c4.143 0 7.5-3.357 7.5-7.5s-3.357-7.5-7.5-7.5h-166.438c-4.143 0-7.5 3.357-7.5 7.5s3.358 7.5 7.5 7.5z"/><path d="m166.532 217.801h166.438c4.143 0 7.5-3.357 7.5-7.5s-3.357-7.5-7.5-7.5h-166.438c-4.143 0-7.5 3.357-7.5 7.5s3.358 7.5 7.5 7.5z"/><path d="m166.532 251.297h166.438c4.143 0 7.5-3.357 7.5-7.5s-3.357-7.5-7.5-7.5h-166.438c-4.143 0-7.5 3.357-7.5 7.5s3.358 7.5 7.5 7.5z"/><path d="m160.998 277.293c0 4.143 3.357 7.5 7.5 7.5h210.052c4.143 0 7.5-3.357 7.5-7.5s-3.357-7.5-7.5-7.5h-210.052c-4.143 0-7.5 3.357-7.5 7.5z"/><path d="m257.251 310.789c0-4.143-3.357-7.5-7.5-7.5h-81.253c-4.143 0-7.5 3.357-7.5 7.5s3.357 7.5 7.5 7.5h81.253c4.143 0 7.5-3.357 7.5-7.5z"/><path d="m393.357 344.102c-1.392-3.774-4.891-6.213-8.913-6.213h-10.243c-9.108-20.901-29.719-34.599-52.901-34.599-23.187 0-43.801 13.698-52.911 34.599h-11.374c-4.042 0-7.649 2.565-8.975 6.385-1.326 3.818-.085 8.067 3.088 10.572l7.836 6.186-7.836 6.186c-3.173 2.505-4.414 6.754-3.088 10.572 1.325 3.819 4.933 6.385 8.975 6.385h11.375c9.111 20.899 29.723 34.596 52.909 34.596 23.182 0 43.792-13.697 52.9-34.596h10.245c4.023 0 7.522-2.439 8.914-6.215 1.391-3.775.312-7.902-2.747-10.512l-7.519-6.416 7.519-6.417c3.061-2.612 4.138-6.739 2.746-10.513zm-120.5 25.072.869-.686c2.297-1.813 3.614-4.531 3.614-7.458 0-2.926-1.317-5.644-3.613-7.456l-.869-.686h96.669l-1.075.917c-2.117 1.809-3.331 4.441-3.331 7.226s1.214 5.417 3.332 7.227l1.074.916zm48.443-50.884c14.826 0 28.228 7.567 35.949 19.599h-71.907c7.722-12.032 21.128-19.599 35.958-19.599zm0 85.48c-14.829 0-28.233-7.566-35.956-19.596h71.904c-7.722 12.029-21.123 19.596-35.948 19.596z"/><path d="m380.226 202.924c-2.058-.723-3.814-1.383-5.373-2.019-3.371-1.375-5.747-2.62-7.257-3.8-.16-.125-.467-.951-.24-2.157.112-.594.625-2.574 2.525-3.146.853-.257 1.686-.404 2.503-.441 2.99-.164 6.691 2.095 7.696 2.859 3.257 2.555 7.973 1.988 10.53-1.271s1.988-7.974-1.271-10.53c-.587-.46-4.461-3.395-9.819-5.007v-.612c0-4.143-3.357-7.5-7.5-7.5s-7.5 3.357-7.5 7.5v.992c-6.122 2.253-10.64 7.666-11.905 14.378-1.241 6.587.954 13.003 5.737 16.749 2.657 2.077 6.101 3.944 10.834 5.874 1.789.73 3.774 1.478 6.053 2.278 2.875 1.017 4.094 2.953 3.623 5.756-.363 2.159-2.224 5.822-6.893 5.853-4.921.023-6.058-.148-9.629-2.479-3.47-2.266-8.116-1.289-10.381 2.18s-1.288 8.116 2.18 10.381c3.905 2.549 7.003 3.822 10.381 4.426v.613c0 4.143 3.357 7.5 7.5 7.5s7.5-3.357 7.5-7.5v-1.468c7.259-2.656 12.788-9.017 14.134-17.016 1.675-9.962-3.715-18.958-13.428-22.393z"/></g></svg>