<svg id="Capa_1" enable-background="new 0 0 512 512" height="512" viewBox="0 0 512 512" width="512" xmlns="http://www.w3.org/2000/svg"  fill="#0c3761"><g><path d="m479.887 267.631h-21.893v-90.258c0-6.949-5.653-12.603-12.602-12.603h-40.616c-6.949 0-12.602 5.654-12.602 12.603v90.258h-46.496v-124.545c0-6.949-5.653-12.602-12.602-12.602h-40.616c-6.949 0-12.603 5.653-12.603 12.602v124.545h-26.701v-95.148c0-9.204-7.488-16.692-16.692-16.692h-3.105v-46.989c0-6.953-5.652-12.61-12.6-12.61h-40.62c-6.948 0-12.6 5.657-12.6 12.61v46.989h-46.49v-81.279c0-6.947-5.657-12.6-12.61-12.6h-40.61c-6.953 0-12.61 5.652-12.61 12.6v81.278h-13.914c-9.204 0-16.692 7.488-16.692 16.692v59.586c0 4.142 3.358 7.5 7.5 7.5s7.5-3.358 7.5-7.5v-59.586c0-.933.759-1.692 1.692-1.692h195.158c.933 0 1.692.759 1.692 1.692v286.16c0 .933-.759 1.692-1.692 1.692h-195.158c-.933 0-1.692-.759-1.692-1.692v-191.574c0-4.142-3.358-7.5-7.5-7.5s-7.5 3.358-7.5 7.5v191.575c0 9.204 7.488 16.692 16.692 16.692h195.158c9.204 0 16.692-7.488 16.692-16.692v-176.012h226.731c4.142 0 7.5-3.358 7.5-7.5.001-4.142-3.357-7.5-7.499-7.5zm-297.349-156.439h35.82v44.598h-35.82zm-112.319-34.28h35.83v78.878h-35.83zm336.954 102.858h35.821v87.861h-35.821zm-112.317-34.287h35.821v122.148h-35.821z"/><path d="m80.513 257.068h116.743c7.312 0 13.262-5.949 13.262-13.262v-27.391c0-7.312-5.949-13.262-13.262-13.262h-116.743c-7.312 0-13.262 5.949-13.262 13.262v27.391c0 7.313 5.95 13.262 13.262 13.262zm1.738-38.915h113.267v23.915h-113.267z"/><path d="m67.251 414.71c0 7.313 5.949 13.262 13.262 13.262h116.743c7.312 0 13.262-5.949 13.262-13.262v-116.743c0-7.312-5.949-13.262-13.262-13.262h-116.743c-7.313 0-13.262 5.949-13.262 13.262zm15-50.871h49.134v49.134h-49.134zm64.133 49.134v-49.134h49.134v49.134zm49.134-64.134h-49.134v-49.134h49.134zm-64.134-49.133v49.134h-49.133v-49.134z"/><path d="m364.858 341.995c-46.87 0-85.003 38.132-85.003 85.002s38.133 85.003 85.003 85.003c19.593 0 38.715-6.828 53.844-19.225 3.204-2.625 3.672-7.351 1.047-10.555s-7.35-3.672-10.555-1.047c-12.454 10.206-28.2 15.827-44.336 15.827-38.599 0-70.003-31.403-70.003-70.003s31.403-70.002 70.003-70.002 70.003 31.403 70.003 70.002c0 10.243-2.16 20.11-6.419 29.327-1.738 3.76-.098 8.217 3.662 9.955 3.763 1.738 8.217.098 9.955-3.662 5.178-11.204 7.803-23.188 7.803-35.619-.001-46.871-38.133-85.003-85.004-85.003z"/><path d="m364.858 480.532c4.142 0 7.5-3.358 7.5-7.5v-6.069c10.835-2.098 19.337-9.823 21.14-19.923 1.592-8.914-2.49-20.579-18.731-26.562-7.46-2.748-13.965-5.019-18.242-7.349-2.097-1.142-2.209-3.252-2.09-4.408.245-2.371 1.954-5.341 6.015-6.564 9.726-2.927 18.664 4.158 18.898 4.347 3.17 2.633 7.876 2.215 10.532-.944 2.665-3.17 2.255-7.902-.915-10.567-.407-.343-7.015-5.785-16.607-7.805v-6.225c0-4.142-3.358-7.5-7.5-7.5s-7.5 3.358-7.5 7.5v6.495c-.41.106-.821.212-1.235.337-9.157 2.758-15.676 10.367-16.608 19.384-.832 8.039 2.938 15.367 9.836 19.124 13.755 7.49 31.025 8.89 29.381 18.1-.715 4.005-5.512 8.147-12.301 8.147-6.783 0-13.318-2.743-17.481-7.336-2.781-3.069-7.524-3.303-10.594-.521-3.069 2.781-3.303 7.524-.521 10.594 5.007 5.525 11.948 9.436 19.524 11.202v6.544c-.001 4.141 3.357 7.499 7.499 7.499z"/><path d="m82.439 14.763 357.868 92.63-23.212 12.615c-3.64 1.978-4.986 6.532-3.009 10.171 1.983 3.649 6.541 4.982 10.171 3.009l34.717-18.867c3.162-1.719 5.493-4.703 6.395-8.187s.312-7.225-1.62-10.262l-21.203-33.342c-2.223-3.497-6.859-4.527-10.353-2.304-3.496 2.223-4.527 6.858-2.304 10.353l14.177 22.293-357.868-92.63c-4.011-1.04-8.103 1.371-9.14 5.381-1.038 4.01 1.372 8.102 5.381 9.14z"/></g></svg>