<svg xmlns="http://www.w3.org/2000/svg" width="69.877" height="63.115" viewBox="0 0 69.877 63.115"><g transform="translate(-8 -32)"><path d="M73.932,32H11.945A3.949,3.949,0,0,0,8,35.945V82.154A3.949,3.949,0,0,0,11.945,86.1H33.384l-1.352,3.381h-6a1.127,1.127,0,0,0-1.127,1.127v3.381a1.127,1.127,0,0,0,1.127,1.127H59.844a1.127,1.127,0,0,0,1.127-1.127V90.606a1.127,1.127,0,0,0-1.127-1.127h-6L52.493,86.1H73.932a3.949,3.949,0,0,0,3.945-3.945V35.945A3.949,3.949,0,0,0,73.932,32ZM58.717,91.734v1.127H27.16V91.734ZM34.46,89.479,35.813,86.1H50.064l1.352,3.381Zm41.163-7.326a1.692,1.692,0,0,1-1.691,1.691H11.945a1.692,1.692,0,0,1-1.691-1.691V79.336H75.623Zm0-5.072H10.254V35.945a1.692,1.692,0,0,1,1.691-1.691H73.932a1.692,1.692,0,0,1,1.691,1.691Z" fill="#fff"/><path d="M67.613,64H43.945A3.949,3.949,0,0,0,40,67.945v30.43a3.949,3.949,0,0,0,3.945,3.945H67.613a3.949,3.949,0,0,0,3.945-3.945V67.945A3.949,3.949,0,0,0,67.613,64ZM64.8,100.066H62.541V95.557a1.127,1.127,0,0,0-2.254,0v4.508H51.27V95.557a1.127,1.127,0,0,0-2.254,0v4.508H46.762V94.43a4.513,4.513,0,0,1,4.508-4.508h1.321a3.38,3.38,0,0,0,6.373,0h1.321A4.513,4.513,0,0,1,64.8,94.43ZM52.165,78.691a20.96,20.96,0,0,0,8.122-1.8v4.017a4.508,4.508,0,0,1-9.016,0V78.663C51.535,78.68,51.833,78.691,52.165,78.691ZM51.27,76.4V76.4a4.513,4.513,0,0,1,4.508-4.508,4.567,4.567,0,0,1,4.087,2.725,20.284,20.284,0,0,1-6.581,1.778A13.013,13.013,0,0,1,51.27,76.4Zm5.635,11.169V88.8a1.127,1.127,0,1,1-2.254,0V87.572A6.678,6.678,0,0,0,56.906,87.572Zm12.4,10.8a1.692,1.692,0,0,1-1.691,1.691h-.564V94.43a6.769,6.769,0,0,0-6.762-6.762H59.16v-.91a6.764,6.764,0,0,0,3.381-5.852V76.4c0-.032,0-.063,0-.1a6.93,6.93,0,0,0-1.962-4.6,6.629,6.629,0,0,0-4.8-2.065A6.769,6.769,0,0,0,49.016,76.4v4.508A6.764,6.764,0,0,0,52.4,86.758v.91H51.27a6.769,6.769,0,0,0-6.762,6.762v5.635h-.564a1.692,1.692,0,0,1-1.691-1.691V67.945a1.692,1.692,0,0,1,1.691-1.691H67.613A1.692,1.692,0,0,1,69.3,67.945Z" transform="translate(-27.492 -27.492)" fill="#fff"/><path d="M303.1,64h-19.16A3.949,3.949,0,0,0,280,67.945v30.43a3.949,3.949,0,0,0,3.945,3.945H303.1a3.949,3.949,0,0,0,3.945-3.945V67.945A3.949,3.949,0,0,0,303.1,64ZM304.8,98.375a1.692,1.692,0,0,1-1.691,1.691h-19.16a1.692,1.692,0,0,1-1.691-1.691V71.889H304.8Zm-22.541-28.74V67.945a1.692,1.692,0,0,1,1.691-1.691H303.1a1.692,1.692,0,0,1,1.691,1.691v1.691Z" transform="translate(-233.68 -27.492)" fill="#fff"/><path d="M305.127,141.635h4.508a1.127,1.127,0,0,0,1.127-1.127v-3.381A1.127,1.127,0,0,0,309.635,136h-4.508A1.127,1.127,0,0,0,304,137.127v3.381A1.127,1.127,0,0,0,305.127,141.635Zm1.127-3.381h2.254v1.127h-2.254Z" transform="translate(-254.299 -89.348)" fill="#fff"/><path d="M361.127,138.254H371.27a1.127,1.127,0,0,0,0-2.254H361.127a1.127,1.127,0,1,0,0,2.254Z" transform="translate(-302.41 -89.348)" fill="#fff"/><path d="M361.127,162.254h4.508a1.127,1.127,0,0,0,0-2.254h-4.508a1.127,1.127,0,1,0,0,2.254Z" transform="translate(-302.41 -109.967)" fill="#fff"/><path d="M305.127,189.635h4.508a1.127,1.127,0,0,0,1.127-1.127v-3.381A1.127,1.127,0,0,0,309.635,184h-4.508A1.127,1.127,0,0,0,304,185.127v3.381A1.127,1.127,0,0,0,305.127,189.635Zm1.127-3.381h2.254v1.127h-2.254Z" transform="translate(-254.299 -130.586)" fill="#fff"/><path d="M361.127,186.254H371.27a1.127,1.127,0,1,0,0-2.254H361.127a1.127,1.127,0,1,0,0,2.254Z" transform="translate(-302.41 -130.586)" fill="#fff"/><path d="M361.127,210.254h4.508a1.127,1.127,0,0,0,0-2.254h-4.508a1.127,1.127,0,1,0,0,2.254Z" transform="translate(-302.41 -151.205)" fill="#fff"/><path d="M305.127,237.635h4.508a1.127,1.127,0,0,0,1.127-1.127v-3.381A1.127,1.127,0,0,0,309.635,232h-4.508A1.127,1.127,0,0,0,304,233.127v3.381A1.127,1.127,0,0,0,305.127,237.635Zm1.127-3.381h2.254v1.127h-2.254Z" transform="translate(-254.299 -171.824)" fill="#fff"/><path d="M361.127,234.254H371.27a1.127,1.127,0,1,0,0-2.254H361.127a1.127,1.127,0,1,0,0,2.254Z" transform="translate(-302.41 -171.824)" fill="#fff"/><path d="M361.127,258.254h4.508a1.127,1.127,0,1,0,0-2.254h-4.508a1.127,1.127,0,1,0,0,2.254Z" transform="translate(-302.41 -192.443)" fill="#fff"/></g></svg>