<svg xmlns="http://www.w3.org/2000/svg" width="63.999" height="64" viewBox="0 0 63.999 64"><g transform="translate(-0.002)"><path d="M115.16,125.465h18.4a.938.938,0,0,0,0-1.875h-18.4A.938.938,0,0,0,115.16,125.465Z" transform="translate(-99.968 -108.141)" fill="#fff"/><path d="M115.16,180.49h14.145a.938.938,0,0,0,0-1.875H115.16A.938.938,0,0,0,115.16,180.49Z" transform="translate(-99.968 -156.288)" fill="#fff"/><path d="M115.16,235.515h12.145a.938.938,0,0,0,0-1.875H115.16A.938.938,0,0,0,115.16,235.515Z" transform="translate(-99.968 -204.435)" fill="#fff"/><path d="M132.761,331.988h-.621v-9.162a.937.937,0,0,0-.937-.937H127.44v-3.3a.937.937,0,0,0-.937-.938h-4.688a.937.937,0,0,0-.937.938v5.7h-3.755a.937.937,0,0,0-.937.938v6.763h-.621a.937.937,0,1,0,0,1.875h17.2a.938.938,0,0,0,0-1.875Zm-14.7,0v-5.825h2.813v5.825Zm4.692,0V319.521h2.813v12.467Zm4.7,0v-8.225h2.813v8.225Z" transform="translate(-100.296 -277.94)" fill="#fff"/><path d="M63.994,29.2a15.477,15.477,0,0,0-9.031-13.586c-.027-.016-.056-.03-.085-.044a.92.92,0,0,0-.091-.035,15.522,15.522,0,0,0-6.66-1.31V9.06A2.18,2.18,0,0,0,45.95,6.882H44.6V5.712A2.18,2.18,0,0,0,42.42,3.534H41.064V2.178A2.18,2.18,0,0,0,38.887,0H2.179A2.18,2.18,0,0,0,0,2.178V54.94a2.18,2.18,0,0,0,2.177,2.178H3.535v1.356a2.179,2.179,0,0,0,2.173,2.178l1.356.006v1.165A2.18,2.18,0,0,0,9.242,64H38.527a.947.947,0,0,0,.661-.273l8.663-8.622a.938.938,0,0,0,.276-.665V45.146c.126,0,.253.006.379.006a15.555,15.555,0,0,0,7.575-1.965.938.938,0,0,0-.916-1.636A13.638,13.638,0,0,1,39.6,39.933l9.206-9.206L61.4,34.061a13.462,13.462,0,0,1-2.635,4.569.938.938,0,0,0,1.41,1.236A15.405,15.405,0,0,0,63.994,29.2ZM53.238,16.931,47.744,29.14l-9.468,9.468A13.593,13.593,0,0,1,53.238,16.931ZM5.712,58.777a.3.3,0,0,1-.3-.3V5.712a.3.3,0,0,1,.3-.3h6.54a.938.938,0,0,0,0-1.875H5.712A2.18,2.18,0,0,0,3.535,5.712V55.243H2.179a.3.3,0,0,1-.3-.3V2.178a.3.3,0,0,1,.3-.3H38.887a.3.3,0,0,1,.3.3V3.534H17.5a.938.938,0,0,0,0,1.875H42.42a.3.3,0,0,1,.3.3v1.17H9.242A2.18,2.18,0,0,0,7.065,9.06V58.782ZM8.94,61.822V9.06a.3.3,0,0,1,.3-.3H45.95a.3.3,0,0,1,.3.3v5.327a15.467,15.467,0,0,0,0,30.6v8.439H39.766A2.18,2.18,0,0,0,37.589,55.6v6.525H9.242a.3.3,0,0,1-.3-.3Zm30.525-1.03V55.6a.3.3,0,0,1,.3-.3h5.167ZM49.837,29.059,54.949,17.7a13.587,13.587,0,0,1,6.924,14.55Z" fill="#fff"/></g></svg>